<?xml version="1.0" encoding="utf-8"?>
<!-- Generator: Adobe Illustrator 23.0.1, SVG Export Plug-In . SVG Version: 6.00 Build 0)  -->
<svg version="1.1" id="Layer_1" xmlns="http://www.w3.org/2000/svg" xmlns:xlink="http://www.w3.org/1999/xlink" x="0px" y="0px"
	 viewBox="0 0 1920 1080" style="enable-background:new 0 0 1920 1080;" xml:space="preserve">
<style type="text/css">
	.st0{fill:#60EFEF;}
	.st1{opacity:0.3;fill:#5DF4F0;}
	.st2{fill:#FFFFFF;}
	.st3{fill:#EEEEEE;}
	.st4{fill:#C3EDC3;}
	.st5{fill:#9DE29D;}
	.st6{fill:#88D388;}
</style>
<g>
	<g>
		<rect class="st0" width="1920" height="1080"/>
		<path class="st1" d="M1920,0v391.55c-75.33,11.88-151.81,18.03-227.88,8.97c-107.02-12.74-211.41-44.38-319.49-48.69
			c-44-1.75-88.51,1.17-131.37,11.66c-51.87,12.7-99.92,30.96-153.63,35.03c-48.03,3.63-94.8,7.18-142.06-4.51
			c-44.41-10.99-86.92-29.65-132.53-35.69c-80.1-10.6-152.63,22.04-230.11,33.99c-54.3,8.38-112.51,10.35-166.78,1.2
			c-62.45-10.52-119.16-45.4-183.44-46.71c-24.6-0.5-49.24,1.1-73.61,4.47C104.49,358.83,55,380,0,391V0H1920z"/>
		<path class="st1" d="M1920,0v261.11c-41.69,9.47-87.85,8.12-130.41,0.81c-74.08-12.73-145.13-40.24-220.25-45.9
			c-121.35-9.15-239.56,39.9-360.82,27.79c-103.99-10.39-192.38-77.51-296.59-86.22c-162.76-13.61-302.95,105.15-465.56,93.22
			c-109.9-8.06-201.23-52.74-314.06-35.47C88.5,222.05,41,248,0,261V0H1920z"/>
	</g>
	<g>
		<path class="st2" d="M234.13,166.45c0-17.96-12.91-32.89-29.93-35.96c-5.82-12.41-18.38-20.99-32.94-20.99
			c-6.92,0-13.4,1.94-18.91,5.31c-5.51-3.37-11.98-5.31-18.91-5.31c-14.34,0-26.74,8.33-32.67,20.43
			c-19.64,0.53-35.4,16.67-35.4,36.52c0,19.77,15.63,35.86,35.16,36.51c5.84,12.36,18.37,20.91,32.9,20.91
			c6.63,0,12.84-1.79,18.2-4.9c5.35,3.11,11.57,4.9,18.2,4.9c14.66,0,27.29-8.71,33.06-21.26
			C220.55,200.1,234.13,184.87,234.13,166.45z"/>
		<path class="st3" d="M133.44,223.88c6.63,0,12.84-1.79,18.2-4.9c5.35,3.11,11.57,4.9,18.2,4.9c12.2,0,22.99-6.03,29.59-15.28
			c-25.67,22.15-48.03,2.47-48.03,2.47c-45.38,4.75-35.45-28.48-35.45-28.48c-27.77,11.34-49.36-7.3-49.54-7.45
			c3.79,15.6,17.55,27.27,34.12,27.83C106.37,215.32,118.91,223.88,133.44,223.88z"/>
		<path class="st3" d="M206,183.17L206,183.17c0.15,1.37,0.24,2.75,0.24,4.16c0,5.46-1.2,10.64-3.34,15.3
			c9.12-1.3,17.16-6,22.79-12.78C211.58,193.3,206,183.17,206,183.17z"/>
	</g>
	<g>
		<path class="st2" d="M1404.42,204.91c-2.86,0-5.65,0.31-8.34,0.88c-6.75-12.39-19.87-20.8-34.96-20.8
			c-14.86,0-27.82,8.17-34.65,20.25c-1.68-0.22-3.4-0.34-5.14-0.34c-21.97,0-39.79,17.83-39.79,39.82s17.81,39.82,39.79,39.82
			c2.57,0,5.09-0.25,7.52-0.72c7.23,10.01,18.98,16.53,32.26,16.53c13.59,0,25.59-6.83,32.76-17.23c3.36,0.92,6.89,1.42,10.54,1.42
			c21.97,0,39.79-17.83,39.79-39.82S1426.39,204.91,1404.42,204.91z"/>
		<path class="st3" d="M1388.65,289.29c-53.28,15.77-56.79-32.25-56.79-32.25c-25.74,19.33-47.84-6.46-50.17-8.91
			c1.72,20.41,18.8,36.44,39.63,36.44c2.57,0,5.09-0.25,7.52-0.72c7.23,10.01,18.98,16.53,32.26,16.53
			C1371.81,300.38,1381.51,296.15,1388.65,289.29L1388.65,289.29z"/>
		<g>
			<path class="st3" d="M1393.99,283.17c3.32,0.9,6.82,1.39,10.43,1.39c8.62,0,16.59-2.75,23.1-7.41
				c-19.76,4.3-27.43-7.77-30.29-15.65C1398.82,272.21,1394.7,281.64,1393.99,283.17z"/>
		</g>
	</g>
	<rect x="179" y="70" class="st4" width="214" height="1010"/>
	<rect x="1425" y="70" class="st4" width="220" height="1010"/>
	<path class="st5" d="M1877,561v71h-151V510h-158.23c-0.68-2.37-0.77-4.74-0.22-7.1c0.03-0.15,0.07-0.3,0.11-0.44
		c0.03-0.1,0.06-0.2,0.09-0.3c0.16,0.02,0.32,0.02,0.48,0.02c0.01,0,0.01,0,0.02,0c0.87-0.04,1.73-0.41,2.32-1.05
		c0.56,0.43,1.24,0.68,1.94,0.75c0.17,0.02,0.35,0.02,0.53,0.01c0.21-0.01,0.42-0.04,0.63-0.09c0.31-0.07,0.61-0.17,0.89-0.31
		c1.83,0.57,3.99-0.29,4.95-1.95c1.07,0.17,2.2-0.21,2.99-0.94c0.27-0.25,0.43-0.57,0.68-0.76c0.08-0.06,0.18-0.11,0.3-0.14
		c0.26-0.07,0.61-0.03,0.97,0.02c0.34,0.05,0.68,0.11,0.95,0.13c0.01,0,0.03,0,0.05,0.01c0.06,0,0.13,0,0.19,0s0.13-0.01,0.19-0.02
		c0.12-0.03,0.23-0.08,0.3-0.17c0.01-0.01,0.01-0.03,0.02-0.05c0.05-0.09,0.07-0.18,0.08-0.28c0.07-0.52,0.14-1.04,0.21-1.56
		c0.5-0.03,0.99-0.11,1.47-0.23c0.48-0.12,0.95-0.28,1.4-0.49c0.51-0.23,1.01-0.53,1.27-0.99c0.08-0.14,0.12-0.28,0.15-0.44
		c0.01-0.04,0.01-0.08,0.01-0.12c0.01-0.12,0.01-0.24-0.01-0.36c0-0.02,0-0.05,0-0.07c0,0-0.01,0-0.01,0
		c-0.04-0.17-0.09-0.34-0.19-0.49c0.7-0.2,1.34-0.65,1.61-1.29s0.08-1.46-0.53-1.83c1.23-0.8,2.06-2.14,2.19-3.54
		c0.07-0.83-0.24-1.84-1.1-2.03c0.75-0.51,1.44-1.17,1.74-2c0.31-0.86,0.11-1.75-0.53-2.42c-0.04-0.04,0.19-0.29,0.45-0.56
		c0.05-0.05,0.09-0.09,0.14-0.14c0.06-0.05,0.11-0.11,0.16-0.16c0.04-0.04,0.08-0.08,0.11-0.11c0.04-0.04,0.08-0.08,0.11-0.11
		c0.02-0.02,0.04-0.04,0.06-0.06c0.04-0.05,0.07-0.08,0.08-0.1c0.07-0.13,0.11-0.27,0.15-0.41c0.09-0.36,0.1-0.75,0.12-1.09
		c0.01-0.14,0.01-0.29,0.01-0.43c0-0.58-0.06-1.18-0.28-1.71c-0.06-0.13-0.12-0.26-0.2-0.38s-0.16-0.24-0.27-0.35
		c-0.1-0.11-0.21-0.21-0.34-0.31c-0.26-0.2-0.59-0.36-0.71-0.66c-0.04-0.1-0.05-0.21-0.05-0.32s0.01-0.22,0.02-0.33
		c0.03-0.36,0.02-0.74-0.05-1.1c-0.05-0.24-0.12-0.47-0.23-0.69c-0.15-0.29-0.36-0.54-0.64-0.74c-0.03-0.02-0.05-0.04-0.07-0.06
		c-0.12-0.07-0.25-0.14-0.29-0.26c-0.02-0.08-0.01-0.15,0.03-0.23c0.02-0.04,0.05-0.07,0.07-0.1c0.03-0.03,0.06-0.06,0.09-0.09
		c0.49-0.46,1.09-0.83,1.56-1.31c0.24-0.24,0.44-0.53,0.57-0.83c0.13-0.31,0.18-0.63,0.1-0.95c-0.02-0.1-0.06-0.2-0.09-0.31
		c-0.03-0.1-0.06-0.2-0.06-0.31c0-0.13,0.04-0.25,0.1-0.38c0.18-0.38,0.55-0.76,0.7-1.1c0.29-0.66,0.48-1.26,0.56-1.84
		c0.11-0.78,0.04-1.53-0.21-2.37c-0.06-0.21-0.13-0.43-0.22-0.65c0.28-0.57,0.44-1.19,0.5-1.83c0.09-0.95-0.07-1.92-0.43-2.8
		c-0.36-0.88-0.93-1.67-1.68-2.26c-0.41-0.32-0.88-0.59-1.15-1.03c-0.49-0.79-0.2-1.85-0.54-2.72c-0.27-0.69-0.85-1.11-1.52-1.46
		c-0.67-0.35-1.42-0.62-2.04-1.03c-0.36-0.23-0.67-0.52-0.97-0.83c-0.15-0.15-0.3-0.31-0.44-0.47c-0.29-0.32-0.57-0.65-0.87-0.96
		c-0.45-0.46-0.93-0.87-1.51-1.12c-0.24-0.1-0.49-0.18-0.75-0.22c-0.77-0.13-1.59,0.02-2.26,0.42c0.05-0.03-0.11-0.34-0.3-0.66
		c-0.14-0.24-0.3-0.48-0.39-0.6c-0.03-0.04-0.05-0.07-0.07-0.08c-0.18-0.18-0.36-0.29-0.55-0.37c-0.38-0.18-0.78-0.21-1.29-0.24
		c-1.22-0.07-1.98-0.02-3.15-0.47c-0.26-0.1-0.55-0.2-0.85-0.28c-0.75-0.21-1.6-0.35-2.43-0.34c-1.5,0.01-2.93,0.5-3.62,1.91
		c-0.08-0.6-0.41-1.1-0.86-1.53c-0.22-0.21-0.48-0.41-0.74-0.59c-0.26-0.18-0.54-0.35-0.8-0.51c-0.26-0.16-0.54-0.32-0.84-0.35
		c-0.27-0.03-0.53,0.04-0.79,0.14c-0.08,0.03-0.17,0.07-0.25,0.11c-0.92,0.42-1.78,0.96-2.55,1.61c-0.04,0.03-0.29-0.34-0.67-0.8
		c-0.31-0.37-0.7-0.79-1.15-1.1c-0.33-0.23-0.69-0.41-1.06-0.45c-0.12-0.01-0.25-0.01-0.37,0.01c-0.38,0.05-0.76,0.26-1.13,0.7
		c-0.39,0.45-0.86,0.96-1.42,1c-0.08,0.01-0.16,0-0.24-0.01c-0.13-0.02-0.25-0.07-0.37-0.13s-0.23-0.12-0.35-0.18
		c-0.04-0.02-0.08-0.03-0.11-0.04c-0.08-0.03-0.16-0.07-0.25-0.09c-0.12-0.04-0.25-0.06-0.37-0.08c0,0,0,0,0,0
		c-0.77-0.12-1.6,0.08-2.3,0.45c-0.93,0.49-1.69,1.25-2.45,1.98c-0.17,0.17-0.36,0.34-0.6,0.36c-0.22,0.02-0.42-0.1-0.62-0.19
		c-1.01-0.49-2.21-0.43-3.28-0.05h0c-0.18,0.06-0.35,0.13-0.52,0.21c0,0,0,0,0,0c-0.89,0.42-1.67,1.04-2.39,1.71
		c-0.24,0.22-0.48,0.46-0.71,0.69c-0.08,0.08-0.17,0.16-0.26,0.23c-0.09,0.07-0.19,0.12-0.3,0.14c-0.11,0.02-0.21,0.01-0.32-0.01
		c-0.11-0.02-0.23-0.06-0.34-0.09c-0.73-0.2-1.38-0.1-1.97,0.19c-0.12,0.06-0.23,0.12-0.35,0.19c-0.91,0.57-1.66,1.55-2.29,2.41
		c-0.16,0.22-0.31,0.43-0.46,0.62c-0.28,0.37-0.59,0.73-0.91,1.1c-0.32,0.36-0.63,0.73-0.91,1.11c-0.14,0.19-0.27,0.38-0.38,0.58
		c-0.14,0.24-0.25,0.49-0.34,0.74c-0.13,0.37-0.21,0.75-0.18,1.17c-0.14-0.06-0.28-0.09-0.42-0.1c-0.69-0.04-1.33,0.51-1.75,1.2
		c-0.08,0.14-0.16,0.28-0.22,0.43c-0.06,0.15-0.12,0.29-0.16,0.44c-0.13,0.44-0.22,0.91-0.34,1.37c-0.08,0.3-0.17,0.6-0.29,0.87
		c-0.18,0.41-0.42,0.78-0.79,1.05c-0.34,0.26-0.76,0.4-1.08,0.69c-0.49,0.45-0.61,1.05-0.6,1.71c0,0.33,0.04,0.68,0.07,1.03
		c0.01,0.12,0.02,0.23,0.03,0.35c0.06,0.7,0.07,1.41-0.21,2.01c-0.13,0.28-0.32,0.52-0.48,0.79c-0.11,0.18-0.2,0.37-0.27,0.56
		c-0.21,0.57-0.26,1.18-0.25,1.8c0.01,0.41,0.04,0.83,0.06,1.24s0.05,0.82,0.03,1.22c-0.01,0.31-0.01,0.65,0.02,1
		c0.1,1.04,0.46,2.13,1.44,2.53c-0.13,0.12-0.23,0.25-0.31,0.4c-0.15,0.29-0.21,0.62-0.17,0.94c0.02,0.16,0.06,0.33,0.13,0.48
		c0.06,0.15,0.14,0.3,0.23,0.44c0.18,0.28,0.39,0.53,0.61,0.79c0.11,0.13,0.22,0.25,0.33,0.38c0.56,0.66,1.03,1.39,1.41,2.17
		c0.04,0.09,0.08,0.19,0.1,0.28c0.01,0.05,0.01,0.1,0.01,0.14s-0.02,0.09-0.04,0.14c-0.05,0.09-0.12,0.15-0.21,0.19
		c-0.09,0.04-0.19,0.08-0.29,0.1c-0.09,0.03-0.17,0.07-0.25,0.1c-0.32,0.13-0.63,0.29-0.9,0.5c-0.34,0.27-0.61,0.61-0.79,0.99
		c-0.09,0.19-0.15,0.4-0.18,0.61c-0.09,0.63,0.08,1.3,0.53,1.76c-0.5,0.28-0.9,0.71-1.16,1.21c-0.26,0.5-0.37,1.07-0.31,1.62
		c0.05,0.42,0.2,0.81,0.43,1.17s0.54,0.66,0.89,0.9c0.24,0.16,0.5,0.28,0.78,0.36c-0.13,0.17-0.22,0.37-0.28,0.57
		c-0.15,0.53-0.05,1.1,0.24,1.57c0.05,0.07,0.07,0.16,0.13,0.23l0,0c0.23,0.27,0.53,0.48,0.85,0.67c0.21,0.13,0.42,0.25,0.62,0.39
		c0.1,0.07,0.2,0.14,0.29,0.21c0.18,0.15,0.34,0.32,0.46,0.53c0.12,0.21,0.19,0.45,0.22,0.69c0.02,0.12,0.03,0.24,0.04,0.37
		c0.04,0.62-0.02,1.27,0.28,1.81c0.3,0.55,0.91,0.87,1.56,1.01c0.22,0.05,0.44,0.08,0.65,0.09c0.87,0.05,1.74-0.09,2.6,0.05
		c-0.01,0.12-0.01,0.25,0,0.37c0.02,0.25,0.08,0.49,0.17,0.73c0.04,0.12,0.1,0.23,0.16,0.34c0.12,0.22,0.27,0.43,0.44,0.61
		c0.17,0.18,0.37,0.34,0.59,0.47c0.44,0.26,0.96,0.39,1.47,0.39c0.26,0,0.52-0.03,0.77-0.09s0.49-0.16,0.71-0.29
		c0.06,0.22,0.15,0.43,0.27,0.63c0.36,0.58,0.98,1.02,1.67,1.15c0.16,0.03,0.29,0.08,0.42,0.14c0.38,0.17,0.66,0.43,1.16,0.45
		c0.56,0.02,1.17-0.19,1.68,0.13c0.43,0.27,0.59,0.85,1.04,1.09c0.2,0.1,0.42,0.12,0.64,0.11c0.08,0,0.15-0.01,0.23-0.02
		c0.15-0.01,0.31-0.03,0.46-0.03s0.3,0.02,0.44,0.06c0.18,0.06,0.33,0.17,0.49,0.28c0.07,0.05,0.13,0.09,0.2,0.14
		c1.06,0.62,2.45-0.02,3.24-0.97c0.03,0.11,0.06,0.21,0.09,0.32c0.54,2.43,0.44,4.86-0.2,7.28H1504v211h-449V499h-52.91
		c-0.96-2.7-1.17-5.4-0.53-8.1c0.03-0.15,0.07-0.3,0.11-0.44c0.03-0.1,0.06-0.2,0.09-0.3c0.16,0.02,0.32,0.02,0.48,0.02
		c0.01,0,0.01,0,0.02,0c0.87-0.04,1.73-0.41,2.32-1.05c0.56,0.43,1.24,0.68,1.94,0.75c0.17,0.02,0.35,0.02,0.53,0.01
		c0.21-0.01,0.42-0.04,0.63-0.09c0.31-0.07,0.61-0.17,0.89-0.31c1.83,0.57,3.99-0.29,4.95-1.95c1.07,0.17,2.2-0.21,2.99-0.94
		c0.27-0.25,0.43-0.57,0.68-0.76c0.08-0.06,0.18-0.11,0.3-0.14c0.26-0.07,0.61-0.03,0.97,0.02c0.34,0.05,0.68,0.11,0.95,0.13
		c0.01,0,0.03,0,0.05,0.01c0.06,0,0.13,0,0.19,0s0.13-0.01,0.19-0.02c0.12-0.03,0.23-0.08,0.3-0.17c0.01-0.01,0.01-0.03,0.02-0.05
		c0.05-0.09,0.07-0.18,0.08-0.28c0.07-0.52,0.14-1.04,0.21-1.56c0.5-0.03,0.99-0.11,1.47-0.23c0.48-0.12,0.95-0.28,1.4-0.49
		c0.51-0.23,1.01-0.53,1.27-0.99c0.08-0.14,0.12-0.28,0.15-0.44c0.01-0.04,0.01-0.08,0.01-0.12c0.01-0.12,0.01-0.24-0.01-0.36
		c0-0.02,0-0.05,0-0.07c0,0-0.01,0-0.01,0c-0.04-0.17-0.09-0.34-0.19-0.49c0.7-0.2,1.34-0.65,1.61-1.29s0.08-1.46-0.53-1.83
		c1.23-0.8,2.06-2.14,2.19-3.54c0.07-0.83-0.24-1.84-1.1-2.03c0.75-0.51,1.44-1.17,1.74-2c0.31-0.86,0.11-1.75-0.53-2.42
		c-0.04-0.04,0.19-0.29,0.45-0.56c0.05-0.05,0.09-0.09,0.14-0.14c0.06-0.05,0.11-0.11,0.16-0.16c0.04-0.04,0.08-0.08,0.11-0.11
		c0.04-0.04,0.08-0.08,0.11-0.11c0.02-0.02,0.04-0.04,0.06-0.06c0.04-0.05,0.07-0.08,0.08-0.1c0.07-0.13,0.11-0.27,0.15-0.41
		c0.09-0.36,0.1-0.75,0.12-1.09c0.01-0.14,0.01-0.29,0.01-0.43c0-0.58-0.06-1.18-0.28-1.71c-0.06-0.13-0.12-0.26-0.2-0.38
		s-0.16-0.24-0.27-0.35c-0.1-0.11-0.21-0.21-0.34-0.31c-0.26-0.2-0.59-0.36-0.71-0.66c-0.04-0.1-0.05-0.21-0.05-0.32
		s0.01-0.22,0.02-0.33c0.03-0.36,0.02-0.74-0.05-1.1c-0.05-0.24-0.12-0.47-0.23-0.69c-0.15-0.29-0.36-0.54-0.64-0.74
		c-0.03-0.02-0.05-0.04-0.07-0.06c-0.12-0.07-0.25-0.14-0.29-0.26c-0.02-0.08-0.01-0.15,0.03-0.23c0.02-0.04,0.05-0.07,0.07-0.1
		c0.03-0.03,0.06-0.06,0.09-0.09c0.49-0.46,1.09-0.83,1.56-1.31c0.24-0.24,0.44-0.53,0.57-0.83c0.13-0.31,0.18-0.63,0.1-0.95
		c-0.02-0.1-0.06-0.2-0.09-0.31c-0.03-0.1-0.06-0.2-0.06-0.31c0-0.13,0.04-0.25,0.1-0.38c0.18-0.38,0.55-0.76,0.7-1.1
		c0.29-0.66,0.48-1.26,0.56-1.84c0.11-0.78,0.04-1.53-0.21-2.37c-0.06-0.21-0.13-0.43-0.22-0.65c0.28-0.57,0.44-1.19,0.5-1.83
		c0.09-0.95-0.07-1.92-0.43-2.8c-0.36-0.88-0.93-1.67-1.68-2.26c-0.41-0.32-0.88-0.59-1.15-1.03c-0.49-0.79-0.2-1.85-0.54-2.72
		c-0.27-0.69-0.85-1.11-1.52-1.46c-0.67-0.35-1.42-0.62-2.04-1.03c-0.36-0.23-0.67-0.52-0.97-0.83c-0.15-0.15-0.3-0.31-0.44-0.47
		c-0.29-0.32-0.57-0.65-0.87-0.96c-0.45-0.46-0.93-0.87-1.51-1.12c-0.24-0.1-0.49-0.18-0.75-0.22c-0.77-0.13-1.59,0.02-2.26,0.42
		c0.05-0.03-0.11-0.34-0.3-0.66c-0.14-0.24-0.3-0.48-0.39-0.6c-0.03-0.04-0.05-0.07-0.07-0.08c-0.18-0.18-0.36-0.29-0.55-0.37
		c-0.38-0.18-0.78-0.21-1.29-0.24c-1.22-0.07-1.98-0.02-3.15-0.47c-0.26-0.1-0.55-0.2-0.85-0.28c-0.75-0.21-1.6-0.35-2.43-0.34
		c-1.5,0.01-2.93,0.5-3.62,1.91c-0.08-0.6-0.41-1.1-0.86-1.53c-0.22-0.21-0.48-0.41-0.74-0.59c-0.26-0.18-0.54-0.35-0.8-0.51
		c-0.26-0.16-0.54-0.32-0.84-0.35c-0.27-0.03-0.53,0.04-0.79,0.14c-0.08,0.03-0.17,0.07-0.25,0.11c-0.92,0.42-1.78,0.96-2.55,1.61
		c-0.04,0.03-0.29-0.34-0.67-0.8c-0.31-0.37-0.7-0.79-1.15-1.1c-0.33-0.23-0.69-0.41-1.06-0.45c-0.12-0.01-0.25-0.01-0.37,0.01
		c-0.38,0.05-0.76,0.26-1.13,0.7c-0.39,0.45-0.86,0.96-1.42,1c-0.08,0.01-0.16,0-0.24-0.01c-0.13-0.02-0.25-0.07-0.37-0.13
		s-0.23-0.12-0.35-0.18c-0.04-0.02-0.08-0.03-0.11-0.04c-0.08-0.03-0.16-0.07-0.25-0.09c-0.12-0.04-0.25-0.06-0.37-0.08c0,0,0,0,0,0
		c-0.77-0.12-1.6,0.08-2.3,0.45c-0.93,0.49-1.69,1.25-2.45,1.98c-0.17,0.17-0.36,0.34-0.6,0.36c-0.22,0.02-0.42-0.1-0.62-0.19
		c-1.01-0.49-2.21-0.43-3.28-0.05h0c-0.18,0.06-0.35,0.13-0.52,0.21c0,0,0,0,0,0c-0.89,0.42-1.67,1.04-2.39,1.71
		c-0.24,0.22-0.48,0.46-0.71,0.69c-0.08,0.08-0.17,0.16-0.26,0.23c-0.09,0.07-0.19,0.12-0.3,0.14c-0.11,0.02-0.21,0.01-0.32-0.01
		c-0.11-0.02-0.23-0.06-0.34-0.09c-0.73-0.2-1.38-0.1-1.97,0.19c-0.12,0.06-0.23,0.12-0.35,0.19c-0.91,0.57-1.66,1.55-2.29,2.41
		c-0.16,0.22-0.31,0.43-0.46,0.62c-0.28,0.37-0.59,0.73-0.91,1.1c-0.32,0.36-0.63,0.73-0.91,1.11c-0.14,0.19-0.27,0.38-0.38,0.58
		c-0.14,0.24-0.25,0.49-0.34,0.74c-0.13,0.37-0.21,0.75-0.18,1.17c-0.14-0.06-0.28-0.09-0.42-0.1c-0.69-0.04-1.33,0.51-1.75,1.2
		c-0.08,0.14-0.16,0.28-0.22,0.43c-0.06,0.15-0.12,0.29-0.16,0.44c-0.13,0.44-0.22,0.91-0.34,1.37c-0.08,0.3-0.17,0.6-0.29,0.87
		c-0.18,0.41-0.42,0.78-0.79,1.05c-0.34,0.26-0.76,0.4-1.08,0.69c-0.49,0.45-0.61,1.05-0.6,1.71c0,0.33,0.04,0.68,0.07,1.03
		c0.01,0.12,0.02,0.23,0.03,0.35c0.06,0.7,0.07,1.41-0.21,2.01c-0.13,0.28-0.32,0.52-0.48,0.79c-0.11,0.18-0.2,0.37-0.27,0.56
		c-0.21,0.57-0.26,1.18-0.25,1.8c0.01,0.41,0.04,0.83,0.06,1.24s0.05,0.82,0.03,1.22c-0.01,0.31-0.01,0.65,0.02,1
		c0.1,1.04,0.46,2.13,1.44,2.53c-0.13,0.12-0.23,0.25-0.31,0.4c-0.15,0.29-0.21,0.62-0.17,0.94c0.02,0.16,0.06,0.33,0.13,0.48
		c0.06,0.15,0.14,0.3,0.23,0.44c0.18,0.28,0.39,0.53,0.61,0.79c0.11,0.13,0.22,0.25,0.33,0.38c0.56,0.66,1.03,1.39,1.41,2.17
		c0.04,0.09,0.08,0.19,0.1,0.28c0.01,0.05,0.01,0.1,0.01,0.14s-0.02,0.09-0.04,0.14c-0.05,0.09-0.12,0.15-0.21,0.19
		c-0.09,0.04-0.19,0.08-0.29,0.1c-0.09,0.03-0.17,0.07-0.25,0.1c-0.32,0.13-0.63,0.29-0.9,0.5c-0.34,0.27-0.61,0.61-0.79,0.99
		c-0.09,0.19-0.15,0.4-0.18,0.61c-0.09,0.63,0.08,1.3,0.53,1.76c-0.5,0.28-0.9,0.71-1.16,1.21c-0.26,0.5-0.37,1.07-0.31,1.62
		c0.05,0.42,0.2,0.81,0.43,1.17s0.54,0.66,0.89,0.9c0.24,0.16,0.5,0.28,0.78,0.36c-0.13,0.17-0.22,0.37-0.28,0.57
		c-0.15,0.53-0.05,1.1,0.24,1.57c0.05,0.07,0.07,0.16,0.13,0.23l0,0c0.23,0.27,0.53,0.48,0.85,0.67c0.21,0.13,0.42,0.25,0.62,0.39
		c0.1,0.07,0.2,0.14,0.29,0.21c0.18,0.15,0.34,0.32,0.46,0.53c0.12,0.21,0.19,0.45,0.22,0.69c0.02,0.12,0.03,0.24,0.04,0.37
		c0.04,0.62-0.02,1.27,0.28,1.81c0.3,0.55,0.91,0.87,1.56,1.01c0.22,0.05,0.44,0.08,0.65,0.09c0.87,0.05,1.74-0.09,2.6,0.05
		c-0.01,0.12-0.01,0.25,0,0.37c0.02,0.25,0.08,0.49,0.17,0.73c0.04,0.12,0.1,0.23,0.16,0.34c0.12,0.22,0.27,0.43,0.44,0.61
		c0.17,0.18,0.37,0.34,0.59,0.47c0.44,0.26,0.96,0.39,1.47,0.39c0.26,0,0.52-0.03,0.77-0.09s0.49-0.16,0.71-0.29
		c0.06,0.22,0.15,0.43,0.27,0.63c0.36,0.58,0.98,1.02,1.67,1.15c0.16,0.03,0.29,0.08,0.42,0.14c0.38,0.17,0.66,0.43,1.16,0.45
		c0.56,0.02,1.17-0.19,1.68,0.13c0.43,0.27,0.59,0.85,1.04,1.09c0.2,0.1,0.42,0.12,0.64,0.11c0.08,0,0.15-0.01,0.23-0.02
		c0.15-0.01,0.31-0.03,0.46-0.03s0.3,0.02,0.44,0.06c0.18,0.06,0.33,0.17,0.49,0.28c0.07,0.05,0.13,0.09,0.2,0.14
		c1.06,0.62,2.45-0.02,3.24-0.97c0.03,0.11,0.06,0.21,0.09,0.32c0.62,2.76,0.42,5.52-0.49,8.28H905V258h-81.65
		c-0.25-1.7-0.19-3.4,0.21-5.1c0.03-0.15,0.07-0.3,0.11-0.44c0.03-0.1,0.06-0.2,0.09-0.3c0.16,0.02,0.32,0.02,0.48,0.02
		c0.01,0,0.01,0,0.02,0c0.87-0.04,1.73-0.41,2.32-1.05c0.56,0.43,1.24,0.68,1.94,0.75c0.17,0.02,0.35,0.02,0.53,0.01
		c0.21-0.01,0.42-0.04,0.63-0.09c0.31-0.07,0.61-0.17,0.89-0.31c1.83,0.57,3.99-0.29,4.95-1.95c1.07,0.17,2.2-0.21,2.99-0.94
		c0.27-0.25,0.43-0.57,0.68-0.76c0.08-0.06,0.18-0.11,0.3-0.14c0.26-0.07,0.61-0.03,0.97,0.02c0.34,0.05,0.68,0.11,0.95,0.13
		c0.01,0,0.03,0,0.05,0.01c0.06,0,0.13,0,0.19,0s0.13-0.01,0.19-0.02c0.12-0.03,0.23-0.08,0.3-0.17c0.01-0.01,0.01-0.03,0.02-0.05
		c0.05-0.09,0.07-0.18,0.08-0.28c0.07-0.52,0.14-1.04,0.21-1.56c0.5-0.03,0.99-0.11,1.47-0.23c0.48-0.12,0.95-0.28,1.4-0.49
		c0.51-0.23,1.01-0.53,1.27-0.99c0.08-0.14,0.12-0.28,0.15-0.44c0.01-0.04,0.01-0.08,0.01-0.12c0.01-0.12,0.01-0.24-0.01-0.36
		c0-0.02,0-0.05,0-0.07c0,0-0.01,0-0.01,0c-0.04-0.17-0.09-0.34-0.19-0.49c0.7-0.2,1.34-0.65,1.61-1.29s0.08-1.46-0.53-1.83
		c1.23-0.8,2.06-2.14,2.19-3.54c0.07-0.83-0.24-1.84-1.1-2.03c0.75-0.51,1.44-1.17,1.74-2c0.31-0.86,0.11-1.75-0.53-2.42
		c-0.04-0.04,0.19-0.29,0.45-0.56c0.05-0.05,0.09-0.09,0.14-0.14c0.06-0.05,0.11-0.11,0.16-0.16c0.04-0.04,0.08-0.08,0.11-0.11
		c0.04-0.04,0.08-0.08,0.11-0.11c0.02-0.02,0.04-0.04,0.06-0.06c0.04-0.05,0.07-0.08,0.08-0.1c0.07-0.13,0.11-0.27,0.15-0.41
		c0.09-0.36,0.1-0.75,0.12-1.09c0.01-0.14,0.01-0.29,0.01-0.43c0-0.58-0.06-1.18-0.28-1.71c-0.06-0.13-0.12-0.26-0.2-0.38
		s-0.16-0.24-0.27-0.35c-0.1-0.11-0.21-0.21-0.34-0.31c-0.26-0.2-0.59-0.36-0.71-0.66c-0.04-0.1-0.05-0.21-0.05-0.32
		s0.01-0.22,0.02-0.33c0.03-0.36,0.02-0.74-0.05-1.1c-0.05-0.24-0.12-0.47-0.23-0.69c-0.15-0.29-0.36-0.54-0.64-0.74
		c-0.03-0.02-0.05-0.04-0.07-0.06c-0.12-0.07-0.25-0.14-0.29-0.26c-0.02-0.08-0.01-0.15,0.03-0.23c0.02-0.04,0.05-0.07,0.07-0.1
		c0.03-0.03,0.06-0.06,0.09-0.09c0.49-0.46,1.09-0.83,1.56-1.31c0.24-0.24,0.44-0.53,0.57-0.83c0.13-0.31,0.18-0.63,0.1-0.95
		c-0.02-0.1-0.06-0.2-0.09-0.31c-0.03-0.1-0.06-0.2-0.06-0.31c0-0.13,0.04-0.25,0.1-0.38c0.18-0.38,0.55-0.76,0.7-1.1
		c0.29-0.66,0.48-1.26,0.56-1.84c0.11-0.78,0.04-1.53-0.21-2.37c-0.06-0.21-0.13-0.43-0.22-0.65c0.28-0.57,0.44-1.19,0.5-1.83
		c0.09-0.95-0.07-1.92-0.43-2.8c-0.36-0.88-0.93-1.67-1.68-2.26c-0.41-0.32-0.88-0.59-1.15-1.03c-0.49-0.79-0.2-1.85-0.54-2.72
		c-0.27-0.69-0.85-1.11-1.52-1.46c-0.67-0.35-1.42-0.62-2.04-1.03c-0.36-0.23-0.67-0.52-0.97-0.83c-0.15-0.15-0.3-0.31-0.44-0.47
		c-0.29-0.32-0.57-0.65-0.87-0.96c-0.45-0.46-0.93-0.87-1.51-1.12c-0.24-0.1-0.49-0.18-0.75-0.22c-0.77-0.13-1.59,0.02-2.26,0.42
		c0.05-0.03-0.11-0.34-0.3-0.66c-0.14-0.24-0.3-0.48-0.39-0.6c-0.03-0.04-0.05-0.07-0.07-0.08c-0.18-0.18-0.36-0.29-0.55-0.37
		c-0.38-0.18-0.78-0.21-1.29-0.24c-1.22-0.07-1.98-0.02-3.15-0.47c-0.26-0.1-0.55-0.2-0.85-0.28c-0.75-0.21-1.6-0.35-2.43-0.34
		c-1.5,0.01-2.93,0.5-3.62,1.91c-0.08-0.6-0.41-1.1-0.86-1.53c-0.22-0.21-0.48-0.41-0.74-0.59c-0.26-0.18-0.54-0.35-0.8-0.51
		c-0.26-0.16-0.54-0.32-0.84-0.35c-0.27-0.03-0.53,0.04-0.79,0.14c-0.08,0.03-0.17,0.07-0.25,0.11c-0.92,0.42-1.78,0.96-2.55,1.61
		c-0.04,0.03-0.29-0.34-0.67-0.8c-0.31-0.37-0.7-0.79-1.15-1.1c-0.33-0.23-0.69-0.41-1.06-0.45c-0.12-0.01-0.25-0.01-0.37,0.01
		c-0.38,0.05-0.76,0.26-1.13,0.7c-0.39,0.45-0.86,0.96-1.42,1c-0.08,0.01-0.16,0-0.24-0.01c-0.13-0.02-0.25-0.07-0.37-0.13
		s-0.23-0.12-0.35-0.18c-0.04-0.02-0.08-0.03-0.11-0.04c-0.08-0.03-0.16-0.07-0.25-0.09c-0.12-0.04-0.25-0.06-0.37-0.08c0,0,0,0,0,0
		c-0.77-0.12-1.6,0.08-2.3,0.45c-0.93,0.49-1.69,1.25-2.45,1.98c-0.17,0.17-0.36,0.34-0.6,0.36c-0.22,0.02-0.42-0.1-0.62-0.19
		c-1.01-0.49-2.21-0.43-3.28-0.05h0c-0.18,0.06-0.35,0.13-0.52,0.21c0,0,0,0,0,0c-0.89,0.42-1.67,1.04-2.39,1.71
		c-0.24,0.22-0.48,0.46-0.71,0.69c-0.08,0.08-0.17,0.16-0.26,0.23c-0.09,0.07-0.19,0.12-0.3,0.14c-0.11,0.02-0.21,0.01-0.32-0.01
		c-0.11-0.02-0.23-0.06-0.34-0.09c-0.73-0.2-1.38-0.1-1.97,0.19c-0.12,0.06-0.23,0.12-0.35,0.19c-0.91,0.57-1.66,1.55-2.29,2.41
		c-0.16,0.22-0.31,0.43-0.46,0.62c-0.28,0.37-0.59,0.73-0.91,1.1c-0.32,0.36-0.63,0.73-0.91,1.11c-0.14,0.19-0.27,0.38-0.38,0.58
		c-0.14,0.24-0.25,0.49-0.34,0.74c-0.13,0.37-0.21,0.75-0.18,1.17c-0.14-0.06-0.28-0.09-0.42-0.1c-0.69-0.04-1.33,0.51-1.75,1.2
		c-0.08,0.14-0.16,0.28-0.22,0.43c-0.06,0.15-0.12,0.29-0.16,0.44c-0.13,0.44-0.22,0.91-0.34,1.37c-0.08,0.3-0.17,0.6-0.29,0.87
		c-0.18,0.41-0.42,0.78-0.79,1.05c-0.34,0.26-0.76,0.4-1.08,0.69c-0.49,0.45-0.61,1.05-0.6,1.71c0,0.33,0.04,0.68,0.07,1.03
		c0.01,0.12,0.02,0.23,0.03,0.35c0.06,0.7,0.07,1.41-0.21,2.01c-0.13,0.28-0.32,0.52-0.48,0.79c-0.11,0.18-0.2,0.37-0.27,0.56
		c-0.21,0.57-0.26,1.18-0.25,1.8c0.01,0.41,0.04,0.83,0.06,1.24s0.05,0.82,0.03,1.22c-0.01,0.31-0.01,0.65,0.02,1
		c0.1,1.04,0.46,2.13,1.44,2.53c-0.13,0.12-0.23,0.25-0.31,0.4c-0.15,0.29-0.21,0.62-0.17,0.94c0.02,0.16,0.06,0.33,0.13,0.48
		c0.06,0.15,0.14,0.3,0.23,0.44c0.18,0.28,0.39,0.53,0.61,0.79c0.11,0.13,0.22,0.25,0.33,0.38c0.56,0.66,1.03,1.39,1.41,2.17
		c0.04,0.09,0.08,0.19,0.1,0.28c0.01,0.05,0.01,0.1,0.01,0.14s-0.02,0.09-0.04,0.14c-0.05,0.09-0.12,0.15-0.21,0.19
		c-0.09,0.04-0.19,0.08-0.29,0.1c-0.09,0.03-0.17,0.07-0.25,0.1c-0.32,0.13-0.63,0.29-0.9,0.5c-0.34,0.27-0.61,0.61-0.79,0.99
		c-0.09,0.19-0.15,0.4-0.18,0.61c-0.09,0.63,0.08,1.3,0.53,1.76c-0.5,0.28-0.9,0.71-1.16,1.21c-0.26,0.5-0.37,1.07-0.31,1.62
		c0.05,0.42,0.2,0.81,0.43,1.17s0.54,0.66,0.89,0.9c0.24,0.16,0.5,0.28,0.78,0.36c-0.13,0.17-0.22,0.37-0.28,0.57
		c-0.15,0.53-0.05,1.1,0.24,1.57c0.05,0.07,0.07,0.16,0.13,0.23l0,0c0.23,0.27,0.53,0.48,0.85,0.67c0.21,0.13,0.42,0.25,0.62,0.39
		c0.1,0.07,0.2,0.14,0.29,0.21c0.18,0.15,0.34,0.32,0.46,0.53c0.12,0.21,0.19,0.45,0.22,0.69c0.02,0.12,0.03,0.24,0.04,0.37
		c0.04,0.62-0.02,1.27,0.28,1.81c0.3,0.55,0.91,0.87,1.56,1.01c0.22,0.05,0.44,0.08,0.65,0.09c0.87,0.05,1.74-0.09,2.6,0.05
		c-0.01,0.12-0.01,0.25,0,0.37c0.02,0.25,0.08,0.49,0.17,0.73c0.04,0.12,0.1,0.23,0.16,0.34c0.12,0.22,0.27,0.43,0.44,0.61
		c0.17,0.18,0.37,0.34,0.59,0.47c0.44,0.26,0.96,0.39,1.47,0.39c0.26,0,0.52-0.03,0.77-0.09s0.49-0.16,0.71-0.29
		c0.06,0.22,0.15,0.43,0.27,0.63c0.36,0.58,0.98,1.02,1.67,1.15c0.16,0.03,0.29,0.08,0.42,0.14c0.38,0.17,0.66,0.43,1.16,0.45
		c0.56,0.02,1.17-0.19,1.68,0.13c0.43,0.27,0.59,0.85,1.04,1.09c0.2,0.1,0.42,0.12,0.64,0.11c0.08,0,0.15-0.01,0.23-0.02
		c0.15-0.01,0.31-0.03,0.46-0.03s0.3,0.02,0.44,0.06c0.18,0.06,0.33,0.17,0.49,0.28c0.07,0.05,0.13,0.09,0.2,0.14
		c1.06,0.62,2.45-0.02,3.24-0.97c0.03,0.11,0.06,0.21,0.09,0.32c0.39,1.76,0.45,3.52,0.21,5.28H703.03
		c-1.61-3.03-2.16-6.06-1.46-9.09c0.05-0.22,0.13-0.45,0.2-0.67c0.27,0.03,0.53,0.01,0.8-0.03c0.16-0.03,0.32-0.07,0.48-0.12
		c0.42-0.15,0.8-0.4,1.1-0.73c0.47,0.37,1.06,0.58,1.65,0.64c0.6,0.05,1.21-0.05,1.74-0.33c0.16,0.05,0.33,0.08,0.49,0.1
		c0.04,0.01,0.08,0.02,0.12,0.02c1.4,0.16,2.89-0.55,3.6-1.79c0.45,0.07,0.92,0.03,1.36-0.11c0.44-0.14,0.85-0.38,1.18-0.69
		c0.27-0.25,0.41-0.56,0.7-0.7c0.04-0.02,0.08-0.05,0.13-0.06c0.11-0.03,0.24-0.04,0.38-0.03c0.42,0.02,0.94,0.15,1.3,0.16
		c0.21,0.01,0.46,0,0.58-0.17c0.03-0.04,0.05-0.09,0.06-0.13c0.01-0.05,0.02-0.1,0.03-0.15c0.01-0.05,0.01-0.1,0.02-0.16
		c0.05-0.39,0.1-0.78,0.16-1.17c0.85-0.06,1.68-0.27,2.45-0.61c0.32-0.15,0.65-0.33,0.88-0.57c0.08-0.08,0.15-0.17,0.2-0.27
		c0.06-0.12,0.1-0.24,0.12-0.37c0.01-0.03,0.01-0.07,0.01-0.1c0.01-0.1,0.01-0.2-0.01-0.3c0-0.02,0-0.04,0-0.06c0,0-0.01,0-0.01,0
		c-0.03-0.15-0.08-0.29-0.16-0.42c0.59-0.17,1.14-0.56,1.37-1.1c0.23-0.54,0.07-1.24-0.45-1.56c1.05-0.68,1.75-1.82,1.86-3.02
		c0.06-0.7-0.2-1.56-0.93-1.73c0.64-0.44,1.22-1,1.48-1.7c0.27-0.73,0.09-1.49-0.45-2.06c-0.03-0.04,0.16-0.24,0.38-0.47
		c0.04-0.04,0.09-0.09,0.13-0.13c0.04-0.04,0.08-0.08,0.12-0.12c0.04-0.04,0.07-0.07,0.11-0.11c0.04-0.04,0.07-0.07,0.09-0.1
		c0.02-0.02,0.03-0.04,0.05-0.05c0.04-0.04,0.06-0.07,0.07-0.09c0.19-0.37,0.2-0.87,0.23-1.28c0.01-0.24,0.02-0.49,0-0.74
		c-0.04-0.74-0.26-1.46-0.89-1.95c-0.01-0.01-0.02-0.02-0.03-0.02c-0.02-0.01-0.03-0.02-0.05-0.04c-0.07-0.05-0.13-0.09-0.2-0.14
		c-0.15-0.11-0.29-0.22-0.36-0.38c-0.03-0.07-0.04-0.15-0.04-0.23c0-0.01-0.01-0.03-0.01-0.04c0-0.09,0.01-0.19,0.02-0.28
		c0.06-0.61-0.04-1.29-0.4-1.78c-0.12-0.16-0.27-0.3-0.45-0.41c-0.05-0.03-0.1-0.06-0.15-0.09s-0.08-0.08-0.1-0.13
		c-0.04-0.13,0.06-0.26,0.17-0.36c0.21-0.2,0.44-0.37,0.67-0.55s0.46-0.36,0.66-0.57c0.1-0.1,0.19-0.22,0.28-0.33
		c0.16-0.24,0.28-0.5,0.32-0.78c0.02-0.14,0.01-0.27-0.02-0.41c-0.02-0.09-0.05-0.17-0.08-0.26s-0.05-0.17-0.05-0.26
		c0-0.32,0.28-0.65,0.5-0.96c0.07-0.1,0.14-0.2,0.18-0.3c0.67-1.5,0.68-2.61,0.11-4.14c0.12-0.24,0.21-0.5,0.28-0.76
		c0.21-0.78,0.21-1.62,0.03-2.41c-0.25-1.06-0.83-2.03-1.68-2.69c-0.26-0.2-0.55-0.39-0.78-0.62c-0.08-0.08-0.14-0.16-0.2-0.26
		c-0.16-0.25-0.22-0.54-0.25-0.83c-0.05-0.49-0.03-1.02-0.21-1.48c-0.11-0.28-0.28-0.51-0.49-0.7c-0.01-0.01-0.02-0.02-0.03-0.03
		c-0.22-0.2-0.49-0.36-0.77-0.51c-0.57-0.3-1.21-0.53-1.74-0.88c-1-0.65-1.65-1.78-2.58-2.48c-0.2-0.15-0.42-0.29-0.65-0.4
		c-0.2-0.09-0.42-0.15-0.64-0.19c-0.66-0.11-1.35,0.01-1.92,0.36c0.09-0.05-0.55-1.06-0.64-1.15c-0.49-0.47-0.93-0.49-1.56-0.52
		c-1.04-0.06-1.69-0.02-2.68-0.4c-0.78-0.3-1.81-0.54-2.8-0.53c-0.42,0-0.84,0.05-1.23,0.16c-0.78,0.22-1.46,0.67-1.85,1.46
		c-0.06-0.51-0.35-0.94-0.73-1.3c-0.19-0.18-0.41-0.35-0.63-0.51c-0.22-0.16-0.46-0.3-0.68-0.44c-0.22-0.13-0.46-0.27-0.72-0.3
		c-0.15-0.02-0.3,0-0.45,0.04c-0.15,0.04-0.29,0.1-0.43,0.16c-0.2,0.09-0.38,0.2-0.57,0.31c-0.57,0.31-1.11,0.65-1.6,1.06
		c-0.01,0.01-0.05-0.03-0.12-0.12c-0.03-0.04-0.07-0.09-0.12-0.15c-0.18-0.23-0.45-0.58-0.78-0.9c-0.74-0.73-1.77-1.34-2.71-0.23
		c-0.38,0.44-0.85,0.94-1.42,0.84c-0.18-0.03-0.35-0.13-0.51-0.21c-0.03-0.02-0.07-0.04-0.1-0.05c0,0-0.01,0-0.01,0
		c-0.2-0.09-0.4-0.15-0.61-0.18c0,0,0,0,0,0c-0.66-0.1-1.36,0.07-1.96,0.38c-0.79,0.42-1.44,1.06-2.08,1.69
		c-0.15,0.14-0.31,0.29-0.51,0.31c-0.19,0.02-0.36-0.08-0.53-0.17c-1.01-0.49-2.23-0.34-3.24,0.14c-0.25,0.12-0.49,0.26-0.73,0.41
		c-0.7,0.46-1.32,1.04-1.91,1.64c-0.14,0.14-0.29,0.28-0.48,0.32c-0.19,0.04-0.37-0.04-0.56-0.09c-1.98-0.56-3.32,1.58-4.32,2.91
		c-0.12,0.16-0.24,0.31-0.38,0.47c-0.52,0.62-1.11,1.23-1.5,1.9c-0.1,0.17-0.18,0.34-0.25,0.51c-0.14,0.35-0.21,0.72-0.19,1.11
		c-0.12-0.05-0.24-0.08-0.36-0.08c-0.32-0.02-0.63,0.12-0.9,0.34c-0.03,0.02-0.06,0.04-0.08,0.06c-0.39,0.34-0.69,0.86-0.83,1.36
		c-0.14,0.5-0.24,1.05-0.4,1.54s-0.39,0.95-0.81,1.26c-0.29,0.22-0.65,0.34-0.92,0.59c-0.14,0.13-0.24,0.27-0.32,0.42
		c-0.15,0.31-0.2,0.66-0.19,1.04c0,0.38,0.05,0.78,0.09,1.18s0.05,0.8-0.02,1.17c-0.03,0.19-0.08,0.37-0.16,0.54
		c-0.11,0.24-0.27,0.45-0.41,0.67c-0.47,0.78-0.47,1.65-0.42,2.53c0.02,0.35,0.05,0.7,0.06,1.05c0,0.17,0.01,0.34,0,0.51
		c-0.01,0.13-0.01,0.27-0.01,0.41c0.02,1,0.28,2.19,1.25,2.59c-0.11,0.1-0.2,0.22-0.26,0.34c-0.13,0.25-0.17,0.53-0.14,0.8
		c0.02,0.14,0.05,0.28,0.11,0.41c0.21,0.52,0.63,0.93,1,1.37c0.48,0.56,0.88,1.19,1.2,1.85c0.04,0.08,0.07,0.16,0.09,0.24
		s0.01,0.16-0.03,0.24c-0.04,0.07-0.11,0.13-0.18,0.16c-0.08,0.04-0.17,0.06-0.25,0.09c-0.71,0.22-1.35,0.7-1.65,1.36
		c-0.3,0.66-0.21,1.49,0.3,2.02c-0.21,0.12-0.4,0.27-0.57,0.45c-0.25,0.26-0.44,0.58-0.56,0.91c-0.12,0.34-0.16,0.7-0.12,1.05
		c0.01,0.12,0.04,0.23,0.07,0.35c0.07,0.23,0.17,0.45,0.3,0.65c0.33,0.5,0.83,0.9,1.42,1.07c-0.32,0.44-0.39,1.04-0.2,1.55
		c0.06,0.17,0.16,0.33,0.27,0.47v0c0.13,0.15,0.29,0.28,0.46,0.4c0.51,0.35,1.12,0.61,1.42,1.13c0.31,0.55,0.19,1.23,0.28,1.85
		c0.03,0.21,0.08,0.41,0.18,0.59c0.09,0.16,0.2,0.29,0.34,0.41c0.41,0.34,0.99,0.5,1.55,0.53c0.55,0.03,1.11-0.03,1.66-0.01
		c0.18,0.01,0.37,0.02,0.55,0.05c-0.03,0.42,0.07,0.85,0.28,1.23c0.2,0.38,0.51,0.7,0.88,0.92c0.75,0.44,1.76,0.45,2.51,0.01
		c0.19,0.75,0.87,1.37,1.65,1.51c0.53,0.1,0.77,0.47,1.34,0.5c0.48,0.02,1-0.16,1.43,0.11c0.09,0.06,0.17,0.13,0.24,0.21
		c0.21,0.25,0.36,0.56,0.65,0.71c0.34,0.18,0.75,0.06,1.13,0.06c0.13,0,0.25,0.01,0.37,0.05c0.15,0.05,0.28,0.15,0.42,0.24
		c0.06,0.04,0.11,0.08,0.17,0.12c0.23,0.13,0.48,0.2,0.73,0.21c0.74,0.03,1.53-0.43,2.03-1.04c0.3,1.23,0.43,2.47,0.36,3.7
		c-0.04,0.76-0.15,1.53-0.32,2.29s-0.41,1.53-0.72,2.29c-0.17,0.42-0.38,0.85-0.58,1.27H620v312h-87.97
		c-1.61-3.03-2.16-6.06-1.46-9.09c0.05-0.22,0.13-0.45,0.2-0.67c0.27,0.03,0.53,0.01,0.8-0.03c0.16-0.03,0.32-0.07,0.48-0.12
		c0.42-0.15,0.8-0.4,1.1-0.73c0.47,0.37,1.06,0.58,1.65,0.64c0.6,0.05,1.21-0.05,1.74-0.33c0.16,0.05,0.33,0.08,0.49,0.1
		c0.04,0.01,0.08,0.02,0.12,0.02c1.4,0.16,2.89-0.55,3.6-1.79c0.45,0.07,0.92,0.03,1.36-0.11c0.44-0.14,0.85-0.38,1.18-0.69
		c0.27-0.25,0.41-0.56,0.7-0.7c0.04-0.02,0.08-0.05,0.13-0.06c0.11-0.03,0.24-0.04,0.38-0.03c0.42,0.02,0.94,0.15,1.3,0.16
		c0.21,0.01,0.46,0,0.58-0.17c0.03-0.04,0.05-0.09,0.06-0.13c0.01-0.05,0.02-0.1,0.03-0.15c0.01-0.05,0.01-0.1,0.02-0.16
		c0.05-0.39,0.1-0.78,0.16-1.17c0.85-0.06,1.68-0.27,2.45-0.61c0.32-0.15,0.65-0.33,0.88-0.57c0.08-0.08,0.15-0.17,0.2-0.27
		c0.06-0.12,0.1-0.24,0.12-0.37c0.01-0.03,0.01-0.07,0.01-0.1c0.01-0.1,0.01-0.2-0.01-0.3c0-0.02,0-0.04,0-0.06c0,0-0.01,0-0.01,0
		c-0.03-0.15-0.08-0.29-0.16-0.42c0.59-0.17,1.14-0.56,1.37-1.1c0.23-0.54,0.07-1.24-0.45-1.56c1.05-0.68,1.75-1.82,1.86-3.02
		c0.06-0.7-0.2-1.56-0.93-1.73c0.64-0.44,1.22-1,1.48-1.7c0.27-0.73,0.09-1.49-0.45-2.06c-0.03-0.04,0.16-0.24,0.38-0.47
		c0.04-0.04,0.09-0.09,0.13-0.13c0.04-0.04,0.08-0.08,0.12-0.12c0.04-0.04,0.07-0.07,0.11-0.11c0.04-0.04,0.07-0.07,0.09-0.1
		c0.02-0.02,0.03-0.04,0.05-0.05c0.04-0.04,0.06-0.07,0.07-0.09c0.19-0.37,0.2-0.87,0.23-1.28c0.01-0.24,0.02-0.49,0-0.74
		c-0.04-0.74-0.26-1.46-0.89-1.95c-0.01-0.01-0.02-0.02-0.03-0.02c-0.02-0.01-0.03-0.02-0.05-0.04c-0.07-0.05-0.13-0.09-0.2-0.14
		c-0.15-0.11-0.29-0.22-0.36-0.38c-0.03-0.07-0.04-0.15-0.04-0.23c0-0.01-0.01-0.03-0.01-0.04c0-0.09,0.01-0.19,0.02-0.28
		c0.06-0.61-0.04-1.29-0.4-1.78c-0.12-0.16-0.27-0.3-0.45-0.41c-0.05-0.03-0.1-0.06-0.15-0.09s-0.08-0.08-0.1-0.13
		c-0.04-0.13,0.06-0.26,0.17-0.36c0.21-0.2,0.44-0.37,0.67-0.55s0.46-0.36,0.66-0.57c0.1-0.1,0.19-0.22,0.28-0.33
		c0.16-0.24,0.28-0.5,0.32-0.78c0.02-0.14,0.01-0.27-0.02-0.41c-0.02-0.09-0.05-0.17-0.08-0.26s-0.05-0.17-0.05-0.26
		c0-0.32,0.28-0.65,0.5-0.96c0.07-0.1,0.14-0.2,0.18-0.3c0.67-1.5,0.68-2.61,0.11-4.14c0.12-0.24,0.21-0.5,0.28-0.76
		c0.21-0.78,0.21-1.62,0.03-2.41c-0.25-1.06-0.83-2.03-1.68-2.69c-0.26-0.2-0.55-0.39-0.78-0.62c-0.08-0.08-0.14-0.16-0.2-0.26
		c-0.16-0.25-0.22-0.54-0.25-0.83c-0.05-0.49-0.03-1.02-0.21-1.48c-0.11-0.28-0.28-0.51-0.49-0.7c-0.01-0.01-0.02-0.02-0.03-0.03
		c-0.22-0.2-0.49-0.36-0.77-0.51c-0.57-0.3-1.21-0.53-1.74-0.88c-1-0.65-1.65-1.78-2.58-2.48c-0.2-0.15-0.42-0.29-0.65-0.4
		c-0.2-0.09-0.42-0.15-0.64-0.19c-0.66-0.11-1.35,0.01-1.92,0.36c0.09-0.05-0.55-1.06-0.64-1.15c-0.49-0.47-0.93-0.49-1.56-0.52
		c-1.04-0.06-1.69-0.02-2.68-0.4c-0.78-0.3-1.81-0.54-2.8-0.53c-0.42,0-0.84,0.05-1.23,0.16c-0.78,0.22-1.46,0.67-1.85,1.46
		c-0.06-0.51-0.35-0.94-0.73-1.3c-0.19-0.18-0.41-0.35-0.63-0.51c-0.22-0.16-0.46-0.3-0.68-0.44c-0.22-0.13-0.46-0.27-0.72-0.3
		c-0.15-0.02-0.3,0-0.45,0.04c-0.15,0.04-0.29,0.1-0.43,0.16c-0.2,0.09-0.38,0.2-0.57,0.31c-0.57,0.31-1.11,0.65-1.6,1.06
		c-0.01,0.01-0.05-0.03-0.12-0.12c-0.03-0.04-0.07-0.09-0.12-0.15c-0.18-0.23-0.45-0.58-0.78-0.9c-0.74-0.73-1.77-1.34-2.71-0.23
		c-0.38,0.44-0.85,0.94-1.42,0.84c-0.18-0.03-0.35-0.13-0.51-0.21c-0.03-0.02-0.07-0.04-0.1-0.05c0,0-0.01,0-0.01,0
		c-0.2-0.09-0.4-0.15-0.61-0.18c0,0,0,0,0,0c-0.66-0.1-1.36,0.07-1.96,0.38c-0.79,0.42-1.44,1.06-2.08,1.69
		c-0.15,0.14-0.31,0.29-0.51,0.31c-0.19,0.02-0.36-0.08-0.53-0.17c-1.01-0.49-2.23-0.34-3.24,0.14c-0.25,0.12-0.49,0.26-0.73,0.41
		c-0.7,0.46-1.32,1.04-1.91,1.64c-0.14,0.14-0.29,0.28-0.48,0.32c-0.19,0.04-0.37-0.04-0.56-0.09c-1.98-0.56-3.32,1.58-4.32,2.91
		c-0.12,0.16-0.24,0.31-0.38,0.47c-0.52,0.62-1.11,1.23-1.5,1.9c-0.1,0.17-0.18,0.34-0.25,0.51c-0.14,0.35-0.21,0.72-0.19,1.11
		c-0.12-0.05-0.24-0.08-0.36-0.08c-0.32-0.02-0.63,0.12-0.9,0.34c-0.03,0.02-0.06,0.04-0.08,0.06c-0.39,0.34-0.69,0.86-0.83,1.36
		c-0.14,0.5-0.24,1.05-0.4,1.54s-0.39,0.95-0.81,1.26c-0.29,0.22-0.65,0.34-0.92,0.59c-0.14,0.13-0.24,0.27-0.32,0.42
		c-0.15,0.31-0.2,0.66-0.19,1.04c0,0.38,0.05,0.78,0.09,1.18s0.05,0.8-0.02,1.17c-0.03,0.19-0.08,0.37-0.16,0.54
		c-0.11,0.24-0.27,0.45-0.41,0.67c-0.47,0.78-0.47,1.65-0.42,2.53c0.02,0.35,0.05,0.7,0.06,1.05c0,0.17,0.01,0.34,0,0.51
		c-0.01,0.13-0.01,0.27-0.01,0.41c0.02,1,0.28,2.19,1.25,2.59c-0.11,0.1-0.2,0.22-0.26,0.34c-0.13,0.25-0.17,0.53-0.14,0.8
		c0.02,0.14,0.05,0.28,0.11,0.41c0.21,0.52,0.63,0.93,1,1.37c0.48,0.56,0.88,1.19,1.2,1.85c0.04,0.08,0.07,0.16,0.09,0.24
		s0.01,0.16-0.03,0.24c-0.04,0.07-0.11,0.13-0.18,0.16c-0.08,0.04-0.17,0.06-0.25,0.09c-0.71,0.22-1.35,0.7-1.65,1.36
		c-0.3,0.66-0.21,1.49,0.3,2.02c-0.21,0.12-0.4,0.27-0.57,0.45c-0.25,0.26-0.44,0.58-0.56,0.91c-0.12,0.34-0.16,0.7-0.12,1.05
		c0.01,0.12,0.04,0.23,0.07,0.35c0.07,0.23,0.17,0.45,0.3,0.65c0.33,0.5,0.83,0.9,1.42,1.07c-0.32,0.44-0.39,1.04-0.2,1.55
		c0.06,0.17,0.16,0.33,0.27,0.47v0c0.13,0.15,0.29,0.28,0.46,0.4c0.51,0.35,1.12,0.61,1.42,1.13c0.31,0.55,0.19,1.23,0.28,1.85
		c0.03,0.21,0.08,0.41,0.18,0.59c0.09,0.16,0.2,0.29,0.34,0.41c0.41,0.34,0.99,0.5,1.55,0.53c0.55,0.03,1.11-0.03,1.66-0.01
		c0.18,0.01,0.37,0.02,0.55,0.05c-0.03,0.42,0.07,0.85,0.28,1.23c0.2,0.38,0.51,0.7,0.88,0.92c0.75,0.44,1.76,0.45,2.51,0.01
		c0.19,0.75,0.87,1.37,1.65,1.51c0.53,0.1,0.77,0.47,1.34,0.5c0.48,0.02,1-0.16,1.43,0.11c0.09,0.06,0.17,0.13,0.24,0.21
		c0.21,0.25,0.36,0.56,0.65,0.71c0.34,0.18,0.75,0.06,1.13,0.06c0.13,0,0.25,0.01,0.37,0.05c0.15,0.05,0.28,0.15,0.42,0.24
		c0.06,0.04,0.11,0.08,0.17,0.12c0.23,0.13,0.48,0.2,0.73,0.21c0.74,0.03,1.53-0.43,2.03-1.04c0.3,1.23,0.43,2.47,0.36,3.7
		c-0.04,0.76-0.15,1.53-0.32,2.29s-0.41,1.53-0.72,2.29c-0.17,0.42-0.38,0.85-0.58,1.27H376v200H122V561H0v519h1920V561H1877z"/>
	<path class="st6" d="M1892,674v125h-73V683h-72.64c-4.04-6.15-5.59-12.3-4.15-18.45c0.05-0.21,0.11-0.43,0.17-0.64
		c0.04-0.15,0.09-0.29,0.13-0.44c0.99,0.1,2.02-0.1,2.9-0.58c0.22-0.12,0.43-0.26,0.63-0.42c0.2-0.16,0.39-0.33,0.56-0.52
		c0.27,0.21,0.56,0.37,0.86,0.52c0.38,0.19,0.79,0.35,1.21,0.44c0.5,0.11,1.01,0.16,1.52,0.14c0.32-0.02,0.64-0.07,0.95-0.14
		c0.43-0.1,0.85-0.24,1.25-0.45c1,0.31,2.06,0.33,3.08,0.1c0.68-0.15,1.33-0.41,1.93-0.76c0.6-0.35,1.14-0.8,1.59-1.33
		c0.22-0.26,0.43-0.55,0.6-0.85c1.36,0.22,2.79-0.18,3.9-1c0.16-0.12,0.31-0.24,0.45-0.38c0.53-0.49,0.75-1.14,1.42-1.31
		c0.19-0.05,0.41-0.06,0.65-0.05s0.5,0.04,0.76,0.08c0.26,0.04,0.52,0.08,0.77,0.12s0.48,0.07,0.68,0.07c0.27,0.01,0.57,0,0.8-0.12
		c0.07-0.04,0.14-0.09,0.19-0.16c0.05-0.07,0.08-0.15,0.11-0.23c0.02-0.08,0.03-0.17,0.05-0.25l0.04-0.27
		c0.67-0.75,1.34-1.5,2.01-2.24c0.85-0.18,1.67-0.45,2.45-0.8c0.18-0.08,0.37-0.17,0.55-0.27c0.53-0.29,1.02-0.67,1.3-1.18
		c0.11-0.2,0.17-0.41,0.21-0.64c0.01-0.06,0.01-0.11,0.02-0.17c0.02-0.17,0.01-0.35-0.02-0.52c-0.01-0.03,0-0.07,0-0.1
		c0,0-0.01,0-0.01,0c-0.05-0.25-0.14-0.49-0.28-0.71c1.02-0.29,1.95-0.95,2.35-1.88s0.12-2.12-0.77-2.67c1.8-1.17,3-3.12,3.18-5.16
		c0.11-1.2-0.35-2.67-1.6-2.96c1.1-0.75,2.09-1.71,2.53-2.91c0.45-1.25,0.16-2.55-0.77-3.52c-0.06-0.06,0.27-0.42,0.65-0.8
		c0.07-0.07,0.15-0.15,0.22-0.22c0.07-0.07,0.14-0.14,0.22-0.21c0.06-0.06,0.12-0.12,0.17-0.17c0.06-0.06,0.11-0.11,0.16-0.17
		c0.03-0.03,0.06-0.06,0.08-0.09c0.06-0.07,0.11-0.12,0.12-0.15c0.17-0.32,0.25-0.69,0.3-1.07c0.05-0.38,0.06-0.77,0.08-1.12
		c0.01-0.21,0.02-0.42,0.02-0.63c0.01-1.48-0.28-3.04-1.58-4.01c-0.1-0.07-0.2-0.14-0.3-0.21c-0.3-0.21-0.6-0.43-0.74-0.75
		c-0.06-0.15-0.08-0.3-0.08-0.46c0-0.16,0.02-0.32,0.03-0.47c0.02-0.17,0.03-0.35,0.03-0.53c0-0.72-0.12-1.45-0.43-2.07
		c-0.23-0.47-0.57-0.87-1.05-1.15c-0.12-0.07-0.24-0.16-0.33-0.26c-0.04-0.04-0.08-0.07-0.1-0.12c-0.04-0.11-0.01-0.22,0.05-0.33
		c0.06-0.1,0.15-0.2,0.24-0.29c0.72-0.67,1.58-1.21,2.27-1.91c0.26-0.26,0.49-0.56,0.67-0.89c0.24-0.43,0.38-0.89,0.36-1.36
		c-0.01-0.12-0.02-0.23-0.05-0.35c-0.04-0.15-0.09-0.3-0.13-0.45c-0.05-0.15-0.08-0.3-0.08-0.45c0-0.25,0.1-0.49,0.24-0.74
		c0.07-0.12,0.15-0.25,0.23-0.37c0.19-0.27,0.4-0.54,0.55-0.8c0.05-0.09,0.1-0.17,0.13-0.25c0.29-0.64,0.5-1.24,0.65-1.82
		c0.07-0.29,0.13-0.57,0.17-0.86c0.2-1.41-0.02-2.76-0.62-4.4c0.8-1.67,0.95-3.61,0.52-5.41c-0.42-1.8-1.41-3.47-2.88-4.61
		c-0.15-0.12-0.3-0.23-0.46-0.34c-0.15-0.11-0.31-0.23-0.46-0.35c-0.29-0.24-0.56-0.5-0.76-0.82c-0.09-0.14-0.16-0.29-0.22-0.45
		c-0.17-0.46-0.22-0.97-0.26-1.49c-0.05-0.69-0.06-1.39-0.31-2.02c-0.3-0.76-0.85-1.29-1.51-1.72c-0.89-0.58-1.98-0.98-2.96-1.49
		c-0.25-0.13-0.48-0.27-0.71-0.41c-1.04-0.68-1.85-1.66-2.69-2.6c-0.21-0.23-0.42-0.46-0.64-0.69c-0.65-0.67-1.35-1.26-2.2-1.63
		c-0.35-0.15-0.71-0.26-1.09-0.32c-1.12-0.19-2.31,0.02-3.29,0.61c0.02-0.01,0.02-0.05,0-0.1c-0.03-0.11-0.12-0.3-0.24-0.52
		c-0.06-0.11-0.13-0.22-0.19-0.34c-0.27-0.46-0.58-0.93-0.66-1c-0.42-0.4-0.81-0.61-1.24-0.72s-0.89-0.14-1.43-0.17
		c-1.78-0.1-2.89-0.03-4.58-0.68c-0.19-0.07-0.39-0.14-0.6-0.21c-0.21-0.07-0.42-0.13-0.64-0.19c-1.31-0.36-2.81-0.58-4.23-0.46
		c-1.92,0.16-3.68,0.92-4.58,2.75c-0.1-0.77-0.49-1.42-1.03-1.99c-0.68-0.73-1.59-1.33-2.47-1.85c-0.1-0.06-0.19-0.11-0.29-0.17
		s-0.2-0.11-0.3-0.15c-0.2-0.09-0.41-0.16-0.64-0.19c-0.26-0.03-0.52,0-0.77,0.07c-0.13,0.03-0.25,0.08-0.38,0.12
		c-0.12,0.05-0.24,0.1-0.36,0.15c-0.67,0.3-1.32,0.65-1.94,1.05c-0.61,0.38-1.19,0.81-1.74,1.27c-0.02,0.01-0.04,0.03-0.06,0.02
		c-0.38-0.25-3.58-5.63-6.35-2.39c-0.08,0.09-0.16,0.19-0.25,0.28c-0.17,0.19-0.35,0.38-0.54,0.55c-0.38,0.34-0.81,0.59-1.27,0.63
		c-0.12,0.01-0.23,0-0.36-0.02c-0.38-0.07-0.71-0.29-1.05-0.45c-0.17-0.08-0.35-0.15-0.52-0.2c-0.18-0.05-0.36-0.09-0.54-0.12l0,0
		c-1.12-0.17-2.33,0.12-3.35,0.66c-1.36,0.72-2.46,1.82-3.56,2.89c-0.25,0.24-0.53,0.49-0.87,0.52c-0.32,0.03-0.61-0.14-0.9-0.28
		c-1.48-0.71-3.22-0.63-4.77-0.08c-0.26,0.09-0.52,0.19-0.76,0.31l-0.32,0.15c-1.28,0.6-2.39,1.49-3.36,2.51
		c-0.27,0.29-0.57,0.55-0.85,0.83c-0.12,0.12-0.24,0.24-0.38,0.34c-0.13,0.1-0.28,0.18-0.44,0.21c-0.16,0.03-0.32,0.01-0.48-0.02
		c-0.16-0.04-0.32-0.09-0.47-0.13c-2.12-0.6-3.8,0.61-5.19,2.15c-0.14,0.15-0.27,0.31-0.41,0.47c-0.66,0.8-1.25,1.64-1.79,2.35
		c-0.2,0.27-0.42,0.54-0.64,0.8c-0.22,0.27-0.45,0.53-0.68,0.8c-0.46,0.53-0.92,1.06-1.32,1.61c-0.2,0.27-0.39,0.55-0.56,0.84
		c-0.5,0.86-0.82,1.77-0.76,2.78c-0.41-0.17-0.81-0.18-1.2-0.07c-1.16,0.31-2.14,1.67-2.51,2.95c-0.06,0.21-0.12,0.43-0.17,0.65
		c-0.05,0.22-0.11,0.44-0.16,0.67c-0.11,0.45-0.22,0.89-0.35,1.32c-0.07,0.21-0.15,0.42-0.23,0.62c-0.26,0.6-0.61,1.13-1.15,1.53
		c-0.5,0.37-1.11,0.59-1.57,1c-1.31,1.19-0.79,3.15-0.69,5.02c0.03,0.68,0.01,1.35-0.17,1.96c-0.05,0.15-0.1,0.3-0.17,0.45
		c-0.1,0.2-0.21,0.39-0.33,0.58c-0.12,0.19-0.25,0.37-0.37,0.56c-0.16,0.27-0.29,0.54-0.39,0.82c-0.61,1.67-0.28,3.53-0.23,5.31
		c0.01,0.3,0.01,0.59,0,0.88c0,0,0,0.01,0,0.01c-0.05,1.2,0.08,2.74,0.74,3.86c0.32,0.55,0.76,1.01,1.39,1.26
		c-0.19,0.17-0.34,0.37-0.45,0.58c-0.22,0.42-0.3,0.9-0.24,1.37c0.03,0.24,0.09,0.47,0.18,0.7c0.09,0.22,0.2,0.43,0.33,0.64
		c0.15,0.23,0.31,0.45,0.49,0.66c0.28,0.35,0.59,0.69,0.88,1.04c0.41,0.48,0.78,0.99,1.13,1.52c0.34,0.53,0.65,1.08,0.92,1.64
		c0.06,0.13,0.12,0.27,0.15,0.41c0.02,0.13,0.02,0.25-0.03,0.36c-0.01,0.01-0.01,0.03-0.01,0.04c-0.08,0.15-0.22,0.24-0.37,0.3
		c-0.12,0.05-0.24,0.09-0.36,0.13c-1.22,0.37-2.31,1.2-2.82,2.33c-0.26,0.56-0.34,1.2-0.26,1.81c0.01,0.07,0.04,0.13,0.06,0.2
		c0.11,0.53,0.33,1.04,0.72,1.44c-0.36,0.2-0.69,0.46-0.97,0.76c-0.57,0.6-0.96,1.35-1.11,2.15c-0.08,0.4-0.09,0.81-0.05,1.21
		c0.02,0.2,0.07,0.4,0.12,0.6c0.06,0.19,0.13,0.39,0.21,0.57c0.51,1.11,1.52,2.01,2.73,2.37c-0.18,0.25-0.32,0.53-0.41,0.83
		c-0.09,0.3-0.12,0.61-0.11,0.91c0.01,0.31,0.07,0.61,0.18,0.9c0.11,0.29,0.27,0.56,0.47,0.8c0.56,0.66,1.41,1.05,2.13,1.54
		c0.43,0.3,0.82,0.63,1.08,1.08c0.71,1.25,0.1,2.91,0.79,4.17c0.29,0.54,0.78,0.92,1.36,1.18c0.57,0.26,1.23,0.39,1.86,0.42
		c0.31,0.02,0.63,0.02,0.95,0.01c0.32-0.01,0.63-0.02,0.95-0.03c0.63-0.02,1.26-0.01,1.88,0.09c-0.07,1.06,0.33,2.12,1.05,2.92
		c0.02,0.02,0.04,0.05,0.06,0.07c0.17,0.18,0.35,0.33,0.55,0.47c0.1,0.08,0.21,0.15,0.32,0.22c0.48,0.28,1.02,0.46,1.58,0.54
		c0.37,0.05,0.75,0.05,1.12,0.01c0.56-0.07,1.1-0.24,1.59-0.52c0.25,0.96,0.96,1.8,1.86,2.26c0.3,0.15,0.63,0.27,0.96,0.33
		c0.46,0.08,0.79,0.29,1.13,0.47c0.17,0.09,0.34,0.18,0.53,0.25c0.19,0.07,0.4,0.12,0.64,0.13c0.3,0.01,0.62-0.02,0.94-0.05
		c0.52-0.04,1.05-0.06,1.52,0.23c0.31,0.19,0.53,0.5,0.75,0.81c0.22,0.3,0.44,0.6,0.77,0.77c0.29,0.15,0.61,0.18,0.94,0.16
		c0.11,0,0.22-0.01,0.33-0.02c0.22-0.02,0.45-0.04,0.66-0.04c0.22,0,0.43,0.02,0.64,0.09c0.19,0.06,0.35,0.17,0.52,0.28
		c0.16,0.11,0.32,0.23,0.49,0.33c0.39,0.23,0.82,0.34,1.25,0.35c0.73,0.03,1.48-0.23,2.16-0.64c0.32-0.2,0.63-0.42,0.9-0.68
		c0.15-0.14,0.28-0.29,0.41-0.45c0.18,0.71,0.32,1.42,0.42,2.13c0.02,0.15,0.05,0.3,0.06,0.44c0.47,3.86-0.11,7.72-1.65,11.58
		c-0.52,1.3-1.14,2.61-1.87,3.91c-0.21,0.37-0.43,0.74-0.66,1.11H1603v171h-126V476h-89.64c-2.98-4.86-4.08-9.73-2.93-14.59
		c0.04-0.18,0.09-0.36,0.14-0.54c0.03-0.12,0.08-0.25,0.11-0.37c0.83,0.08,1.69-0.09,2.42-0.49c0.19-0.1,0.36-0.22,0.53-0.35
		c0.17-0.13,0.32-0.27,0.47-0.43c0.22,0.17,0.47,0.31,0.72,0.44c0.32,0.16,0.66,0.29,1.01,0.37c0.42,0.1,0.85,0.13,1.28,0.11
		c0.27-0.01,0.54-0.06,0.8-0.12c0.36-0.08,0.72-0.2,1.05-0.37c0.83,0.26,1.73,0.27,2.58,0.09c0.57-0.13,1.12-0.34,1.62-0.64
		c0.5-0.3,0.95-0.67,1.33-1.11c0.19-0.22,0.36-0.46,0.5-0.71c1.14,0.18,2.33-0.15,3.26-0.83c0.13-0.1,0.26-0.2,0.38-0.31
		c0.44-0.41,0.63-0.95,1.19-1.1c0.16-0.04,0.35-0.05,0.55-0.04c0.2,0.01,0.42,0.03,0.64,0.07c0.22,0.03,0.44,0.07,0.65,0.1
		s0.4,0.06,0.57,0.06c0.23,0.01,0.48,0,0.67-0.1c0.06-0.03,0.12-0.08,0.16-0.14c0.04-0.06,0.07-0.12,0.09-0.19
		c0.02-0.07,0.03-0.14,0.04-0.21l0.03-0.22c0.56-0.62,1.12-1.25,1.68-1.88c0.71-0.15,1.4-0.38,2.05-0.67
		c0.15-0.07,0.31-0.14,0.46-0.23c0.45-0.25,0.85-0.56,1.09-0.99c0.09-0.17,0.15-0.35,0.18-0.53c0.01-0.05,0.01-0.1,0.01-0.14
		c0.01-0.15,0.01-0.29-0.02-0.43c0-0.03,0-0.06,0-0.08c0,0-0.01,0-0.01,0c-0.04-0.21-0.11-0.41-0.23-0.6
		c0.85-0.24,1.64-0.8,1.96-1.57s0.1-1.77-0.64-2.24c1.51-0.98,2.51-2.61,2.66-4.32c0.09-1.01-0.29-2.24-1.34-2.48
		c0.92-0.62,1.75-1.43,2.12-2.44c0.38-1.04,0.14-2.14-0.65-2.95c-0.05-0.05,0.23-0.35,0.55-0.67c0.06-0.06,0.12-0.12,0.19-0.19
		c0.06-0.06,0.12-0.12,0.18-0.18c0.05-0.05,0.1-0.1,0.14-0.14c0.05-0.05,0.09-0.1,0.14-0.14c0.02-0.02,0.05-0.05,0.07-0.07
		c0.05-0.06,0.09-0.1,0.1-0.13c0.14-0.26,0.21-0.58,0.25-0.89c0.04-0.32,0.05-0.64,0.07-0.94c0.01-0.17,0.02-0.35,0.02-0.53
		c0.01-1.24-0.23-2.55-1.32-3.36c-0.08-0.06-0.17-0.12-0.25-0.18c-0.25-0.18-0.51-0.36-0.62-0.63c-0.05-0.12-0.07-0.25-0.07-0.38
		c0-0.13,0.02-0.27,0.03-0.4c0.01-0.15,0.02-0.29,0.02-0.44c0-0.6-0.1-1.21-0.36-1.73c-0.2-0.39-0.48-0.73-0.88-0.96
		c-0.1-0.06-0.2-0.13-0.28-0.22c-0.03-0.03-0.07-0.06-0.08-0.1c-0.03-0.09-0.01-0.19,0.04-0.28c0.05-0.09,0.12-0.17,0.2-0.24
		c0.6-0.57,1.33-1.01,1.9-1.6c0.22-0.22,0.41-0.47,0.56-0.74c0.2-0.36,0.32-0.75,0.3-1.14c0-0.1-0.02-0.2-0.04-0.29
		c-0.03-0.13-0.07-0.25-0.11-0.37c-0.04-0.12-0.07-0.25-0.07-0.38c0-0.21,0.08-0.41,0.2-0.62c0.06-0.1,0.12-0.21,0.19-0.31
		c0.16-0.23,0.33-0.45,0.46-0.67c0.04-0.07,0.08-0.14,0.11-0.21c0.24-0.54,0.42-1.04,0.54-1.52c0.06-0.24,0.11-0.48,0.14-0.72
		c0.17-1.18-0.02-2.32-0.52-3.68c0.67-1.4,0.79-3.02,0.44-4.53c-0.35-1.51-1.18-2.91-2.41-3.86c-0.13-0.1-0.25-0.19-0.38-0.28
		s-0.26-0.19-0.38-0.29c-0.25-0.2-0.47-0.42-0.64-0.69c-0.07-0.12-0.13-0.25-0.18-0.38c-0.14-0.39-0.19-0.81-0.21-1.25
		c-0.04-0.58-0.05-1.16-0.26-1.69c-0.25-0.63-0.71-1.08-1.27-1.44c-0.74-0.48-1.66-0.82-2.48-1.25c-0.21-0.11-0.4-0.22-0.59-0.35
		c-0.87-0.57-1.55-1.39-2.25-2.18c-0.18-0.2-0.35-0.39-0.53-0.58c-0.55-0.56-1.13-1.05-1.84-1.37c-0.29-0.13-0.6-0.22-0.91-0.27
		c-0.94-0.16-1.94,0.02-2.75,0.51c0.02-0.01,0.02-0.04,0-0.09c-0.03-0.09-0.1-0.25-0.2-0.43c-0.05-0.09-0.1-0.19-0.16-0.28
		c-0.23-0.39-0.49-0.78-0.55-0.84c-0.35-0.33-0.68-0.51-1.04-0.6c-0.36-0.1-0.74-0.12-1.2-0.14c-1.49-0.08-2.42-0.03-3.83-0.57
		c-0.16-0.06-0.33-0.12-0.5-0.18c-0.17-0.06-0.35-0.11-0.54-0.16c-1.09-0.3-2.35-0.48-3.54-0.39c-1.61,0.13-3.08,0.77-3.84,2.3
		c-0.08-0.65-0.41-1.19-0.86-1.67c-0.57-0.61-1.33-1.11-2.06-1.55c-0.08-0.05-0.16-0.1-0.24-0.14s-0.17-0.09-0.25-0.13
		c-0.17-0.08-0.35-0.14-0.53-0.16c-0.22-0.03-0.44,0-0.65,0.06c-0.11,0.03-0.21,0.06-0.31,0.1s-0.2,0.08-0.3,0.13
		c-0.56,0.25-1.11,0.55-1.63,0.88c-0.51,0.32-1,0.68-1.46,1.06c-0.02,0.01-0.03,0.01-0.05,0.02c-0.33-0.22-3-4.71-5.31-2
		c-0.07,0.08-0.14,0.16-0.21,0.24c-0.14,0.16-0.29,0.32-0.46,0.46c-0.32,0.28-0.68,0.5-1.07,0.53c-0.1,0.01-0.2,0-0.3-0.02
		c-0.32-0.06-0.59-0.24-0.88-0.38c-0.14-0.07-0.29-0.12-0.44-0.17c-0.15-0.04-0.3-0.08-0.45-0.1l0,0c-0.94-0.14-1.95,0.1-2.81,0.55
		c-1.13,0.6-2.06,1.52-2.98,2.42c-0.21,0.2-0.44,0.41-0.73,0.44c-0.26,0.02-0.51-0.12-0.75-0.24c-1.24-0.6-2.69-0.53-4-0.07
		c-0.22,0.08-0.43,0.16-0.64,0.26l-0.25,0.12c-1.08,0.5-2.01,1.24-2.82,2.11c-0.23,0.24-0.48,0.47-0.71,0.7
		c-0.1,0.1-0.2,0.2-0.31,0.28c-0.11,0.08-0.23,0.15-0.37,0.18c-0.13,0.03-0.27,0.01-0.4-0.02c-0.13-0.03-0.27-0.07-0.4-0.11
		c-1.77-0.5-3.19,0.51-4.35,1.8c-0.12,0.13-0.23,0.26-0.34,0.39c-0.56,0.67-1.05,1.38-1.5,1.97c-0.17,0.23-0.35,0.45-0.54,0.67
		c-0.19,0.22-0.38,0.44-0.57,0.67c-0.39,0.44-0.77,0.89-1.11,1.35c-0.17,0.23-0.33,0.46-0.47,0.7c-0.42,0.72-0.68,1.48-0.63,2.33
		c-0.34-0.14-0.68-0.15-1.01-0.06c-0.97,0.26-1.8,1.4-2.1,2.47c-0.05,0.18-0.1,0.36-0.14,0.55c-0.04,0.18-0.09,0.37-0.13,0.56
		c-0.09,0.37-0.18,0.75-0.3,1.1c-0.06,0.18-0.12,0.35-0.2,0.52c-0.22,0.5-0.51,0.95-0.96,1.28c-0.42,0.31-0.93,0.49-1.31,0.84
		c-1.1,0.99-0.66,2.64-0.58,4.21c0.03,0.57,0.01,1.13-0.14,1.64c-0.04,0.13-0.09,0.25-0.14,0.38c-0.08,0.17-0.18,0.33-0.28,0.49
		c-0.1,0.16-0.21,0.31-0.31,0.47c-0.13,0.22-0.24,0.45-0.33,0.68c-0.51,1.4-0.23,2.96-0.19,4.45c0.01,0.25,0.01,0.49,0,0.74
		c0,0,0,0.01,0,0.01c-0.05,1.01,0.07,2.29,0.62,3.23c0.27,0.46,0.64,0.84,1.16,1.06c-0.16,0.14-0.28,0.31-0.37,0.48
		c-0.19,0.35-0.25,0.75-0.2,1.15c0.02,0.2,0.08,0.4,0.15,0.59c0.08,0.19,0.17,0.36,0.28,0.53c0.12,0.19,0.26,0.38,0.41,0.56
		c0.24,0.29,0.5,0.58,0.74,0.87c0.34,0.4,0.66,0.83,0.94,1.27c0.29,0.44,0.55,0.9,0.77,1.37c0.05,0.11,0.1,0.23,0.13,0.34
		c0.02,0.1,0.01,0.21-0.03,0.31c0,0.01,0,0.03-0.01,0.04c-0.06,0.12-0.18,0.2-0.31,0.25c-0.1,0.04-0.2,0.08-0.3,0.11
		c-1.02,0.31-1.94,1.01-2.36,1.95c-0.21,0.47-0.29,1.01-0.22,1.52c0.01,0.06,0.04,0.11,0.05,0.17c0.09,0.45,0.28,0.87,0.6,1.21
		c-0.3,0.17-0.58,0.39-0.82,0.64c-0.47,0.5-0.8,1.13-0.93,1.8c-0.06,0.33-0.08,0.67-0.04,1.01c0.02,0.17,0.06,0.34,0.1,0.5
		c0.05,0.16,0.11,0.32,0.18,0.48c0.43,0.93,1.27,1.68,2.28,1.98c-0.15,0.21-0.27,0.45-0.34,0.7c-0.07,0.25-0.1,0.51-0.09,0.77
		c0.01,0.26,0.06,0.51,0.15,0.76s0.22,0.47,0.39,0.67c0.47,0.55,1.18,0.88,1.79,1.29c0.36,0.25,0.69,0.53,0.9,0.9
		c0.6,1.05,0.08,2.44,0.66,3.49c0.25,0.45,0.66,0.77,1.14,0.98c0.48,0.21,1.03,0.32,1.56,0.35c0.26,0.02,0.53,0.02,0.79,0.01
		c0.26,0,0.53-0.01,0.79-0.02c0.53-0.01,1.06-0.01,1.58,0.08c-0.06,0.88,0.28,1.78,0.88,2.44c0.02,0.02,0.03,0.04,0.05,0.06
		c0.14,0.15,0.3,0.28,0.46,0.4c0.09,0.06,0.17,0.13,0.26,0.18c0.4,0.24,0.86,0.39,1.33,0.45c0.31,0.04,0.63,0.04,0.94,0
		c0.47-0.06,0.92-0.2,1.33-0.44c0.21,0.81,0.8,1.5,1.56,1.89c0.25,0.13,0.52,0.22,0.81,0.27c0.38,0.07,0.66,0.24,0.94,0.4
		c0.14,0.08,0.28,0.15,0.44,0.21c0.16,0.06,0.33,0.1,0.53,0.11c0.26,0.01,0.52-0.02,0.78-0.04c0.44-0.04,0.88-0.05,1.27,0.2
		c0.26,0.16,0.44,0.42,0.63,0.68c0.18,0.25,0.37,0.5,0.64,0.65c0.24,0.13,0.51,0.15,0.78,0.14c0.09,0,0.18-0.01,0.28-0.02
		c0.19-0.02,0.37-0.04,0.56-0.04c0.18,0,0.36,0.02,0.54,0.08c0.16,0.05,0.3,0.14,0.43,0.23c0.14,0.09,0.27,0.19,0.41,0.27
		c0.33,0.19,0.68,0.28,1.05,0.3c0.61,0.02,1.24-0.19,1.81-0.54c0.27-0.16,0.53-0.35,0.75-0.57c0.12-0.12,0.24-0.25,0.34-0.38
		c0.15,0.59,0.27,1.19,0.35,1.78c0.02,0.12,0.04,0.25,0.05,0.37c0.4,3.23-0.1,6.47-1.38,9.7c-0.44,1.12-0.98,2.23-1.61,3.35
		c0,0,0,0,0,0h-96.71c-0.58-2.38-0.6-4.76,0.01-7.14c0.22,0.16,0.47,0.28,0.74,0.31c0.16,0.02,0.32,0.01,0.47-0.01
		c0.16-0.03,0.31-0.08,0.44-0.16c0.11-0.06,0.22-0.14,0.35-0.12c0.07,0.01,0.13,0.05,0.18,0.09s0.1,0.1,0.15,0.15
		c0.05,0.06,0.12,0.1,0.19,0.14c0.16,0.12,0.33,0.21,0.53,0.25c0.27,0.06,0.56,0.05,0.83-0.02c0.54-0.15,0.99-0.52,1.34-0.95
		c0.45,0.32,1.04,0.39,1.57,0.24c0.08-0.02,0.14-0.04,0.2-0.06c0.17-0.05,0.28-0.07,0.51-0.06c0.3,0.01,0.55,0.06,0.85-0.01
		c0.15-0.04,0.3-0.09,0.44-0.15c0.29-0.13,0.55-0.3,0.8-0.5c0.13-0.1,0.25-0.2,0.37-0.3c0.12-0.11,0.26-0.22,0.42-0.23
		c0.06,0,0.13,0.01,0.19,0.03c0.06,0.02,0.12,0.04,0.18,0.07c0.15,0.05,0.31,0.08,0.47,0.08c0.16,0,0.32-0.01,0.48-0.04
		c0.32-0.06,0.64-0.17,0.94-0.29c0.27-0.1,0.55-0.21,0.8-0.35c0.25-0.14,0.47-0.32,0.63-0.56c0.04-0.07,0.08-0.14,0.13-0.21
		s0.1-0.12,0.18-0.16c0.05-0.03,0.11-0.04,0.17-0.04c0.06,0,0.12,0,0.18,0c0,0,0,0,0,0c0.41,0.02,0.83,0.02,1.23-0.09
		c0.17-0.04,0.33-0.11,0.48-0.19c0.3-0.16,0.56-0.37,0.81-0.59c0.13-0.11,0.25-0.23,0.38-0.34c0.06-0.05,0.11-0.11,0.16-0.16
		c0.16-0.16,0.3-0.32,0.39-0.57c0.01-0.03,0.03-0.18,0.05-0.34c0.01-0.11,0.02-0.23,0.03-0.33c0.01-0.15,0.01-0.27,0-0.26
		c0,0,0,0,0,0c0.16-0.07,0.31-0.15,0.46-0.24c0.05-0.03,0.1-0.07,0.15-0.11c0.09-0.07,0.18-0.14,0.26-0.22
		c0.05-0.05,0.1-0.11,0.15-0.16c0.07-0.07,0.13-0.15,0.19-0.23c0.05-0.06,0.09-0.13,0.13-0.2c0.02-0.03,0.05-0.07,0.07-0.1
		c0,0,0-0.01-0.01-0.01c0.41-0.75,0.54-1.66,0.23-2.46c0.63-0.1,1.06-0.76,1.08-1.39c0.02-0.64-0.28-1.24-0.63-1.77
		c0.23,0.02,0.46,0.03,0.69,0.04c0,0,0.01,0,0.01,0c0.03,0,0.05,0,0.08,0c0.15,0,0.31-0.01,0.46-0.02c0.06-0.01,0.12-0.01,0.17-0.02
		c0.2-0.03,0.39-0.07,0.58-0.14l0,0c0.08-0.03,0.15-0.08,0.23-0.11c0.29-0.14,0.54-0.35,0.73-0.61c0.16-0.21,0.27-0.45,0.3-0.72
		c1.21,0.24,2.53-0.47,3.01-1.6c0.03-0.07,0.06-0.14,0.08-0.21c0.06-0.14,0.11-0.28,0.2-0.4c0.04-0.06,0.09-0.11,0.15-0.15
		c0.57-0.42,1.13-0.52,1.68-1.05c0.37-0.36,0.78-0.71,1.08-1.13c0.31-0.43,0.53-0.94,0.64-1.47c0.11-0.53,0.1-1.08-0.04-1.59
		c-0.1-0.34-0.26-0.66-0.49-0.95c0.74-0.21,1.28-0.87,1.46-1.6c0.11-0.44,0.08-0.91-0.11-1.33c-0.05-0.1-0.1-0.2-0.14-0.3
		c-0.04-0.1-0.07-0.21-0.07-0.32c0-0.2,0.1-0.36,0.23-0.5c0.13-0.15,0.29-0.28,0.43-0.43c0.14-0.15,0.24-0.33,0.32-0.52
		c0.07-0.19,0.11-0.39,0.12-0.6c0.01-0.41-0.11-0.82-0.37-1.14c-0.09-0.11-0.19-0.21-0.29-0.3c-0.16-0.16-0.31-0.32-0.43-0.49
		c-0.11-0.15-0.19-0.31-0.19-0.51c0-0.13,0.04-0.26,0.1-0.38s0.13-0.24,0.19-0.36c0.16-0.29,0.29-0.6,0.39-0.92
		c0.29-0.96,0.27-2.01-0.07-2.96c-0.12-0.34-0.29-0.68-0.25-1.04c0.03-0.25,0.15-0.47,0.27-0.69c0.45-0.79,0.92-1.59,1.12-2.48
		c0.05-0.21,0.07-0.41,0.07-0.59c0-0.55-0.18-1-0.29-1.6c-0.06-0.3-0.05-0.62-0.06-0.94s-0.02-0.64-0.11-0.94
		c-0.21-0.7-0.75-1.26-1-1.95c-0.23-0.62-0.21-1.25-0.13-1.89c0.05-0.42,0.14-0.85,0.21-1.27c0.03-0.21,0.06-0.42,0.08-0.63
		c0.03-0.42,0.03-0.84-0.08-1.26c-0.05-0.21-0.13-0.41-0.21-0.6c-0.18-0.37-0.42-0.68-0.72-0.94c-0.73-0.66-1.75-1.01-2.75-1.16
		c-0.05-0.41-0.09-0.82-0.17-1.22s-0.18-0.8-0.34-1.17c-0.16-0.38-0.38-0.74-0.66-1.04c-0.28-0.3-0.62-0.54-1.01-0.67
		c-0.38-0.13-0.81-0.16-1.23-0.21c-0.22-0.03-0.44-0.06-0.65-0.1c-0.39-0.09-0.74-0.25-0.96-0.59c-0.1-0.15-0.16-0.32-0.2-0.49
		c-0.05-0.17-0.08-0.35-0.12-0.53c-0.08-0.29-0.19-0.56-0.34-0.81c-0.15-0.25-0.33-0.49-0.54-0.7c-0.41-0.43-0.92-0.77-1.47-1.01
		c-1.09-0.47-2.31-0.58-3.5-0.56c0-0.5-0.15-0.99-0.41-1.42s-0.62-0.79-1.07-1.03c-0.24-0.13-0.5-0.21-0.76-0.26
		c-0.72-0.14-1.49-0.02-2.1,0.37c-0.21-0.85-0.89-1.54-1.7-1.87c-0.41-0.17-0.84-0.25-1.28-0.26c-0.44-0.01-0.88,0.04-1.31,0.15
		c-0.14,0.04-0.27,0.08-0.41,0.12c-0.41,0.13-0.82,0.25-1.24,0.24c-0.66-0.02-0.98-1-1.7-1.21c-0.16-0.05-0.34-0.09-0.53-0.12
		s-0.39-0.05-0.58-0.06c0,0,0,0,0,0c-0.4-0.02-0.79,0-1.13,0.08c-0.68,0.16-1.34,0.5-1.96,0.93c-0.41,0.29-0.81,0.61-1.19,0.95
		c-0.38,0.34-0.74,0.69-1.08,1.02c-0.17,0.17-0.34,0.33-0.5,0.49c-0.23-1.02-0.67-2.24-1.7-2.39c-0.23-0.03-0.48,0-0.7-0.08
		c-0.32-0.11-0.53-0.39-0.76-0.64c-0.24-0.25-0.52-0.46-0.82-0.61s-0.63-0.27-0.97-0.34c-0.34-0.07-0.69-0.09-1.03-0.06
		c-0.34,0.03-0.68,0.1-1,0.21c-0.17,0.06-0.32,0.14-0.47,0.23s-0.29,0.18-0.44,0.27c-0.06,0.03-0.11,0.06-0.15,0.09
		c-0.14,0.08-0.21,0.12-0.28,0.13v0c-0.1,0.01-0.22-0.04-0.51-0.13c-0.87-0.26-1.79-0.29-2.66,0c-1.02,0.35-1.9,1.11-2.38,2.07
		c-0.06-0.1-0.13-0.18-0.21-0.27c-0.14-0.15-0.31-0.28-0.49-0.38c-0.02-0.01-0.03-0.02-0.05-0.03c-0.17-0.09-0.36-0.17-0.56-0.22
		c-0.03-0.01-0.06-0.01-0.08-0.02c-0.19-0.04-0.39-0.07-0.6-0.07c-0.03,0-0.05,0-0.08,0c-0.21,0.01-0.42,0.03-0.61,0.08c0,0,0,0,0,0
		c-0.73,0.2-1.36,0.65-1.87,1.21c-0.17,0.19-0.33,0.39-0.48,0.59c-0.04,0.06-0.08,0.11-0.13,0.16s-0.11,0.08-0.18,0.08
		c-0.04,0-0.08-0.01-0.12-0.02s-0.07-0.04-0.11-0.06c-0.6-0.35-1.23-0.66-1.88-0.91c-0.5-0.19-1.02-0.36-1.56-0.39h0
		c-1.31-0.08-2.54,0.67-3.38,1.7c-0.12,0.15-0.23,0.3-0.33,0.46c0.1-0.15-0.09-0.27-0.37-0.36c-0.19-0.06-0.41-0.11-0.63-0.14
		c-0.11-0.02-0.21-0.03-0.3-0.04c-0.09-0.01-0.17-0.02-0.23-0.02s-0.11,0-0.13,0c-1.25,0.23-2.21,0.99-2.81,1.99
		c-0.6,1-0.84,2.24-0.64,3.43c-0.01-0.05-0.06-0.08-0.14-0.08c-0.16,0-0.45,0.08-0.79,0.21c-0.34,0.13-0.72,0.29-1.06,0.46
		c-0.52,0.24-0.95,0.48-1.03,0.54c-0.26,0.21-0.43,0.49-0.56,0.79c-0.22,0.5-0.3,1.08-0.27,1.63c-0.16-0.06-0.31-0.1-0.46-0.1
		c-0.15-0.01-0.3,0.01-0.45,0.05c-0.73,0.2-1.37,0.93-1.72,1.73c-0.07,0.16-0.13,0.32-0.18,0.48c-0.06,0.22-0.11,0.44-0.16,0.66
		c-0.15,0.67-0.29,1.36-0.61,1.96c-0.14,0.26-0.28,0.46-0.4,0.64c-0.18,0.27-0.32,0.48-0.38,0.75c-0.06,0.27-0.03,0.59,0.14,1.09
		c0.13,0.39,0.25,0.77,0.38,1.16c0.2,0.6,0.41,1.23,0.8,1.73c0.13,0.16,0.27,0.31,0.44,0.44c-0.24,0.17-0.48,0.34-0.72,0.53
		c-0.05,0.04-0.09,0.07-0.14,0.11c-0.77,0.63-1.41,1.4-1.41,2.36c-0.19-0.02-0.39-0.02-0.58,0.01c-1.33,0.18-2.49,1.45-2.43,2.81
		c0,0.09,0.01,0.17,0.01,0.26c0,0.09,0,0.17-0.03,0.25c-0.05,0.18-0.17,0.33-0.3,0.47c-0.05,0.05-0.09,0.11-0.14,0.16
		c-0.17,0.21-0.29,0.46-0.36,0.72c-0.03,0.13-0.06,0.27-0.06,0.4c-0.02,0.27,0.01,0.55,0.09,0.81c0.12,0.39,0.35,0.75,0.67,1
		c-0.23,0.11-0.44,0.24-0.65,0.4c-0.31,0.23-0.58,0.5-0.79,0.81c-0.14,0.21-0.25,0.43-0.33,0.66c-0.04,0.12-0.07,0.24-0.09,0.36
		c-0.06,0.37-0.01,0.76,0.13,1.11c0.05,0.12,0.1,0.23,0.17,0.34c0.13,0.21,0.3,0.4,0.5,0.54c0.2,0.14,0.43,0.24,0.68,0.27
		c0.02,0.27-0.09,0.51-0.24,0.73c-0.15,0.22-0.35,0.44-0.51,0.65c-0.12,0.15-0.21,0.32-0.3,0.49c-0.57,1.2-0.31,2.78,0.69,3.68
		c0.08,0.08,0.18,0.15,0.25,0.24s0.14,0.18,0.17,0.29c0.05,0.2-0.04,0.4-0.13,0.58c-0.01,0.03-0.03,0.05-0.04,0.08
		c-0.22,0.42-0.32,0.79-0.35,1.14c-0.05,0.51,0.08,0.96,0.28,1.42c0.07,0.15,0.14,0.31,0.22,0.47c0.15,0.32,0.32,0.65,0.48,1.03
		c0.14,0.33,0.3,0.68,0.5,1.03c0.1,0.17,0.21,0.35,0.32,0.52c0.23,0.34,0.49,0.67,0.77,0.95c0.14,0.14,0.29,0.28,0.45,0.4
		c0.31,0.24,0.65,0.42,1.02,0.53c-0.04-0.01-0.07-0.01-0.1,0c-0.03,0.01-0.06,0.02-0.08,0.05c-0.05,0.05-0.08,0.13-0.1,0.22
		c-0.07,0.35-0.01,0.95,0.08,1.43c0.06,0.34,0.13,0.61,0.18,0.68c0.25,0.4,0.64,0.71,1.08,0.91c0.22,0.1,0.45,0.17,0.69,0.21
		c0.24,0.04,0.47,0.04,0.7,0c-0.04,0.81-0.07,1.62-0.11,2.44c-0.01,0.21,0,0.43,0.03,0.65c0.05,0.44,0.18,0.9,0.36,1.35
		s0.42,0.87,0.71,1.25c0.29,0.38,0.63,0.7,1,0.95c0.19,0.12,0.38,0.22,0.59,0.3c0.89,0.33,1.86,0.37,2.82,0.34
		c0.32-0.01,0.64-0.03,0.96-0.05c-0.04,0.24-0.04,0.48,0,0.72c0.13,0.76,0.67,1.47,1.36,1.85c0.45,0.25,0.96,0.38,1.48,0.43
		c0.26,0.02,0.52,0.02,0.78,0c0.26-0.02,0.52-0.06,0.77-0.12c0.16,0.86,0.74,1.59,1.48,2.04c0.74,0.45,1.66,0.62,2.5,0.37
		c0.17-0.05,0.34-0.12,0.52-0.17s0.35-0.08,0.53-0.06c0.27,0.03,0.51,0.18,0.75,0.29c0.19,0.09,0.38,0.15,0.58,0.19
		c0.65,0.15,1.34,0.1,1.96-0.13c0.49-0.19,0.93-0.48,1.27-0.88c0.24,0.27,0.47,0.42,0.71,0.5c0.12,0.04,0.24,0.05,0.36,0.05
		c0.59,0,1.18-0.4,1.76-0.68c0.26-0.12,0.36-0.2,0.43-0.23c0.11-0.05,0.14,0.02,0.54,0.22c0.8,2.72,0.85,5.44,0.23,8.15H1183v285
		h-74v72h-100V696h-98.97c-1.47-3.15-1.93-6.29-1.19-9.44c0.03-0.14,0.07-0.28,0.11-0.42c0.03-0.1,0.06-0.19,0.09-0.29
		c0.66,0.07,1.34-0.07,1.92-0.38c0.15-0.08,0.29-0.17,0.42-0.27c0.13-0.1,0.26-0.22,0.37-0.34c0.18,0.14,0.37,0.25,0.57,0.35
		c0.25,0.13,0.52,0.23,0.8,0.29c0.33,0.08,0.67,0.11,1.01,0.09c0.21-0.01,0.42-0.05,0.63-0.09c0.29-0.06,0.57-0.16,0.83-0.29
		c0.66,0.2,1.36,0.22,2.04,0.07c0.45-0.1,0.88-0.27,1.28-0.5s0.75-0.53,1.05-0.88c0.15-0.17,0.28-0.36,0.4-0.56
		c0.9,0.14,1.84-0.12,2.58-0.66c0.1-0.08,0.21-0.16,0.3-0.25c0.35-0.32,0.5-0.75,0.94-0.87c0.13-0.03,0.27-0.04,0.43-0.03
		s0.33,0.03,0.5,0.05s0.35,0.06,0.51,0.08c0.16,0.02,0.32,0.04,0.45,0.05c0.18,0.01,0.38,0,0.53-0.08c0.05-0.03,0.09-0.06,0.13-0.11
		c0.03-0.05,0.06-0.1,0.07-0.15s0.02-0.11,0.03-0.17c0.01-0.06,0.02-0.12,0.02-0.18c0.06-0.44,0.12-0.88,0.18-1.32
		c0.96-0.07,1.91-0.3,2.77-0.69c0.12-0.05,0.24-0.11,0.36-0.18c0.35-0.19,0.67-0.44,0.86-0.78c0.07-0.13,0.11-0.27,0.14-0.42
		c0.01-0.04,0.01-0.08,0.01-0.11c0.01-0.11,0.01-0.23-0.01-0.34c0-0.02,0-0.04,0-0.07c0,0-0.01,0-0.01,0
		c-0.04-0.17-0.09-0.33-0.19-0.47c0.67-0.19,1.29-0.63,1.55-1.24c0.26-0.61,0.08-1.4-0.51-1.77c1.19-0.77,1.98-2.06,2.11-3.41
		c0.07-0.8-0.23-1.77-1.06-1.96c0.73-0.49,1.38-1.13,1.67-1.93c0.3-0.83,0.11-1.69-0.51-2.33c-0.04-0.04,0.18-0.28,0.43-0.53
		c0.05-0.05,0.1-0.1,0.15-0.15c0.05-0.05,0.1-0.1,0.14-0.14c0.04-0.04,0.08-0.08,0.11-0.11c0.04-0.04,0.07-0.08,0.11-0.11
		c0.02-0.02,0.04-0.04,0.05-0.06c0.04-0.04,0.07-0.08,0.08-0.1c0.11-0.21,0.17-0.45,0.2-0.71c0.03-0.25,0.04-0.51,0.06-0.74
		c0.01-0.14,0.01-0.28,0.01-0.42c0.01-0.98-0.19-2.01-1.05-2.66c-0.06-0.05-0.13-0.09-0.2-0.14c-0.2-0.14-0.4-0.28-0.49-0.5
		c-0.04-0.1-0.05-0.2-0.05-0.3c0-0.1,0.01-0.21,0.02-0.31c0.01-0.12,0.02-0.23,0.02-0.35c0-0.47-0.08-0.96-0.29-1.37
		c-0.16-0.31-0.38-0.57-0.69-0.76c-0.08-0.05-0.16-0.1-0.22-0.17c-0.02-0.03-0.05-0.05-0.06-0.08c-0.02-0.07-0.01-0.15,0.03-0.22
		c0.04-0.07,0.1-0.13,0.16-0.19c0.48-0.45,1.05-0.8,1.5-1.26c0.17-0.17,0.32-0.37,0.44-0.59c0.16-0.28,0.25-0.59,0.24-0.9
		c0-0.08-0.01-0.15-0.03-0.23c-0.02-0.1-0.06-0.2-0.09-0.3c-0.03-0.1-0.05-0.2-0.05-0.3c0-0.16,0.07-0.33,0.16-0.49
		c0.05-0.08,0.1-0.16,0.15-0.25c0.13-0.18,0.26-0.36,0.37-0.53c0.03-0.06,0.06-0.11,0.09-0.17c0.19-0.42,0.33-0.82,0.43-1.2
		c0.05-0.19,0.09-0.38,0.11-0.57c0.13-0.93-0.01-1.83-0.41-2.91c0.53-1.11,0.63-2.39,0.35-3.58c-0.28-1.19-0.94-2.3-1.9-3.05
		c-0.1-0.08-0.2-0.15-0.3-0.22s-0.2-0.15-0.3-0.23c-0.19-0.16-0.37-0.33-0.5-0.54c-0.06-0.1-0.11-0.19-0.14-0.3
		c-0.11-0.31-0.15-0.64-0.17-0.98c-0.03-0.45-0.04-0.92-0.21-1.34c-0.2-0.5-0.56-0.85-1-1.14c-0.59-0.38-1.31-0.65-1.96-0.99
		c-0.16-0.09-0.32-0.18-0.47-0.27c-0.69-0.45-1.22-1.1-1.78-1.72c-0.14-0.15-0.28-0.31-0.42-0.45c-0.43-0.44-0.89-0.83-1.46-1.08
		c-0.23-0.1-0.47-0.17-0.72-0.21c-0.74-0.12-1.53,0.01-2.18,0.4c0.01-0.01,0.01-0.03,0-0.07c-0.02-0.07-0.08-0.2-0.16-0.34
		c-0.04-0.07-0.08-0.15-0.13-0.22c-0.18-0.31-0.39-0.61-0.44-0.66c-0.27-0.26-0.54-0.4-0.82-0.48c-0.28-0.08-0.59-0.09-0.95-0.11
		c-1.18-0.06-1.91-0.02-3.03-0.45c-0.13-0.05-0.26-0.1-0.4-0.14c-0.14-0.04-0.28-0.09-0.42-0.13c-0.86-0.24-1.86-0.38-2.8-0.3
		c-1.27,0.1-2.44,0.61-3.03,1.82c-0.06-0.51-0.33-0.94-0.68-1.32c-0.45-0.48-1.05-0.88-1.63-1.22c-0.06-0.04-0.13-0.08-0.19-0.11
		c-0.06-0.04-0.13-0.07-0.2-0.1c-0.13-0.06-0.27-0.11-0.42-0.13c-0.17-0.02-0.34,0-0.51,0.05c-0.08,0.02-0.17,0.05-0.25,0.08
		c-0.08,0.03-0.16,0.07-0.24,0.1c-0.44,0.2-0.87,0.43-1.29,0.69c-0.21,0.13-0.41,0.27-0.6,0.41c-0.2,0.14-0.39,0.29-0.57,0.45
		c-0.12,0.1-2.32-3.81-4.22-1.59c-0.05,0.06-0.11,0.13-0.16,0.19c-0.11,0.13-0.23,0.25-0.36,0.36c-0.25,0.22-0.53,0.39-0.84,0.42
		c-0.08,0.01-0.16,0-0.24-0.01c-0.25-0.04-0.47-0.19-0.7-0.3c-0.11-0.05-0.23-0.1-0.35-0.13c-0.12-0.04-0.24-0.06-0.36-0.08h0
		c-0.74-0.11-1.54,0.08-2.22,0.44c-0.9,0.47-1.63,1.2-2.36,1.91c-0.16,0.16-0.35,0.33-0.58,0.35c-0.21,0.02-0.4-0.1-0.59-0.19
		c-0.98-0.47-2.13-0.42-3.16-0.05c-0.17,0.06-0.34,0.13-0.5,0.2l-0.43,0.18c-0.74,0.31-1.36,0.84-1.88,1.45
		c-0.21,0.24-0.45,0.46-0.68,0.69c-0.08,0.08-0.16,0.16-0.25,0.22c-0.09,0.07-0.19,0.12-0.29,0.14c-0.11,0.02-0.21,0.01-0.32-0.01
		s-0.21-0.06-0.31-0.09c-1.4-0.39-2.52,0.4-3.43,1.42c-0.09,0.1-0.18,0.21-0.27,0.31c-0.44,0.53-0.83,1.09-1.18,1.56
		c-0.13,0.18-0.28,0.36-0.42,0.53s-0.3,0.35-0.45,0.53c-0.3,0.35-0.61,0.7-0.88,1.07c-0.13,0.18-0.26,0.37-0.37,0.56
		c-0.33,0.57-0.54,1.17-0.5,1.84c-0.27-0.11-0.54-0.12-0.79-0.05c-0.77,0.21-1.42,1.1-1.66,1.95c-0.04,0.14-0.08,0.29-0.11,0.43
		s-0.07,0.29-0.1,0.44c-0.07,0.3-0.14,0.59-0.23,0.87c-0.05,0.14-0.1,0.28-0.15,0.41c-0.17,0.4-0.41,0.75-0.76,1.02
		c-0.33,0.25-0.73,0.39-1.04,0.66c-0.87,0.79-0.52,2.09-0.46,3.32c0.02,0.45,0.01,0.89-0.11,1.3c-0.03,0.1-0.07,0.2-0.11,0.3
		c-0.06,0.13-0.14,0.26-0.22,0.38c-0.08,0.12-0.17,0.25-0.24,0.37c-0.11,0.18-0.19,0.36-0.26,0.54c-0.41,1.1-0.18,2.34-0.15,3.51
		c0.01,0.2,0.01,0.39,0,0.58c0,0,0,0,0,0.01c-0.04,0.8,0.05,1.81,0.49,2.55c0.21,0.36,0.51,0.67,0.92,0.84
		c-0.12,0.11-0.22,0.24-0.3,0.38c-0.15,0.28-0.2,0.59-0.16,0.91c0.02,0.16,0.06,0.31,0.12,0.46c0.06,0.15,0.13,0.29,0.22,0.42
		c0.1,0.15,0.21,0.3,0.32,0.44c0.19,0.23,0.39,0.46,0.59,0.69c0.27,0.32,0.52,0.66,0.75,1c0.23,0.35,0.43,0.71,0.61,1.09
		c0.04,0.09,0.08,0.18,0.1,0.27c0.02,0.08,0.01,0.16-0.02,0.24c0,0.01,0,0.02-0.01,0.03c-0.05,0.1-0.14,0.16-0.25,0.2
		c-0.08,0.03-0.16,0.06-0.24,0.09c-0.8,0.25-1.53,0.79-1.87,1.54c-0.17,0.37-0.23,0.8-0.17,1.2c0.01,0.05,0.03,0.09,0.04,0.13
		c0.07,0.35,0.22,0.69,0.48,0.95c-0.24,0.14-0.46,0.31-0.64,0.5c-0.37,0.4-0.63,0.89-0.74,1.42c-0.05,0.26-0.06,0.53-0.03,0.8
		c0.02,0.13,0.04,0.27,0.08,0.39c0.04,0.13,0.08,0.26,0.14,0.38c0.34,0.73,1,1.33,1.8,1.57c-0.12,0.17-0.21,0.35-0.27,0.55
		c-0.06,0.2-0.08,0.4-0.07,0.6c0.01,0.2,0.05,0.41,0.12,0.6c0.07,0.19,0.18,0.37,0.31,0.53c0.37,0.43,0.93,0.69,1.41,1.02
		c0.29,0.2,0.54,0.42,0.71,0.71c0.47,0.83,0.06,1.93,0.52,2.76c0.19,0.36,0.52,0.61,0.9,0.78c0.38,0.17,0.81,0.26,1.23,0.28
		c0.21,0.01,0.42,0.01,0.63,0.01s0.42-0.01,0.63-0.02c0.42-0.01,0.83-0.01,1.25,0.06c-0.05,0.7,0.22,1.4,0.7,1.93
		c0.01,0.02,0.03,0.03,0.04,0.05c0.11,0.12,0.23,0.22,0.36,0.31c0.07,0.05,0.14,0.1,0.21,0.14c0.32,0.19,0.68,0.31,1.05,0.35
		c0.25,0.03,0.5,0.03,0.74,0c0.37-0.04,0.73-0.16,1.05-0.34c0.16,0.64,0.63,1.19,1.23,1.49c0.2,0.1,0.42,0.18,0.64,0.22
		c0.3,0.06,0.52,0.19,0.74,0.31c0.11,0.06,0.22,0.12,0.35,0.17s0.26,0.08,0.42,0.08c0.2,0.01,0.41-0.02,0.62-0.03
		c0.35-0.03,0.69-0.04,1,0.15c0.21,0.13,0.35,0.33,0.49,0.54c0.15,0.2,0.29,0.4,0.51,0.51c0.19,0.1,0.4,0.12,0.62,0.11
		c0.07,0,0.15-0.01,0.22-0.02c0.15-0.01,0.29-0.03,0.44-0.03c0.15,0,0.29,0.01,0.42,0.06c0.12,0.04,0.23,0.11,0.34,0.18
		s0.21,0.15,0.33,0.22c0.26,0.15,0.54,0.22,0.83,0.23c0.48,0.02,0.98-0.15,1.43-0.43c0.21-0.13,0.42-0.28,0.6-0.45
		c0.1-0.09,0.19-0.19,0.27-0.3c0.12,0.47,0.21,0.94,0.28,1.41c0.01,0.1,0.03,0.2,0.04,0.29c0.33,2.73-0.13,5.47-1.31,8.2
		c-0.01,0-0.01,0.01-0.02,0.01H809V586H698.08c-0.2-1.86-0.09-3.73,0.35-5.59c0.04-0.18,0.09-0.36,0.14-0.54
		c0.03-0.12,0.08-0.25,0.11-0.37c0.83,0.08,1.69-0.09,2.42-0.49c0.19-0.1,0.36-0.22,0.53-0.35c0.17-0.13,0.32-0.27,0.47-0.43
		c0.22,0.17,0.47,0.31,0.72,0.44c0.32,0.16,0.66,0.29,1.01,0.37c0.42,0.1,0.85,0.13,1.28,0.11c0.27-0.01,0.54-0.06,0.8-0.12
		c0.36-0.08,0.72-0.2,1.05-0.37c0.83,0.26,1.73,0.27,2.58,0.09c0.57-0.13,1.12-0.34,1.62-0.64c0.5-0.3,0.95-0.67,1.33-1.11
		c0.19-0.22,0.36-0.46,0.5-0.71c1.14,0.18,2.33-0.15,3.26-0.83c0.13-0.1,0.26-0.2,0.38-0.31c0.44-0.41,0.63-0.95,1.19-1.1
		c0.16-0.04,0.35-0.05,0.55-0.04c0.2,0.01,0.42,0.03,0.64,0.07c0.22,0.03,0.44,0.07,0.65,0.1s0.4,0.06,0.57,0.06
		c0.23,0.01,0.48,0,0.67-0.1c0.06-0.03,0.12-0.08,0.16-0.14c0.04-0.06,0.07-0.12,0.09-0.19c0.02-0.07,0.03-0.14,0.04-0.21l0.03-0.22
		c0.56-0.62,1.12-1.25,1.68-1.88c0.71-0.15,1.4-0.38,2.05-0.67c0.15-0.07,0.31-0.14,0.46-0.23c0.45-0.25,0.85-0.56,1.09-0.99
		c0.09-0.17,0.15-0.35,0.18-0.53c0.01-0.05,0.01-0.1,0.01-0.14c0.01-0.15,0.01-0.29-0.02-0.43c0-0.03,0-0.06,0-0.08
		c0,0-0.01,0-0.01,0c-0.04-0.21-0.11-0.41-0.23-0.6c0.85-0.24,1.64-0.8,1.96-1.57s0.1-1.77-0.64-2.24c1.51-0.98,2.51-2.61,2.66-4.32
		c0.09-1.01-0.29-2.24-1.34-2.48c0.92-0.62,1.75-1.43,2.12-2.44c0.38-1.04,0.14-2.14-0.65-2.95c-0.05-0.05,0.23-0.35,0.55-0.67
		c0.06-0.06,0.12-0.12,0.19-0.19c0.06-0.06,0.12-0.12,0.18-0.18c0.05-0.05,0.1-0.1,0.14-0.14c0.05-0.05,0.09-0.1,0.14-0.14
		c0.02-0.02,0.05-0.05,0.07-0.07c0.05-0.06,0.09-0.1,0.1-0.13c0.14-0.26,0.21-0.58,0.25-0.89c0.04-0.32,0.05-0.64,0.07-0.94
		c0.01-0.17,0.02-0.35,0.02-0.53c0.01-1.24-0.23-2.55-1.32-3.36c-0.08-0.06-0.17-0.12-0.25-0.18c-0.25-0.18-0.51-0.36-0.62-0.63
		c-0.05-0.12-0.07-0.25-0.07-0.38c0-0.13,0.02-0.27,0.03-0.4c0.01-0.15,0.02-0.29,0.02-0.44c0-0.6-0.1-1.21-0.36-1.73
		c-0.2-0.39-0.48-0.73-0.88-0.96c-0.1-0.06-0.2-0.13-0.28-0.22c-0.03-0.03-0.07-0.06-0.08-0.1c-0.03-0.09-0.01-0.19,0.04-0.28
		c0.05-0.09,0.12-0.17,0.2-0.24c0.6-0.57,1.33-1.01,1.9-1.6c0.22-0.22,0.41-0.47,0.56-0.74c0.2-0.36,0.32-0.75,0.3-1.14
		c0-0.1-0.02-0.2-0.04-0.29c-0.03-0.13-0.07-0.25-0.11-0.37c-0.04-0.12-0.07-0.25-0.07-0.38c0-0.21,0.08-0.41,0.2-0.62
		c0.06-0.1,0.12-0.21,0.19-0.31c0.16-0.23,0.33-0.45,0.46-0.67c0.04-0.07,0.08-0.14,0.11-0.21c0.24-0.54,0.42-1.04,0.54-1.52
		c0.06-0.24,0.11-0.48,0.14-0.72c0.17-1.18-0.02-2.32-0.52-3.68c0.67-1.4,0.79-3.02,0.44-4.53c-0.35-1.51-1.18-2.91-2.41-3.86
		c-0.13-0.1-0.25-0.19-0.38-0.28s-0.26-0.19-0.38-0.29c-0.25-0.2-0.47-0.42-0.64-0.69c-0.07-0.12-0.13-0.25-0.18-0.38
		c-0.14-0.39-0.19-0.81-0.21-1.25c-0.04-0.58-0.05-1.16-0.26-1.69c-0.25-0.63-0.71-1.08-1.27-1.44c-0.74-0.48-1.66-0.82-2.48-1.25
		c-0.21-0.11-0.4-0.22-0.59-0.35c-0.87-0.57-1.55-1.39-2.25-2.18c-0.18-0.2-0.35-0.39-0.53-0.58c-0.55-0.56-1.13-1.05-1.84-1.37
		c-0.29-0.13-0.6-0.22-0.91-0.27c-0.94-0.16-1.94,0.02-2.75,0.51c0.02-0.01,0.02-0.04,0-0.09c-0.03-0.09-0.1-0.25-0.2-0.43
		c-0.05-0.09-0.1-0.19-0.16-0.28c-0.23-0.39-0.49-0.78-0.55-0.84c-0.35-0.33-0.68-0.51-1.04-0.6c-0.36-0.1-0.74-0.12-1.2-0.14
		c-1.49-0.08-2.42-0.03-3.83-0.57c-0.16-0.06-0.33-0.12-0.5-0.18c-0.17-0.06-0.35-0.11-0.54-0.16c-1.09-0.3-2.35-0.48-3.54-0.39
		c-1.61,0.13-3.08,0.77-3.84,2.3c-0.08-0.65-0.41-1.19-0.86-1.67c-0.57-0.61-1.33-1.11-2.06-1.55c-0.08-0.05-0.16-0.1-0.24-0.14
		s-0.17-0.09-0.25-0.13c-0.17-0.08-0.35-0.14-0.53-0.16c-0.22-0.03-0.44,0-0.65,0.06c-0.11,0.03-0.21,0.06-0.31,0.1
		s-0.2,0.08-0.3,0.13c-0.56,0.25-1.11,0.55-1.63,0.88c-0.51,0.32-1,0.68-1.46,1.06c-0.02,0.01-0.03,0.01-0.05,0.02
		c-0.33-0.22-3-4.71-5.31-2c-0.07,0.08-0.14,0.16-0.21,0.24c-0.14,0.16-0.29,0.32-0.46,0.46c-0.32,0.28-0.68,0.5-1.07,0.53
		c-0.1,0.01-0.2,0-0.3-0.02c-0.32-0.06-0.59-0.24-0.88-0.38c-0.14-0.07-0.29-0.12-0.44-0.17c-0.15-0.04-0.3-0.08-0.45-0.1l0,0
		c-0.94-0.14-1.95,0.1-2.81,0.55c-1.13,0.6-2.06,1.52-2.98,2.42c-0.21,0.2-0.44,0.41-0.73,0.44c-0.26,0.02-0.51-0.12-0.75-0.24
		c-1.24-0.6-2.69-0.53-4-0.07c-0.22,0.08-0.43,0.16-0.64,0.26l-0.25,0.12c-1.08,0.5-2.01,1.24-2.82,2.11
		c-0.23,0.24-0.48,0.47-0.71,0.7c-0.1,0.1-0.2,0.2-0.31,0.28c-0.11,0.08-0.23,0.15-0.37,0.18c-0.13,0.03-0.27,0.01-0.4-0.02
		c-0.13-0.03-0.27-0.07-0.4-0.11c-1.77-0.5-3.19,0.51-4.35,1.8c-0.12,0.13-0.23,0.26-0.34,0.39c-0.56,0.67-1.05,1.38-1.5,1.97
		c-0.17,0.23-0.35,0.45-0.54,0.67c-0.19,0.22-0.38,0.44-0.57,0.67c-0.39,0.44-0.77,0.89-1.11,1.35c-0.17,0.23-0.33,0.46-0.47,0.7
		c-0.42,0.72-0.68,1.48-0.63,2.33c-0.34-0.14-0.68-0.15-1.01-0.06c-0.97,0.26-1.8,1.4-2.1,2.47c-0.05,0.18-0.1,0.36-0.14,0.55
		c-0.04,0.18-0.09,0.37-0.13,0.56c-0.09,0.37-0.18,0.75-0.3,1.1c-0.06,0.18-0.12,0.35-0.2,0.52c-0.22,0.5-0.51,0.95-0.96,1.28
		c-0.42,0.31-0.93,0.49-1.31,0.84c-1.1,0.99-0.66,2.64-0.58,4.21c0.03,0.57,0.01,1.13-0.14,1.64c-0.04,0.13-0.09,0.25-0.14,0.38
		c-0.08,0.17-0.18,0.33-0.28,0.49c-0.1,0.16-0.21,0.31-0.31,0.47c-0.13,0.22-0.24,0.45-0.33,0.68c-0.51,1.4-0.23,2.96-0.19,4.45
		c0.01,0.25,0.01,0.49,0,0.74c0,0,0,0.01,0,0.01c-0.05,1.01,0.07,2.29,0.62,3.23c0.27,0.46,0.64,0.84,1.16,1.06
		c-0.16,0.14-0.28,0.31-0.37,0.48c-0.19,0.35-0.25,0.75-0.2,1.15c0.02,0.2,0.08,0.4,0.15,0.59c0.08,0.19,0.17,0.36,0.28,0.53
		c0.12,0.19,0.26,0.38,0.41,0.56c0.24,0.29,0.5,0.58,0.74,0.87c0.34,0.4,0.66,0.83,0.94,1.27c0.29,0.44,0.55,0.9,0.77,1.37
		c0.05,0.11,0.1,0.23,0.13,0.34c0.02,0.1,0.01,0.21-0.03,0.31c0,0.01,0,0.03-0.01,0.04c-0.06,0.12-0.18,0.2-0.31,0.25
		c-0.1,0.04-0.2,0.08-0.3,0.11c-1.02,0.31-1.94,1.01-2.36,1.95c-0.21,0.47-0.29,1.01-0.22,1.52c0.01,0.06,0.04,0.11,0.05,0.17
		c0.09,0.45,0.28,0.87,0.6,1.21c-0.3,0.17-0.58,0.39-0.82,0.64c-0.47,0.5-0.8,1.13-0.93,1.8c-0.06,0.33-0.08,0.67-0.04,1.01
		c0.02,0.17,0.06,0.34,0.1,0.5c0.05,0.16,0.11,0.32,0.18,0.48c0.43,0.93,1.27,1.68,2.28,1.98c-0.15,0.21-0.27,0.45-0.34,0.7
		c-0.07,0.25-0.1,0.51-0.09,0.77c0.01,0.26,0.06,0.51,0.15,0.76s0.22,0.47,0.39,0.67c0.47,0.55,1.18,0.88,1.79,1.29
		c0.36,0.25,0.69,0.53,0.9,0.9c0.6,1.05,0.08,2.44,0.66,3.49c0.25,0.45,0.66,0.77,1.14,0.98c0.48,0.21,1.03,0.32,1.56,0.35
		c0.26,0.02,0.53,0.02,0.79,0.01c0.26,0,0.53-0.01,0.79-0.02c0.53-0.01,1.06-0.01,1.58,0.08c-0.06,0.88,0.28,1.78,0.88,2.44
		c0.02,0.02,0.03,0.04,0.05,0.06c0.14,0.15,0.3,0.28,0.46,0.4c0.09,0.06,0.17,0.13,0.26,0.18c0.4,0.24,0.86,0.39,1.33,0.45
		c0.31,0.04,0.63,0.04,0.94,0c0.47-0.06,0.92-0.2,1.33-0.44c0.21,0.81,0.8,1.5,1.56,1.89c0.25,0.13,0.52,0.22,0.81,0.27
		c0.38,0.07,0.66,0.24,0.94,0.4c0.14,0.08,0.28,0.15,0.44,0.21c0.16,0.06,0.33,0.1,0.53,0.11c0.26,0.01,0.52-0.02,0.78-0.04
		c0.44-0.04,0.88-0.05,1.27,0.2c0.26,0.16,0.44,0.42,0.63,0.68c0.18,0.25,0.37,0.5,0.64,0.65c0.24,0.13,0.51,0.15,0.78,0.14
		c0.09,0,0.18-0.01,0.28-0.02c0.19-0.02,0.37-0.04,0.56-0.04c0.18,0,0.36,0.02,0.54,0.08c0.16,0.05,0.3,0.14,0.43,0.23
		c0.14,0.09,0.27,0.19,0.41,0.27c0.33,0.19,0.68,0.28,1.05,0.3c0.61,0.02,1.24-0.19,1.81-0.54c0.27-0.16,0.53-0.35,0.75-0.57
		c0.12-0.12,0.24-0.25,0.34-0.38c0.15,0.59,0.27,1.19,0.35,1.78c0.02,0.12,0.04,0.25,0.05,0.37c0.17,1.35,0.17,2.7,0.03,4.05H589
		v179l-89,1V614H336V419H233.51c-2.09-4.2-2.77-8.4-1.8-12.59c0.04-0.18,0.09-0.36,0.14-0.54c0.03-0.12,0.07-0.25,0.11-0.37
		c0.82,0.08,1.67-0.09,2.39-0.49c0.18-0.1,0.36-0.22,0.52-0.35c0.16-0.13,0.32-0.27,0.46-0.43c0.22,0.17,0.46,0.31,0.71,0.44
		c0.32,0.16,0.65,0.29,1,0.37c0.41,0.1,0.84,0.13,1.26,0.11c0.27-0.01,0.53-0.06,0.79-0.12c0.36-0.08,0.71-0.2,1.03-0.37
		c0.82,0.26,1.7,0.27,2.54,0.09c0.56-0.13,1.1-0.34,1.59-0.64c0.49-0.3,0.94-0.67,1.31-1.11c0.19-0.22,0.35-0.46,0.5-0.71
		c1.12,0.18,2.3-0.15,3.22-0.83c0.13-0.1,0.26-0.2,0.37-0.31c0.44-0.41,0.62-0.95,1.17-1.1c0.16-0.04,0.34-0.05,0.54-0.04
		c0.2,0.01,0.41,0.03,0.63,0.07c0.22,0.03,0.43,0.07,0.64,0.1s0.4,0.06,0.56,0.06c0.22,0.01,0.47,0,0.66-0.1
		c0.06-0.03,0.12-0.08,0.16-0.14c0.04-0.06,0.07-0.12,0.09-0.19c0.02-0.07,0.03-0.14,0.04-0.21l0.03-0.23
		c0.56-0.63,1.12-1.26,1.67-1.88c0.69-0.15,1.37-0.38,2.01-0.67c0.15-0.07,0.3-0.14,0.45-0.23c0.44-0.25,0.84-0.56,1.08-0.99
		c0.09-0.17,0.14-0.35,0.17-0.53c0.01-0.05,0.01-0.1,0.01-0.14c0.01-0.15,0.01-0.29-0.02-0.43c0-0.03,0-0.06,0-0.08
		c0,0-0.01,0-0.01,0c-0.04-0.21-0.11-0.41-0.23-0.6c0.84-0.24,1.61-0.8,1.94-1.57c0.32-0.78,0.1-1.77-0.64-2.24
		c1.48-0.98,2.47-2.61,2.63-4.32c0.09-1.01-0.29-2.24-1.32-2.48c0.91-0.62,1.73-1.43,2.09-2.44c0.38-1.04,0.13-2.14-0.64-2.95
		c-0.05-0.05,0.23-0.35,0.54-0.67c0.06-0.06,0.12-0.12,0.18-0.19c0.06-0.06,0.12-0.12,0.18-0.18c0.05-0.05,0.1-0.1,0.14-0.14
		c0.05-0.05,0.09-0.1,0.13-0.14c0.02-0.02,0.05-0.05,0.07-0.07c0.05-0.06,0.09-0.1,0.1-0.13c0.14-0.26,0.21-0.58,0.25-0.89
		c0.04-0.32,0.05-0.64,0.07-0.94c0.01-0.17,0.02-0.35,0.02-0.53c0.01-1.24-0.23-2.55-1.3-3.36c-0.08-0.06-0.16-0.12-0.25-0.18
		c-0.25-0.18-0.5-0.36-0.61-0.63c-0.05-0.12-0.07-0.25-0.07-0.38c0-0.13,0.01-0.27,0.03-0.4c0.01-0.15,0.02-0.29,0.02-0.44
		c0-0.6-0.1-1.21-0.36-1.73c-0.19-0.39-0.47-0.73-0.86-0.96c-0.1-0.06-0.2-0.13-0.27-0.22c-0.03-0.03-0.07-0.06-0.08-0.1
		c-0.03-0.09-0.01-0.19,0.04-0.28c0.05-0.09,0.12-0.17,0.2-0.24c0.59-0.57,1.31-1.01,1.87-1.6c0.21-0.22,0.4-0.47,0.55-0.74
		c0.2-0.36,0.31-0.75,0.29-1.14c0-0.1-0.02-0.2-0.04-0.29c-0.03-0.13-0.07-0.25-0.11-0.37c-0.04-0.12-0.07-0.25-0.07-0.38
		c0-0.21,0.08-0.41,0.19-0.62c0.06-0.1,0.12-0.21,0.19-0.31c0.16-0.23,0.33-0.45,0.46-0.67c0.04-0.07,0.08-0.14,0.11-0.21
		c0.24-0.54,0.41-1.04,0.53-1.52c0.06-0.24,0.11-0.48,0.14-0.72c0.16-1.18-0.02-2.32-0.51-3.68c0.66-1.4,0.78-3.02,0.43-4.53
		c-0.35-1.51-1.17-2.91-2.37-3.86c-0.12-0.1-0.25-0.19-0.38-0.28s-0.25-0.19-0.38-0.29c-0.24-0.2-0.47-0.42-0.63-0.69
		c-0.07-0.12-0.13-0.25-0.18-0.38c-0.14-0.39-0.18-0.81-0.21-1.25c-0.04-0.58-0.05-1.16-0.26-1.69c-0.24-0.63-0.7-1.08-1.25-1.44
		c-0.73-0.48-1.64-0.82-2.45-1.25c-0.2-0.11-0.4-0.22-0.58-0.35c-0.86-0.57-1.53-1.39-2.22-2.18c-0.17-0.2-0.35-0.39-0.53-0.58
		c-0.54-0.56-1.12-1.05-1.82-1.37c-0.29-0.13-0.59-0.22-0.9-0.27c-0.93-0.16-1.91,0.02-2.71,0.51c0.02-0.01,0.02-0.04,0-0.09
		c-0.03-0.09-0.1-0.25-0.2-0.43c-0.05-0.09-0.1-0.19-0.16-0.28c-0.23-0.39-0.48-0.78-0.55-0.84c-0.34-0.33-0.67-0.51-1.02-0.6
		c-0.35-0.1-0.73-0.12-1.18-0.14c-1.47-0.08-2.39-0.03-3.78-0.57c-0.16-0.06-0.32-0.12-0.49-0.18c-0.17-0.06-0.35-0.11-0.53-0.16
		c-1.08-0.3-2.32-0.48-3.49-0.39c-1.58,0.13-3.04,0.77-3.78,2.3c-0.08-0.65-0.41-1.19-0.85-1.67c-0.56-0.61-1.32-1.11-2.04-1.55
		c-0.08-0.05-0.16-0.1-0.24-0.14s-0.16-0.09-0.25-0.13c-0.17-0.08-0.34-0.14-0.53-0.16c-0.22-0.03-0.43,0-0.64,0.06
		c-0.1,0.03-0.21,0.06-0.31,0.1c-0.1,0.04-0.2,0.08-0.3,0.13c-0.55,0.25-1.09,0.55-1.6,0.88c-0.5,0.32-0.98,0.67-1.43,1.05
		c-0.04,0-0.05,0-0.09,0c-0.42-0.4-2.98-4.63-5.21-1.98c-0.07,0.08-0.13,0.16-0.21,0.24c-0.14,0.16-0.29,0.32-0.45,0.46
		c-0.32,0.28-0.67,0.5-1.05,0.53c-0.1,0.01-0.19,0-0.29-0.02c-0.31-0.06-0.58-0.24-0.87-0.38c-0.14-0.07-0.29-0.12-0.43-0.17
		c-0.15-0.04-0.3-0.08-0.45-0.1l0,0c-0.93-0.14-1.92,0.1-2.77,0.55c-1.12,0.6-2.03,1.52-2.94,2.42c-0.21,0.2-0.44,0.41-0.72,0.44
		c-0.26,0.02-0.5-0.12-0.74-0.24c-1.22-0.6-2.65-0.53-3.94-0.07c-0.21,0.08-0.43,0.16-0.63,0.26l-0.1,0.05
		c-1.06,0.5-2.05,1.17-2.82,2.06c-0.25,0.29-0.54,0.55-0.81,0.82c-0.1,0.1-0.2,0.2-0.31,0.28c-0.11,0.08-0.23,0.15-0.37,0.18
		c-0.13,0.03-0.26,0.01-0.4-0.02c-0.13-0.03-0.26-0.07-0.39-0.11c-1.75-0.5-3.14,0.51-4.28,1.8c-0.11,0.13-0.23,0.26-0.34,0.39
		c-0.55,0.67-1.03,1.38-1.47,1.97c-0.17,0.23-0.35,0.45-0.53,0.67c-0.18,0.22-0.37,0.44-0.56,0.67c-0.38,0.44-0.76,0.89-1.09,1.35
		c-0.17,0.23-0.32,0.46-0.46,0.7c-0.41,0.72-0.67,1.48-0.62,2.33c-0.34-0.14-0.67-0.15-0.99-0.06c-0.96,0.26-1.77,1.4-2.07,2.47
		c-0.05,0.18-0.1,0.36-0.14,0.55c-0.04,0.18-0.09,0.37-0.13,0.56c-0.09,0.37-0.18,0.75-0.29,1.1c-0.06,0.18-0.12,0.35-0.19,0.52
		c-0.22,0.5-0.51,0.95-0.95,1.28c-0.41,0.31-0.91,0.49-1.29,0.84c-1.08,0.99-0.65,2.64-0.57,4.21c0.03,0.57,0.01,1.13-0.14,1.64
		c-0.04,0.13-0.08,0.25-0.14,0.38c-0.08,0.17-0.18,0.33-0.28,0.49c-0.1,0.16-0.21,0.31-0.3,0.47c-0.13,0.22-0.24,0.45-0.32,0.68
		c-0.51,1.4-0.23,2.96-0.19,4.45c0.01,0.25,0.01,0.49,0,0.74c0,0,0,0.01,0,0.01c-0.04,1.01,0.07,2.29,0.61,3.23
		c0.27,0.46,0.63,0.84,1.15,1.06c-0.15,0.14-0.28,0.31-0.37,0.48c-0.18,0.35-0.25,0.75-0.2,1.15c0.02,0.2,0.07,0.4,0.15,0.59
		c0.08,0.19,0.17,0.36,0.27,0.53c0.12,0.19,0.26,0.38,0.4,0.56c0.24,0.29,0.49,0.58,0.73,0.87c0.34,0.4,0.65,0.83,0.93,1.27
		c0.28,0.44,0.54,0.9,0.76,1.37c0.05,0.11,0.1,0.23,0.12,0.34c0.02,0.1,0.01,0.21-0.03,0.31c0,0.01,0,0.03-0.01,0.04
		c-0.06,0.12-0.18,0.2-0.31,0.25c-0.1,0.04-0.2,0.08-0.3,0.11c-1,0.31-1.91,1.01-2.33,1.95c-0.21,0.47-0.28,1.01-0.21,1.52
		c0.01,0.06,0.04,0.11,0.05,0.17c0.09,0.45,0.27,0.87,0.59,1.21c-0.3,0.17-0.57,0.39-0.8,0.64c-0.47,0.5-0.79,1.13-0.92,1.8
		c-0.06,0.33-0.08,0.67-0.04,1.01c0.02,0.17,0.05,0.34,0.1,0.5c0.05,0.16,0.11,0.32,0.18,0.48c0.42,0.93,1.25,1.68,2.25,1.98
		c-0.15,0.21-0.26,0.45-0.33,0.7c-0.07,0.25-0.1,0.51-0.09,0.77c0.01,0.26,0.06,0.51,0.15,0.76c0.09,0.24,0.22,0.47,0.39,0.67
		c0.47,0.55,1.17,0.88,1.76,1.29c0.36,0.25,0.68,0.53,0.89,0.9c0.59,1.05,0.08,2.44,0.65,3.49c0.24,0.45,0.65,0.77,1.12,0.98
		c0.47,0.21,1.02,0.32,1.54,0.35c0.26,0.02,0.52,0.02,0.78,0.01c0.26,0,0.52-0.01,0.78-0.02c0.52-0.01,1.04-0.01,1.55,0.08
		c-0.06,0.88,0.28,1.78,0.87,2.44c0.02,0.02,0.03,0.04,0.05,0.06c0.14,0.15,0.29,0.28,0.45,0.4c0.09,0.06,0.17,0.13,0.26,0.18
		c0.4,0.24,0.85,0.39,1.31,0.45c0.31,0.04,0.62,0.04,0.93,0c0.46-0.06,0.91-0.2,1.31-0.44c0.2,0.81,0.79,1.5,1.54,1.89
		c0.25,0.13,0.52,0.22,0.8,0.27c0.38,0.07,0.65,0.24,0.93,0.4c0.14,0.08,0.28,0.15,0.44,0.21c0.16,0.06,0.33,0.1,0.53,0.11
		c0.25,0.01,0.51-0.02,0.77-0.04c0.43-0.04,0.86-0.05,1.25,0.2c0.26,0.16,0.44,0.42,0.62,0.68c0.18,0.25,0.36,0.5,0.63,0.65
		c0.24,0.13,0.5,0.15,0.77,0.14c0.09,0,0.18-0.01,0.27-0.02c0.18-0.02,0.37-0.04,0.55-0.04c0.18,0,0.36,0.02,0.53,0.08
		c0.15,0.05,0.29,0.14,0.43,0.23c0.14,0.09,0.27,0.19,0.41,0.27c0.32,0.19,0.67,0.28,1.03,0.3c0.6,0.02,1.22-0.19,1.78-0.54
		c0.26-0.16,0.52-0.35,0.74-0.57c0.12-0.12,0.23-0.25,0.34-0.38c0.14,0.59,0.26,1.19,0.35,1.78c0.02,0.12,0.04,0.25,0.05,0.37
		c0.39,3.23-0.09,6.47-1.36,9.7c-0.18,0.45-0.38,0.9-0.58,1.35H173v309h-35v-55H72.67c-0.81-2.86-0.92-5.73-0.24-8.59
		c0.04-0.18,0.09-0.36,0.14-0.54c0.03-0.12,0.08-0.25,0.11-0.37c0.83,0.08,1.69-0.09,2.42-0.49c0.19-0.1,0.36-0.22,0.53-0.35
		c0.17-0.13,0.32-0.27,0.47-0.43c0.22,0.17,0.47,0.31,0.72,0.44c0.32,0.16,0.66,0.29,1.01,0.37c0.42,0.1,0.85,0.13,1.27,0.11
		c0.27-0.01,0.54-0.06,0.8-0.12c0.36-0.08,0.72-0.2,1.05-0.37c0.83,0.26,1.73,0.27,2.58,0.09c0.57-0.13,1.12-0.34,1.62-0.64
		c0.5-0.3,0.95-0.67,1.33-1.11c0.19-0.22,0.36-0.46,0.5-0.71c1.14,0.18,2.33-0.15,3.26-0.83c0.13-0.1,0.26-0.2,0.38-0.31
		c0.44-0.41,0.63-0.95,1.19-1.1c0.16-0.04,0.35-0.05,0.55-0.04s0.42,0.03,0.64,0.07c0.22,0.03,0.44,0.07,0.65,0.1
		s0.4,0.06,0.57,0.06c0.23,0.01,0.48,0,0.67-0.1c0.06-0.03,0.12-0.08,0.16-0.14c0.04-0.06,0.07-0.12,0.09-0.19
		c0.02-0.07,0.03-0.14,0.04-0.21c0.01-0.07,0.02-0.15,0.03-0.22c0.07-0.56,0.15-1.12,0.22-1.67c1.21-0.08,2.41-0.38,3.51-0.88
		c0.15-0.07,0.31-0.14,0.46-0.23c0.45-0.25,0.85-0.56,1.09-0.99c0.09-0.17,0.15-0.35,0.18-0.53c0.01-0.05,0.01-0.1,0.01-0.14
		c0.01-0.15,0.01-0.29-0.02-0.43c0-0.03,0-0.06,0-0.08c0,0-0.01,0-0.01,0c-0.04-0.21-0.11-0.41-0.23-0.6
		c0.85-0.24,1.64-0.8,1.96-1.57c0.33-0.78,0.1-1.77-0.64-2.24c1.5-0.98,2.51-2.61,2.66-4.32c0.09-1.01-0.29-2.24-1.34-2.48
		c0.92-0.62,1.75-1.43,2.12-2.44c0.38-1.04,0.13-2.14-0.65-2.95c-0.05-0.05,0.23-0.35,0.55-0.67c0.06-0.06,0.12-0.12,0.19-0.19
		c0.06-0.06,0.12-0.12,0.18-0.18c0.05-0.05,0.1-0.1,0.14-0.14c0.05-0.05,0.09-0.1,0.14-0.14c0.02-0.02,0.05-0.05,0.07-0.07
		c0.05-0.06,0.09-0.1,0.1-0.13c0.14-0.26,0.21-0.58,0.25-0.89c0.04-0.32,0.05-0.64,0.07-0.94c0.01-0.17,0.02-0.35,0.02-0.53
		c0.01-1.24-0.23-2.55-1.32-3.36c-0.08-0.06-0.17-0.12-0.25-0.18c-0.25-0.18-0.51-0.36-0.62-0.63c-0.05-0.12-0.07-0.25-0.07-0.38
		s0.02-0.27,0.03-0.4c0.01-0.15,0.02-0.29,0.02-0.44c0-0.6-0.1-1.21-0.36-1.73c-0.2-0.39-0.48-0.73-0.88-0.96
		c-0.1-0.06-0.2-0.13-0.28-0.22c-0.03-0.03-0.07-0.06-0.08-0.1c-0.03-0.09-0.01-0.19,0.04-0.28s0.12-0.17,0.2-0.24
		c0.6-0.57,1.33-1.01,1.9-1.6c0.22-0.22,0.41-0.47,0.56-0.74c0.2-0.36,0.32-0.75,0.3-1.14c0-0.1-0.02-0.2-0.04-0.29
		c-0.03-0.13-0.07-0.25-0.11-0.37c-0.04-0.12-0.07-0.25-0.07-0.38c0-0.21,0.08-0.41,0.2-0.62c0.06-0.1,0.12-0.21,0.19-0.31
		c0.16-0.23,0.33-0.45,0.46-0.67c0.04-0.07,0.08-0.14,0.11-0.21c0.24-0.54,0.42-1.04,0.54-1.52c0.06-0.24,0.11-0.48,0.14-0.72
		c0.17-1.18-0.02-2.32-0.52-3.68c0.67-1.4,0.79-3.02,0.44-4.53c-0.35-1.51-1.18-2.91-2.41-3.86c-0.13-0.1-0.25-0.19-0.38-0.28
		c-0.13-0.09-0.26-0.19-0.38-0.29c-0.25-0.2-0.47-0.42-0.64-0.69c-0.07-0.12-0.13-0.25-0.18-0.38c-0.14-0.39-0.19-0.81-0.21-1.25
		c-0.04-0.58-0.05-1.16-0.26-1.69c-0.25-0.63-0.71-1.08-1.27-1.44c-0.74-0.48-1.66-0.82-2.48-1.25c-0.21-0.11-0.4-0.22-0.59-0.35
		c-0.87-0.57-1.55-1.39-2.25-2.18c-0.18-0.2-0.35-0.39-0.53-0.58c-0.54-0.56-1.13-1.05-1.84-1.37c-0.29-0.13-0.6-0.22-0.91-0.27
		c-0.94-0.16-1.94,0.02-2.75,0.51c0.02-0.01,0.02-0.04,0-0.09c-0.03-0.09-0.1-0.25-0.2-0.43c-0.05-0.09-0.1-0.19-0.16-0.28
		c-0.23-0.39-0.49-0.78-0.55-0.84c-0.35-0.33-0.68-0.51-1.04-0.6c-0.36-0.1-0.74-0.12-1.2-0.14c-1.49-0.08-2.42-0.03-3.83-0.57
		c-0.16-0.06-0.33-0.12-0.5-0.18c-0.17-0.06-0.35-0.11-0.54-0.16c-1.09-0.3-2.35-0.48-3.54-0.39c-1.61,0.13-3.08,0.77-3.84,2.3
		c-0.08-0.65-0.41-1.19-0.86-1.67c-0.57-0.61-1.33-1.11-2.06-1.55c-0.08-0.05-0.16-0.1-0.24-0.14s-0.17-0.09-0.25-0.13
		c-0.17-0.08-0.35-0.14-0.53-0.16c-0.22-0.03-0.43,0-0.65,0.06c-0.11,0.03-0.21,0.06-0.31,0.1s-0.2,0.08-0.3,0.13
		c-0.56,0.25-1.11,0.55-1.63,0.88c-0.51,0.32-0.99,0.67-1.45,1.05c-0.04,0-0.05,0-0.09,0c-0.42-0.4-3.03-4.63-5.29-1.98
		c-0.07,0.08-0.14,0.16-0.21,0.24c-0.14,0.16-0.29,0.32-0.46,0.46c-0.32,0.28-0.68,0.5-1.07,0.53c-0.1,0.01-0.2,0-0.3-0.02
		c-0.32-0.06-0.59-0.24-0.88-0.38c-0.14-0.07-0.29-0.12-0.44-0.17c-0.15-0.04-0.3-0.08-0.45-0.1l0,0c-0.94-0.14-1.95,0.1-2.81,0.55
		c-1.13,0.6-2.06,1.52-2.98,2.42c-0.21,0.2-0.44,0.41-0.73,0.44c-0.26,0.02-0.51-0.12-0.75-0.24c-1.24-0.6-2.69-0.53-4-0.07
		c-0.22,0.08-0.43,0.16-0.64,0.26l-0.1,0.04c-1.14,0.46-2.11,1.24-2.94,2.15c-0.23,0.26-0.5,0.49-0.75,0.74
		c-0.1,0.1-0.2,0.2-0.31,0.28c-0.11,0.08-0.23,0.15-0.37,0.18c-0.13,0.03-0.27,0.01-0.4-0.02s-0.27-0.07-0.4-0.11
		c-1.77-0.5-3.19,0.51-4.35,1.8c-0.12,0.13-0.23,0.26-0.34,0.39c-0.56,0.67-1.05,1.38-1.5,1.97c-0.17,0.23-0.35,0.45-0.54,0.67
		s-0.38,0.44-0.57,0.67c-0.39,0.44-0.77,0.89-1.11,1.35c-0.17,0.23-0.33,0.46-0.47,0.7c-0.42,0.72-0.68,1.48-0.63,2.33
		c-0.34-0.14-0.68-0.15-1.01-0.06c-0.97,0.26-1.79,1.4-2.1,2.47c-0.05,0.18-0.1,0.36-0.14,0.55c-0.04,0.18-0.09,0.37-0.13,0.56
		c-0.09,0.37-0.18,0.75-0.3,1.1c-0.06,0.18-0.12,0.35-0.2,0.52c-0.22,0.5-0.51,0.95-0.96,1.28c-0.42,0.31-0.93,0.49-1.31,0.84
		c-1.1,0.99-0.66,2.64-0.58,4.21c0.03,0.57,0.01,1.13-0.14,1.64c-0.04,0.13-0.09,0.25-0.14,0.38c-0.08,0.17-0.18,0.33-0.28,0.49
		c-0.1,0.16-0.21,0.31-0.31,0.47c-0.13,0.22-0.24,0.45-0.33,0.68c-0.51,1.4-0.23,2.96-0.19,4.45c0.01,0.25,0.01,0.49,0,0.74
		c0,0,0,0.01,0,0.01c-0.05,1.01,0.07,2.29,0.62,3.23c0.27,0.46,0.64,0.84,1.16,1.06c-0.16,0.14-0.28,0.31-0.37,0.48
		c-0.19,0.35-0.25,0.75-0.2,1.15c0.02,0.2,0.08,0.4,0.15,0.59c0.08,0.19,0.17,0.36,0.28,0.53c0.12,0.19,0.26,0.38,0.41,0.56
		c0.24,0.29,0.5,0.58,0.74,0.87c0.34,0.4,0.66,0.83,0.94,1.27c0.29,0.44,0.54,0.9,0.77,1.37c0.05,0.11,0.1,0.23,0.13,0.34
		c0.02,0.1,0.01,0.21-0.03,0.31c0,0.01,0,0.03-0.01,0.04c-0.06,0.12-0.18,0.2-0.31,0.25c-0.1,0.04-0.2,0.08-0.3,0.11
		c-1.02,0.31-1.94,1.01-2.36,1.95c-0.21,0.47-0.29,1.01-0.22,1.52c0.01,0.06,0.04,0.11,0.05,0.17c0.09,0.45,0.28,0.87,0.6,1.21
		c-0.3,0.17-0.58,0.39-0.82,0.64c-0.47,0.5-0.8,1.13-0.93,1.8c-0.06,0.33-0.08,0.67-0.04,1.01c0.02,0.17,0.06,0.34,0.1,0.5
		c0.05,0.16,0.11,0.32,0.18,0.48c0.43,0.93,1.27,1.68,2.28,1.98c-0.15,0.21-0.27,0.45-0.34,0.7c-0.07,0.25-0.1,0.51-0.09,0.77
		c0.01,0.26,0.06,0.51,0.15,0.76c0.09,0.24,0.22,0.47,0.39,0.67c0.47,0.55,1.18,0.88,1.79,1.29c0.36,0.25,0.69,0.53,0.9,0.9
		c0.6,1.05,0.08,2.44,0.66,3.49c0.25,0.45,0.66,0.77,1.14,0.98c0.48,0.21,1.03,0.32,1.56,0.35c0.26,0.02,0.53,0.02,0.79,0.01
		c0.26,0,0.53-0.01,0.79-0.02c0.53-0.01,1.06-0.01,1.58,0.08c-0.06,0.88,0.28,1.78,0.88,2.44c0.02,0.02,0.03,0.04,0.05,0.06
		c0.14,0.15,0.3,0.28,0.46,0.4c0.09,0.06,0.17,0.13,0.26,0.18c0.4,0.24,0.86,0.39,1.33,0.45c0.31,0.04,0.63,0.04,0.94,0
		c0.47-0.06,0.92-0.2,1.33-0.44c0.21,0.81,0.8,1.5,1.56,1.89c0.25,0.13,0.52,0.22,0.81,0.27c0.38,0.07,0.66,0.24,0.94,0.4
		c0.14,0.08,0.28,0.15,0.44,0.21c0.16,0.06,0.33,0.1,0.53,0.11c0.25,0.01,0.52-0.02,0.78-0.04c0.44-0.04,0.88-0.05,1.27,0.2
		c0.26,0.16,0.44,0.42,0.63,0.68s0.37,0.5,0.64,0.65c0.24,0.13,0.51,0.15,0.78,0.14c0.09,0,0.18-0.01,0.28-0.02
		c0.19-0.02,0.37-0.04,0.56-0.04s0.36,0.02,0.54,0.08c0.16,0.05,0.3,0.14,0.43,0.23c0.14,0.09,0.27,0.19,0.41,0.27
		c0.33,0.19,0.68,0.28,1.05,0.3c0.61,0.02,1.24-0.19,1.81-0.54c0.27-0.16,0.53-0.35,0.75-0.57c0.12-0.12,0.24-0.25,0.34-0.38
		c0.15,0.59,0.27,1.19,0.35,1.78c0.02,0.12,0.04,0.25,0.05,0.37c0.29,2.35,0.1,4.7-0.51,7.05H0v407h1920V674H1892z"/>
	<g>
		<path class="st2" d="M935.13,108.45c0-17.96-12.91-32.89-29.93-35.96c-5.82-12.41-18.38-20.99-32.94-20.99
			c-6.92,0-13.4,1.94-18.91,5.31c-5.51-3.37-11.98-5.31-18.91-5.31c-14.34,0-26.74,8.33-32.67,20.43
			c-19.64,0.53-35.4,16.67-35.4,36.52c0,19.77,15.63,35.86,35.16,36.51c5.84,12.36,18.37,20.91,32.9,20.91
			c6.63,0,12.84-1.79,18.2-4.9c5.35,3.11,11.57,4.9,18.2,4.9c14.66,0,27.29-8.71,33.06-21.26
			C921.55,142.1,935.13,126.87,935.13,108.45z"/>
		<path class="st3" d="M834.44,165.88c6.63,0,12.84-1.79,18.2-4.9c5.35,3.11,11.57,4.9,18.2,4.9c12.2,0,22.99-6.03,29.59-15.28
			c-25.67,22.15-48.03,2.47-48.03,2.47c-45.38,4.75-35.45-28.48-35.45-28.48c-27.77,11.34-49.36-7.3-49.54-7.45
			c3.79,15.6,17.55,27.27,34.12,27.83C807.37,157.32,819.91,165.88,834.44,165.88z"/>
		<path class="st3" d="M907,125.17L907,125.17c0.15,1.37,0.24,2.75,0.24,4.16c0,5.46-1.2,10.64-3.34,15.3
			c9.12-1.3,17.16-6,22.79-12.78C912.58,135.3,907,125.17,907,125.17z"/>
	</g>
	<g>
		<path class="st2" d="M473.13,92.45c0-17.96-12.91-32.89-29.93-35.96c-5.82-12.41-18.38-20.99-32.94-20.99
			c-6.92,0-13.4,1.94-18.91,5.31c-5.51-3.37-11.98-5.31-18.91-5.31c-14.34,0-26.74,8.33-32.67,20.43
			c-19.64,0.53-35.4,16.67-35.4,36.52c0,19.77,15.63,35.86,35.16,36.51c5.84,12.36,18.37,20.91,32.9,20.91
			c6.63,0,12.84-1.79,18.2-4.9c5.35,3.11,11.57,4.9,18.2,4.9c14.66,0,27.29-8.71,33.06-21.26
			C459.55,126.1,473.13,110.87,473.13,92.45z"/>
		<path class="st3" d="M372.44,149.88c6.63,0,12.84-1.79,18.2-4.9c5.35,3.11,11.57,4.9,18.2,4.9c12.2,0,22.99-6.03,29.59-15.28
			c-25.67,22.15-48.03,2.47-48.03,2.47c-45.38,4.75-35.45-28.48-35.45-28.48c-27.77,11.34-49.36-7.3-49.54-7.45
			c3.79,15.6,17.55,27.27,34.12,27.83C345.37,141.32,357.91,149.88,372.44,149.88z"/>
		<path class="st3" d="M445,109.17L445,109.17c0.15,1.37,0.24,2.75,0.24,4.16c0,5.46-1.2,10.64-3.34,15.3
			c9.12-1.3,17.16-6,22.79-12.78C450.58,119.3,445,109.17,445,109.17z"/>
	</g>
	<g>
		<path class="st2" d="M1875.83,242.53c0-12.15-8.74-22.25-20.25-24.32c-3.94-8.39-12.43-14.2-22.28-14.2
			c-4.68,0-9.06,1.31-12.79,3.59c-3.73-2.28-8.11-3.59-12.79-3.59c-9.7,0-18.09,5.64-22.1,13.82c-13.28,0.36-23.95,11.28-23.95,24.7
			c0,13.37,10.58,24.26,23.79,24.7c3.95,8.36,12.43,14.15,22.26,14.15c4.49,0,8.69-1.21,12.31-3.32c3.62,2.1,7.82,3.32,12.31,3.32
			c9.92,0,18.46-5.89,22.36-14.38C1866.65,265.29,1875.83,254.99,1875.83,242.53z"/>
		<path class="st3" d="M1807.72,281.38c4.49,0,8.69-1.21,12.31-3.32c3.62,2.1,7.82,3.32,12.31,3.32c8.25,0,15.55-4.08,20.02-10.34
			c-17.37,14.99-32.49,1.67-32.49,1.67c-30.7,3.21-23.98-19.26-23.98-19.26c-18.79,7.67-33.39-4.94-33.51-5.04
			c2.56,10.55,11.87,18.45,23.08,18.83C1789.41,275.59,1797.89,281.38,1807.72,281.38z"/>
		<path class="st3" d="M1856.8,253.84L1856.8,253.84c0.1,0.93,0.16,1.86,0.16,2.81c0,3.7-0.81,7.2-2.26,10.35
			c6.17-0.88,11.61-4.06,15.42-8.65C1860.58,260.69,1856.8,253.84,1856.8,253.84z"/>
	</g>
	<g>
		<path class="st2" d="M1647.06,41.24c-2.84,0-5.6,0.31-8.27,0.88c-6.69-12.28-19.7-20.62-34.66-20.62
			c-14.74,0-27.58,8.09-34.35,20.08c-1.67-0.22-3.37-0.34-5.1-0.34c-21.78,0-39.44,17.68-39.44,39.48s17.66,39.48,39.44,39.48
			c2.55,0,5.04-0.25,7.46-0.71c7.16,9.93,18.82,16.39,31.98,16.39c13.47,0,25.36-6.77,32.48-17.09c3.33,0.91,6.83,1.41,10.44,1.41
			c21.78,0,39.44-17.68,39.44-39.48S1668.84,41.24,1647.06,41.24z"/>
		<path class="st3" d="M1631.43,124.88c-52.82,15.64-56.3-31.97-56.3-31.97c-25.52,19.16-47.42-6.41-49.73-8.84
			c1.7,20.23,18.64,36.13,39.29,36.13c2.55,0,5.04-0.25,7.46-0.71c7.16,9.93,18.82,16.39,31.98,16.39
			C1614.73,135.88,1624.34,131.69,1631.43,124.88L1631.43,124.88z"/>
		<g>
			<path class="st3" d="M1636.72,118.82c3.3,0.89,6.76,1.38,10.34,1.38c8.54,0,16.44-2.73,22.9-7.35
				c-19.59,4.26-27.19-7.7-30.02-15.52C1641.51,107.95,1637.43,117.31,1636.72,118.82z"/>
		</g>
	</g>
	<g>
		<path class="st2" d="M1163.68,367.5c0-14.04-10.09-25.7-23.39-28.1c-4.55-9.69-14.36-16.41-25.74-16.41
			c-5.41,0-10.47,1.52-14.77,4.15c-4.31-2.63-9.36-4.15-14.77-4.15c-11.21,0-20.9,6.51-25.53,15.97
			c-15.34,0.42-27.66,13.03-27.66,28.54c0,15.45,12.22,28.02,27.48,28.53c4.56,9.66,14.36,16.34,25.71,16.34
			c5.18,0,10.04-1.4,14.22-3.83c4.18,2.43,9.04,3.83,14.22,3.83c11.46,0,21.33-6.81,25.83-16.61
			C1153.07,393.8,1163.68,381.9,1163.68,367.5z"/>
		<path class="st3" d="M1085.01,412.38c5.18,0,10.04-1.4,14.22-3.83c4.18,2.43,9.04,3.83,14.22,3.83c9.53,0,17.96-4.71,23.12-11.94
			c-20.06,17.31-37.53,1.93-37.53,1.93c-35.46,3.71-27.7-22.25-27.7-22.25c-21.7,8.86-38.57-5.71-38.71-5.82
			c2.96,12.19,13.71,21.31,26.67,21.75C1063.86,405.69,1073.65,412.38,1085.01,412.38z"/>
		<path class="st3" d="M1141.71,380.57L1141.71,380.57c0.12,1.07,0.18,2.15,0.18,3.25c0,4.27-0.94,8.32-2.61,11.95
			c7.13-1.02,13.41-4.69,17.81-9.99C1146.07,388.48,1141.71,380.57,1141.71,380.57z"/>
	</g>
	<g>
		<path class="st2" d="M418.05,332.15c-2.01,0-3.97,0.22-5.86,0.62c-4.74-8.7-13.96-14.61-24.55-14.61
			c-10.44,0-19.54,5.74-24.34,14.23c-1.18-0.15-2.39-0.24-3.61-0.24c-15.43,0-27.95,12.52-27.95,27.97s12.51,27.97,27.95,27.97
			c1.81,0,3.57-0.18,5.28-0.51c5.08,7.03,13.33,11.61,22.66,11.61c9.55,0,17.97-4.79,23.01-12.11c2.36,0.65,4.84,1,7.4,1
			c15.43,0,27.95-12.52,27.95-27.97S433.49,332.15,418.05,332.15z"/>
		<path class="st3" d="M406.98,391.42c-37.42,11.08-39.89-22.65-39.89-22.65c-18.08,13.57-33.6-4.54-35.24-6.26
			c1.21,14.34,13.2,25.6,27.84,25.6c1.81,0,3.57-0.18,5.28-0.51c5.08,7.03,13.33,11.61,22.66,11.61
			C395.15,399.21,401.96,396.24,406.98,391.42L406.98,391.42z"/>
		<g>
			<path class="st3" d="M410.73,387.12c2.33,0.63,4.79,0.98,7.32,0.98c6.05,0,11.65-1.93,16.23-5.21
				c-13.88,3.02-19.27-5.46-21.27-10.99C414.12,379.42,411.23,386.05,410.73,387.12z"/>
		</g>
	</g>
</g>
</svg>
