<?xml version="1.0" encoding="utf-8"?>
<!-- Generator: Adobe Illustrator 23.0.1, SVG Export Plug-In . SVG Version: 6.00 Build 0)  -->
<svg version="1.1" id="Layer_1" xmlns="http://www.w3.org/2000/svg" xmlns:xlink="http://www.w3.org/1999/xlink" x="0px" y="0px"
	 viewBox="0 0 1048 128" style="enable-background:new 0 0 1048 128;" xml:space="preserve">
<style type="text/css">
	.st0{fill:#FF9B0B;}
	.st1{fill:#FDCB30;}
	.st2{fill:#FFF053;}
	.st3{opacity:0.8;fill:#FDCB30;}
	.st4{opacity:0.4;fill:#FFFFFF;}
	.st5{fill:#FFFFFF;}
	.st6{fill:#FFAE0D;}
	.st7{fill:#FEE043;}
	.st8{fill:#FCB61C;}
	.st9{fill:#FF8203;}
	.st10{fill:#FCBA20;}
	.st11{fill:#FEDD41;}
	.st12{fill:#FBAF18;}
	.st13{fill:#FEE083;}
	.st14{fill:#FFF698;}
	.st15{opacity:0.7;fill:#FFFFFF;}
</style>
<g>
	<g>
		<path class="st0" d="M111,96c-8.84,0-16-7.16-16-16V48c0-8.84,7.16-16,16-16h32c8.84,0,16,7.16,16,16v32c0,8.84-7.16,16-16,16H111
			z"/>
		<path class="st1" d="M142.48,34h-30.97C103.5,34,97,40.5,97,48.52v30.97C97,87.5,103.5,94,111.52,94h30.97
			C150.5,94,157,87.5,157,79.48V48.52C157,40.5,150.5,34,142.48,34z"/>
		<path class="st2" d="M142.48,34h-30.97C103.5,34,97,40.5,97,48.52v30.97C97,87.5,103.5,94,111.52,94h30.97
			C150.5,94,157,87.5,157,79.48V48.52C157,40.5,150.5,34,142.48,34z M142.39,91h-30.77C105.2,91,100,85.8,100,79.39V48.61
			C100,42.2,105.2,37,111.61,37h30.77C148.8,37,154,42.2,154,48.61v30.77C154,85.8,148.8,91,142.39,91z"/>
		<path class="st2" d="M136,43h-19c-6.62,0-12,5.38-12,12v19c0,6.62,5.38,12,12,12h19c6.62,0,12-5.38,12-12V55
			C148,48.38,142.62,43,136,43z M145,74c0,4.97-4.03,9-9,9h-19c-4.97,0-9-4.03-9-9V55c0-4.97,4.03-9,9-9h19c4.97,0,9,4.03,9,9V74z"
			/>
		<path class="st3" d="M142.48,34H130L97,66.99v12.49c0,1.93,0.38,3.76,1.06,5.44l49.88-49.86C146.26,34.39,144.42,34,142.48,34z"/>
		<path class="st4" d="M111.52,94h15.97L157,64.76V48.52c0-0.17-0.02-0.33-0.02-0.49l-45.95,45.95C111.19,93.98,111.35,94,111.52,94
			z"/>
		<path class="st5" d="M97,48.52v5.66L117.79,34h-6.27C103.5,34,97,40.5,97,48.52z"/>
		<path class="st6" d="M108,74V55c0-4.97,4.03-9,9-9h19c4.97,0,9,4.03,9,9v19c0,4.97-4.03,9-9,9h-19C112.03,83,108,78.97,108,74z"/>
		<path class="st0" d="M136,46h-19c-4.97,0-9,4.03-9,9v19c0,4.97,4.03,9,9,9h19c4.97,0,9-4.03,9-9V55C145,50.03,140.97,46,136,46z
			 M143,74c0,3.86-3.14,7-7,7h-19c-3.86,0-7-3.14-7-7V55c0-3.86,3.14-7,7-7h19c3.86,0,7,3.14,7,7V74z"/>
		<path class="st0" d="M119,79c-3.86,0-7-3.14-7-7V57c0-3.86,3.14-7,7-7h15c3.86,0,7,3.14,7,7v15c0,3.86-3.14,7-7,7H119z"/>
		<path class="st1" d="M134,52h-15c-2.76,0-5,2.24-5,5v15c0,2.76,2.24,5,5,5h15c2.76,0,5-2.24,5-5V57C139,54.24,136.76,52,134,52z"
			/>
		<path class="st7" d="M134,52h-11.33c3.61,1.31,10.21,4.71,16.33,13.24V57C139,54.24,136.76,52,134,52z"/>
		<path class="st8" d="M119,77h11.33c-3.61-1.31-10.21-4.71-16.33-13.24V72C114,74.76,116.24,77,119,77z"/>
	</g>
	<g>
		<path class="st1" d="M179,81.03V46.97C179,38.7,185.7,32,193.97,32h27.07C229.3,32,236,38.7,236,46.97v34.07
			C236,89.3,229.3,96,221.03,96h-27.07C185.7,96,179,89.3,179,81.03z"/>
		<path class="st0" d="M180,81.03V46.97C180,38.7,186.7,32,194.97,32h26.07C229.3,32,236,38.7,236,46.97v34.07
			C236,89.3,229.3,96,221.03,96h-26.07C186.7,96,180,89.3,180,81.03z"/>
		<path class="st1" d="M221.36,34h-25.71C188.11,34,182,40.11,182,47.64v32.71c0,7.53,6.11,13.64,13.64,13.64h25.71
			c7.53,0,13.64-6.11,13.64-13.64V47.64C235,40.11,228.89,34,221.36,34z"/>
		<path class="st2" d="M214.63,43h-13.26C195.1,43,190,48.1,190,54.37v20.26C190,80.9,195.1,86,201.37,86h13.26
			C220.9,86,226,80.9,226,74.63V54.37C226,48.1,220.9,43,214.63,43z M224,74.63c0,4.62-3.75,8.37-8.37,8.37h-15.26
			c-4.62,0-8.37-3.75-8.37-8.37V54.37c0-4.62,3.75-8.37,8.37-8.37h15.26c4.62,0,8.37,3.75,8.37,8.37V74.63z"/>
		<path class="st2" d="M221.36,34h-25.71C188.11,34,182,40.11,182,47.64v32.71c0,7.53,6.11,13.64,13.64,13.64h25.71
			c7.53,0,13.64-6.11,13.64-13.64V47.64C235,40.11,228.89,34,221.36,34z M232,80.36c0,5.87-4.77,10.64-10.64,10.64h-25.71
			C189.77,91,185,86.23,185,80.36V47.64c0-5.87,4.77-10.64,10.64-10.64h25.71c5.87,0,10.64,4.77,10.64,10.64V80.36z"/>
		<path class="st5" d="M208,34h-12.36C188.11,34,182,40.11,182,47.64V60L208,34z"/>
		<polygon class="st4" points="214,94 235,73.26 235,56.5 197.5,94 		"/>
		<path class="st3" d="M221.36,34H221l-39,38.99v7.36c0,3.26,1.14,6.24,3.05,8.59l48.12-48.11C230.81,36.76,226.41,34,221.36,34z"/>
		<path class="st6" d="M192,74.63V54.37c0-4.62,3.75-8.37,8.37-8.37h15.26c4.62,0,8.37,3.75,8.37,8.37v20.26
			c0,4.62-3.75,8.37-8.37,8.37h-15.26C195.75,83,192,79.25,192,74.63z"/>
		<path class="st0" d="M223,74.63V54.37c0-4.62-3.75-8.37-8.37-8.37h-14.26c-4.62,0-8.37,3.75-8.37,8.37v20.26
			c0,4.62,3.75,8.37,8.37,8.37h14.26C219.25,83,223,79.25,223,74.63z M214.63,81h-15.26c-3.51,0-6.37-2.86-6.37-6.37V54.37
			c0-3.51,2.86-6.37,6.37-6.37h15.26c3.51,0,6.37,2.86,6.37,6.37v20.26C221,78.14,218.14,81,214.63,81z"/>
		<path class="st9" d="M215.63,46h-1c4.62,0,8.37,3.75,8.37,8.37v20.26c0,4.62-3.75,8.37-8.37,8.37h1c4.62,0,8.37-3.75,8.37-8.37
			V54.37C224,49.75,220.25,46,215.63,46z"/>
		<path class="st0" d="M195,72.44V56.56c0-3.62,2.94-6.56,6.56-6.56h11.88c3.62,0,6.56,2.94,6.56,6.56v15.88
			c0,3.62-2.94,6.56-6.56,6.56h-11.88C197.94,79,195,76.06,195,72.44z"/>
		<path class="st9" d="M214.31,52h-12.62c-2.59,0-4.69,2.1-4.69,4.69v15.62c0,2.59,2.1,4.69,4.69,4.69h12.62
			c2.59,0,4.69-2.1,4.69-4.69V56.69C219,54.1,216.9,52,214.31,52z"/>
		<path class="st1" d="M215.31,52h-12.62c-2.59,0-4.69,2.1-4.69,4.69v15.62c0,2.59,2.1,4.69,4.69,4.69h12.62
			c2.59,0,4.69-2.1,4.69-4.69V56.69C220,54.1,217.9,52,215.31,52z"/>
		<path class="st7" d="M215.63,52h-9.92c3.16,1.31,8.93,4.71,14.29,13.24V57C220,54.24,218.04,52,215.63,52z"/>
		<path class="st8" d="M202.38,77h9.92c-3.16-1.31-8.93-4.71-14.29-13.24V72C198,74.76,199.96,77,202.38,77z"/>
		<path class="st2" d="M194.97,32C186.7,32,180,38.7,180,46.97V48h-1v-1.03C179,38.7,185.7,32,193.97,32H194.97z"/>
		<path class="st10" d="M194.97,96h-1C185.7,96,179,89.3,179,81.03V80h1v1.03C180,89.3,186.7,96,194.97,96z"/>
		<rect x="179" y="66" class="st11" width="1" height="6"/>
		<path class="st12" d="M183,90h-1c2.73,3.64,7.07,6,11.97,6H194v-0.05C189.5,95.66,185.55,93.39,183,90z"/>
		<rect x="179" y="55" class="st13" width="1" height="4"/>
		<path class="st14" d="M188.62,33c-2.25,0.86-4.22,2.24-5.8,4h1c1.57-1.76,3.55-3.14,5.8-4H188.62z"/>
	</g>
	<g>
		<path class="st1" d="M256,82.41V45.59c0-7.5,6.08-13.59,13.59-13.59H292c7.73,0,14,6.27,14,14v36c0,7.73-6.27,14-14,14h-22.41
			C262.08,96,256,89.92,256,82.41z"/>
		<path class="st0" d="M258,82.14V45.86C258,38.2,264.2,32,271.86,32h20.29C299.8,32,306,38.2,306,45.86v36.29
			C306,89.8,299.8,96,292.14,96h-20.29C264.2,96,258,89.8,258,82.14z"/>
		<path class="st1" d="M292.43,34h-19.86C265.63,34,260,39.63,260,46.57v34.86c0,6.94,5.63,12.57,12.57,12.57h19.86
			c6.94,0,12.57-5.63,12.57-12.57V46.57C305,39.63,299.37,34,292.43,34z"/>
		<path class="st2" d="M292.43,34h-19.86C265.63,34,260,39.63,260,46.57v34.86c0,6.94,5.63,12.57,12.57,12.57h19.86
			c6.94,0,12.57-5.63,12.57-12.57V46.57C305,39.63,299.37,34,292.43,34z M303,81.43c0,5.28-4.29,9.57-9.57,9.57h-21.86
			c-5.28,0-9.57-4.29-9.57-9.57V46.57c0-5.28,4.29-9.57,9.57-9.57h21.86c5.28,0,9.57,4.29,9.57,9.57V81.43z"/>
		<path class="st2" d="M287.93,43h-11.87C270.51,43,266,47.51,266,53.07v22.87c0,5.56,4.51,10.07,10.07,10.07h11.87
			c5.56,0,10.07-4.51,10.07-10.07V53.07C298,47.51,293.49,43,287.93,43z M296,75.17c0,4.32-3.51,7.83-7.83,7.83h-12.34
			c-4.32,0-7.83-3.51-7.83-7.83V53.83c0-4.32,3.51-7.83,7.83-7.83h12.34c4.32,0,7.83,3.51,7.83,7.83V75.17z"/>
		<path class="st15" d="M292,34h-19.43C265.63,34,260,39.63,260,46.57V66L292,34z"/>
		<path class="st4" d="M281.5,94h10.93c6.94,0,12.57-5.63,12.57-12.57V70.5L281.5,94z"/>
		<path class="st3" d="M305,46.57c0-3.47-1.41-6.61-3.68-8.89L260,78.99v2.43c0,4.5,2.37,8.43,5.92,10.65L305,53.01V46.57z"/>
		<path class="st6" d="M268,75.17V53.83c0-4.32,3.51-7.83,7.83-7.83h12.34c4.32,0,7.83,3.51,7.83,7.83v21.34
			c0,4.32-3.51,7.83-7.83,7.83h-12.34C271.51,83,268,79.49,268,75.17z"/>
		<path class="st9" d="M288.17,46h-1c4.32,0,7.83,3.51,7.83,7.83v21.34c0,4.32-3.51,7.83-7.83,7.83h1c4.32,0,7.83-3.51,7.83-7.83
			V53.83C296,49.51,292.49,46,288.17,46z"/>
		<path class="st0" d="M287.46,46h-11.91c-4.17,0-7.54,3.38-7.54,7.54v21.91c0,4.17,3.38,7.54,7.54,7.54h11.91
			c4.17,0,7.54-3.38,7.54-7.54V53.54C295,49.38,291.62,46,287.46,46z M293,75.17c0,3.21-2.62,5.83-5.83,5.83h-12.34
			c-3.21,0-5.83-2.62-5.83-5.83V53.83c0-3.21,2.62-5.83,5.83-5.83h12.34c3.21,0,5.83,2.62,5.83,5.83V75.17z"/>
		<path class="st0" d="M271,72.78V56.22c0-3.43,2.78-6.22,6.22-6.22h9.56c3.43,0,6.22,2.78,6.22,6.22v16.56
			c0,3.43-2.78,6.22-6.22,6.22h-9.56C273.78,79,271,76.22,271,72.78z"/>
		<path class="st1" d="M288.64,52h-10.28c-2.41,0-4.36,1.95-4.36,4.36v16.28c0,2.41,1.95,4.36,4.36,4.36h10.28
			c2.41,0,4.36-1.95,4.36-4.36V56.36C293,53.95,291.05,52,288.64,52z"/>
		<path class="st7" d="M289.25,52h-8.5c2.71,1.31,7.66,4.71,12.25,13.24V57C293,54.24,291.32,52,289.25,52z"/>
		<path class="st8" d="M277.75,77h8.5c-2.71-1.31-7.66-4.71-12.25-13.24V72C274,74.76,275.68,77,277.75,77z"/>
		<path class="st9" d="M274,72.64V56.36c0-2.41,1.95-4.36,4.36-4.36h-1c-2.41,0-4.36,1.95-4.36,4.36v16.28
			c0,2.41,1.95,4.36,4.36,4.36h1C275.95,77,274,75.05,274,72.64z"/>
		<path class="st2" d="M271.86,32C264.2,32,258,38.2,258,45.86V48h-2v-2.41c0-7.51,6.08-13.59,13.59-13.59H271.86z"/>
		<path class="st10" d="M271.86,96h-2.27C262.08,96,256,89.92,256,82.41V80h2v2.14C258,89.8,264.2,96,271.86,96z"/>
		<rect x="256" y="66" class="st11" width="2" height="6"/>
		<path class="st12" d="M260.45,90h-2.13c2.44,3.62,6.58,6,11.28,6h2.27C267.12,96,262.95,93.62,260.45,90z"/>
		<rect x="256" y="55" class="st13" width="2" height="4"/>
		<path class="st14" d="M264.48,33c-2.13,0.86-3.99,2.25-5.42,4h2.14c1.46-1.76,3.35-3.14,5.5-4H264.48z"/>
	</g>
	<g>
		<path class="st1" d="M326,83.63V44.37c0-6.83,5.54-12.37,12.37-12.37H357c7.18,0,13,5.82,13,13v38c0,7.18-5.82,13-13,13h-18.63
			C331.54,96,326,90.46,326,83.63z"/>
		<path class="st0" d="M330,83.35v-38.7c0-6.99,5.66-12.65,12.65-12.65h14.7c6.99,0,12.65,5.66,12.65,12.65v38.7
			c0,6.99-5.66,12.65-12.65,12.65h-14.7C335.66,96,330,90.34,330,83.35z"/>
		<path class="st1" d="M358.45,34h-14.9C337.17,34,332,39.17,332,45.55v36.9c0,6.38,5.17,11.55,11.55,11.55h14.9
			c6.38,0,11.55-5.17,11.55-11.55v-36.9C370,39.17,364.83,34,358.45,34z"/>
		<path class="st2" d="M358.45,34h-14.9C337.17,34,332,39.17,332,45.55v36.9c0,6.38,5.17,11.55,11.55,11.55h14.9
			c6.38,0,11.55-5.17,11.55-11.55v-36.9C370,39.17,364.83,34,358.45,34z M368,82.18c0,4.87-3.95,8.82-8.82,8.82h-16.37
			c-4.87,0-8.82-3.95-8.82-8.82V45.82c0-4.87,3.95-8.82,8.82-8.82h16.37c4.87,0,8.82,3.95,8.82,8.82V82.18z"/>
		<path class="st6" d="M340,76.06V52.94c0-3.83,3.11-6.94,6.94-6.94h8.12c3.83,0,6.94,3.11,6.94,6.94v23.12
			c0,3.83-3.11,6.94-6.94,6.94h-8.12C343.11,83,340,79.89,340,76.06z"/>
		<path class="st2" d="M354.44,43h-6.88c-5.28,0-9.56,4.28-9.56,9.56v23.88c0,5.28,4.28,9.56,9.56,9.56h6.88
			c5.28,0,9.56-4.28,9.56-9.56V52.56C364,47.28,359.72,43,354.44,43z M362,76.06c0,3.83-3.11,6.94-6.94,6.94h-8.12
			c-3.83,0-6.94-3.11-6.94-6.94V52.94c0-3.83,3.11-6.94,6.94-6.94h8.12c3.83,0,6.94,3.11,6.94,6.94V76.06z"/>
		<path class="st5" d="M365.55,36.45c-1.96-1.53-4.42-2.45-7.1-2.45h-14.9C337.17,34,332,39.17,332,45.55V70L365.55,36.45z"/>
		<path class="st4" d="M357.5,94h0.95c6.38,0,11.55-5.17,11.55-11.55V81.5L357.5,94z"/>
		<path class="st3" d="M370,45.55c0-0.18-0.02-0.35-0.03-0.52l-37.95,37.94c0.23,5.07,3.71,9.28,8.41,10.59L370,64.01V45.55z"/>
		<path class="st6" d="M340,76.06V52.94c0-3.83,3.11-6.94,6.94-6.94h8.12c3.83,0,6.94,3.11,6.94,6.94v23.12
			c0,3.83-3.11,6.94-6.94,6.94h-8.12C343.11,83,340,79.89,340,76.06z"/>
		<path class="st0" d="M360,76.06V52.94c0-3.83-3.11-6.94-6.94-6.94h-6.12c-2.23,0-4.21,1.06-5.48,2.69
			c0.73-0.43,1.57-0.69,2.48-0.69h9.12c2.72,0,4.94,2.22,4.94,4.94v23.12c0,2.72-2.22,4.94-4.94,4.94h-9.12
			c-0.91,0-1.75-0.26-2.48-0.69c1.27,1.64,3.25,2.69,5.48,2.69h6.12C356.89,83,360,79.89,360,76.06z"/>
		<path class="st9" d="M362,52.96c0-3.85-3.12-6.96-6.96-6.96h-2c3.85,0,6.96,3.12,6.96,6.96v23.07c0,3.85-3.12,6.96-6.96,6.96h2
			c3.85,0,6.96-3.12,6.96-6.96V52.96z"/>
		<path class="st0" d="M341,73.29V55.71c0-3.15,2.55-5.71,5.71-5.71h6.59c3.15,0,5.71,2.56,5.71,5.71v17.59
			c0,3.15-2.55,5.71-5.71,5.71h-6.59C343.55,79,341,76.44,341,73.29z"/>
		<path class="st1" d="M356.13,52h-7.25c-2.14,0-3.87,1.73-3.87,3.87v17.25c0,2.14,1.73,3.87,3.87,3.87h7.25
			c2.14,0,3.87-1.73,3.87-3.87V55.87C360,53.73,358.27,52,356.13,52z"/>
		<path class="st9" d="M345,73.07V55.93c0-2.17,1.76-3.93,3.93-3.93h-2c-2.17,0-3.93,1.76-3.93,3.93v17.15
			c0,2.17,1.76,3.93,3.93,3.93h2C346.76,77,345,75.24,345,73.07z"/>
		<path class="st7" d="M356.13,52h-6.32c3.45,2,7.3,6,10.19,12.97v-9.1C360,53.73,358.27,52,356.13,52z"/>
		<path class="st8" d="M345,64.03v9.1c0,2.14,1.73,3.87,3.87,3.87h6.32C351.74,75,346.93,70,345,64.03z"/>
		<path class="st2" d="M342.65,32C335.66,32,330,37.66,330,44.65V48h-4v-3.63c0-6.83,5.54-12.37,12.37-12.37H342.65z"/>
		<path class="st10" d="M342.65,96h-4.28C331.54,96,326,90.46,326,83.63V80h4v3.35C330,90.34,335.66,96,342.65,96z"/>
		<rect x="326" y="66" class="st11" width="4" height="6"/>
		<path class="st12" d="M331.9,90h-4.12c2.17,3.59,6.09,6,10.59,6h4.28C338.1,96,334.13,93.6,331.9,90z"/>
		<rect x="326" y="55" class="st13" width="4" height="4"/>
		<path class="st14" d="M333.5,33c-2.02,0.87-3.75,2.26-5.05,4h4.14c1.32-1.74,3.08-3.13,5.12-4H333.5z"/>
	</g>
	<g>
		<path class="st1" d="M390,84.97V43.03c0-6.09,4.94-11.03,11.03-11.03H416c6.63,0,12,5.37,12,12v40c0,6.63-5.37,12-12,12h-14.97
			C394.94,96,390,91.06,390,84.97z"/>
		<path class="st0" d="M396,84.69V43.31c0-6.25,5.07-11.31,11.31-11.31h9.37c6.25,0,11.31,5.07,11.31,11.31v41.37
			c0,6.25-5.07,11.31-11.31,11.31h-9.37C401.07,96,396,90.93,396,84.69z"/>
		<path class="st1" d="M417.74,34h-9.47C402.6,34,398,38.6,398,44.26v39.47C398,89.4,402.6,94,408.26,94h9.47
			C423.4,94,428,89.4,428,83.74V44.26C428,38.6,423.4,34,417.74,34z"/>
		<path class="st1" d="M417.74,34h-9.47C402.6,34,398,38.6,398,44.26v39.47C398,89.4,402.6,94,408.26,94h9.47
			C423.4,94,428,89.4,428,83.74V44.26C428,38.6,423.4,34,417.74,34z"/>
		<path class="st2" d="M416,43h-6c-3.87,0-7,3.13-7,7v29c0,3.87,3.13,7,7,7h6c3.87,0,7-3.13,7-7V50C423,46.13,419.87,43,416,43z
			 M422,76.72c0,3.47-2.81,6.28-6.28,6.28h-5.45c-3.47,0-6.28-2.81-6.28-6.28V52.28c0-3.47,2.81-6.28,6.28-6.28h5.45
			c3.47,0,6.28,2.81,6.28,6.28V76.72z"/>
		<path class="st2" d="M417.74,34h-9.47C402.6,34,398,38.6,398,44.26v39.47C398,89.4,402.6,94,408.26,94h9.47
			C423.4,94,428,89.4,428,83.74V44.26C428,38.6,423.4,34,417.74,34z M426,83.44c0,4.18-3.39,7.56-7.56,7.56h-10.88
			c-4.18,0-7.56-3.39-7.56-7.56V44.56c0-4.18,3.39-7.56,7.56-7.56h10.88c4.18,0,7.56,3.39,7.56,7.56V83.44z"/>
		<path class="st5" d="M398,80l30-30v-5.74C428,38.6,423.4,34,417.74,34h-2.74L398,50.99V80z"/>
		<path class="st3" d="M408.26,94H416l12-12V63l-27.47,27.47C402.41,92.63,405.17,94,408.26,94z"/>
		<path class="st6" d="M404,76.72V52.28c0-3.47,2.81-6.28,6.28-6.28h5.45c3.47,0,6.28,2.81,6.28,6.28v24.45
			c0,3.47-2.81,6.28-6.28,6.28h-5.45C406.81,83,404,80.19,404,76.72z"/>
		<path class="st0" d="M420,76.72V52.28c0-3.47-2.81-6.28-6.28-6.28h-3.45c-1.84,0-3.5,0.8-4.64,2.07c0.21-0.03,0.42-0.07,0.64-0.07
			h7.45c2.36,0,4.28,1.92,4.28,4.28v24.45c0,2.36-1.92,4.28-4.28,4.28h-7.45c-0.22,0-0.43-0.03-0.64-0.07
			c1.15,1.27,2.8,2.07,4.64,2.07h3.45C417.19,83,420,80.19,420,76.72z"/>
		<path class="st9" d="M415.72,46h-2c3.47,0,6.28,2.81,6.28,6.28v24.45c0,3.47-2.81,6.28-6.28,6.28h2c3.47,0,6.28-2.81,6.28-6.28
			V52.28C422,48.81,419.19,46,415.72,46z"/>
		<path class="st0" d="M404,73.89V55.11c0-2.82,2.29-5.11,5.11-5.11h3.78c2.82,0,5.11,2.29,5.11,5.11v18.78
			c0,2.82-2.29,5.11-5.11,5.11h-3.78C406.29,79,404,76.71,404,73.89z"/>
		<path class="st1" d="M416.54,52h-5.07c-1.91,0-3.46,1.55-3.46,3.46v18.07c0,1.91,1.55,3.46,3.46,3.46h5.07
			c1.91,0,3.46-1.55,3.46-3.46V55.46C420,53.55,418.45,52,416.54,52z"/>
		<path class="st7" d="M416.54,52h-4.7c1.81,1.31,5.1,4.71,8.17,13.24v-9.78C420,53.55,418.45,52,416.54,52z"/>
		<path class="st8" d="M408,63.76v9.78c0,1.91,1.55,3.46,3.46,3.46h4.7C414.36,75.69,411.06,72.29,408,63.76z"/>
		<path class="st9" d="M408,73.54V55.46c0-1.91,1.55-3.46,3.46-3.46h-2c-1.91,0-3.46,1.55-3.46,3.46v18.07
			c0,1.91,1.55,3.46,3.46,3.46h2C409.55,77,408,75.45,408,73.54z"/>
		<path class="st2" d="M407.31,32C401.07,32,396,37.07,396,43.31V48h-6v-4.97c0-6.09,4.94-11.03,11.03-11.03H407.31z"/>
		<path class="st10" d="M407.31,96h-6.28C394.94,96,390,91.06,390,84.97V80h6v4.69C396,90.93,401.07,96,407.31,96z"/>
		<rect x="390" y="66" class="st11" width="6" height="6"/>
		<path class="st12" d="M401.03,96h6.28c-4.32,0-8.08-2.43-9.98-6h-6.11C393.05,93.56,396.75,96,401.03,96z"/>
		<rect x="390" y="55" class="st13" width="6" height="4"/>
		<path class="st14" d="M396.46,33c-1.91,0.87-3.52,2.26-4.66,4h6.13c1.17-1.74,2.82-3.13,4.75-4H396.46z"/>
	</g>
	<g>
		<path class="st1" d="M448,86.49V41.51c0-5.25,4.26-9.51,9.51-9.51H470c5.52,0,10,4.48,10,10v44c0,5.52-4.48,10-10,10h-12.49
			C452.26,96,448,91.74,448,86.49z"/>
		<path class="st1" d="M448,86.49V41.51c0-5.25,4.26-9.51,9.51-9.51H470c5.52,0,10,4.48,10,10v44c0,5.52-4.48,10-10,10h-12.49
			C452.26,96,448,91.74,448,86.49z"/>
		<path class="st0" d="M456,86.2V41.8c0-5.41,4.39-9.8,9.8-9.8h4.4c5.41,0,9.8,4.39,9.8,9.8v44.4c0,5.41-4.39,9.8-9.8,9.8h-4.4
			C460.39,96,456,91.61,456,86.2z"/>
		<path class="st1" d="M471.21,34h-4.42c-4.85,0-8.79,3.94-8.79,8.79v42.42c0,4.85,3.94,8.79,8.79,8.79h4.42
			c4.85,0,8.79-3.94,8.79-8.79V42.79C480,37.94,476.06,34,471.21,34z"/>
		<path class="st2" d="M471,43h-4c-3.31,0-6,2.69-6,6v31c0,3.31,2.69,6,6,6h4c3.31,0,6-2.69,6-6V49C477,45.69,474.31,43,471,43z
			 M476,77.46c0,3.06-2.48,5.54-5.54,5.54h-2.93c-3.06,0-5.54-2.48-5.54-5.54V51.54c0-3.06,2.48-5.54,5.54-5.54h2.93
			c3.06,0,5.54,2.48,5.54,5.54V77.46z"/>
		<path class="st2" d="M471.21,34h-4.42c-4.85,0-8.79,3.94-8.79,8.79v42.42c0,4.85,3.94,8.79,8.79,8.79h4.42
			c4.85,0,8.79-3.94,8.79-8.79V42.79C480,37.94,476.06,34,471.21,34z M479,84.53c0,3.58-2.9,6.47-6.47,6.47h-7.05
			c-3.58,0-6.47-2.9-6.47-6.47V43.47c0-3.58,2.9-6.47,6.47-6.47h7.05c3.58,0,6.47,2.9,6.47,6.47V84.53z"/>
		<path class="st5" d="M458,84l22-22V42.79c0-2.68-1.21-5.08-3.1-6.69L458,54.99V84z"/>
		<path class="st3" d="M480,75l-17.74,17.73c1.32,0.8,2.87,1.27,4.53,1.27h4.42c4.85,0,8.79-3.94,8.79-8.79V75z"/>
		<path class="st6" d="M462,77.46V51.54c0-3.06,2.48-5.54,5.54-5.54h2.93c3.06,0,5.54,2.48,5.54,5.54v25.93
			c0,3.06-2.48,5.54-5.54,5.54h-2.93C464.48,83,462,80.52,462,77.46z"/>
		<path class="st0" d="M474,77.46V51.54c0-3.06-2.48-5.54-5.54-5.54h-0.93c-1.71,0-3.24,0.78-4.26,2h5.19
			c1.95,0,3.54,1.59,3.54,3.54v25.93c0,1.95-1.59,3.54-3.54,3.54h-5.19c1.02,1.22,2.55,2,4.26,2h0.93C471.52,83,474,80.52,474,77.46
			z"/>
		<path class="st9" d="M470.46,46h-2c3.06,0,5.54,2.48,5.54,5.54v25.93c0,3.06-2.48,5.54-5.54,5.54h2c3.06,0,5.54-2.48,5.54-5.54
			V51.54C476,48.48,473.52,46,470.46,46z"/>
		<path class="st0" d="M467.4,50h-1.8c-1.47,0-2.76,0.7-3.6,1.77v25.46c0.84,1.07,2.13,1.77,3.6,1.77h1.8c2.54,0,4.6-2.06,4.6-4.6
			V54.6C472,52.06,469.94,50,467.4,50z"/>
		<path class="st1" d="M472,52h-3c-1.66,0-3,1.34-3,3v19c0,1.66,1.34,3,3,3h3c1.66,0,3-1.34,3-3V55C475,53.34,473.66,52,472,52z"/>
		<path class="st9" d="M466,74V55c0-1.66,1.34-3,3-3h-2c-1.66,0-3,1.34-3,3v19c0,1.66,1.34,3,3,3h2C467.34,77,466,75.66,466,74z"/>
		<path class="st7" d="M472,52h-3c-0.04,0-0.08,0.01-0.11,0.01C470.24,53.33,474,57,475,65.24V55C475,53.34,473.66,52,472,52z"/>
		<path class="st8" d="M469,77h3c0.04,0,0.08-0.01,0.11-0.01C470.76,75.67,468,74,466,63.76V74C466,75.66,467.34,77,469,77z"/>
		<path class="st2" d="M465.8,32c-5.41,0-9.8,4.39-9.8,9.8V48h-8v-6.49c0-5.25,4.26-9.51,9.51-9.51H465.8z"/>
		<path class="st2" d="M465.8,32c-5.41,0-9.8,4.39-9.8,9.8V48h-8v-6.49c0-5.25,4.26-9.51,9.51-9.51H465.8z"/>
		<path class="st10" d="M465.8,96h-8.29c-5.25,0-9.51-4.26-9.51-9.51V80h8v6.2C456,91.61,460.39,96,465.8,96z"/>
		<rect x="448" y="66" class="st11" width="8" height="6"/>
		<path class="st12" d="M457.51,96h8.29c-4.06,0-7.55-2.48-9.03-6h-8.09C450.08,93.51,453.5,96,457.51,96z"/>
		<rect x="448" y="55" class="st13" width="8" height="4"/>
		<path class="st14" d="M453.29,33c-1.76,0.88-3.22,2.27-4.15,4h8.12c0.97-1.73,2.46-3.13,4.25-4H453.29z"/>
	</g>
	<g>
		<path class="st0" d="M500,86.88V41.12c0-4.48,3.63-8.12,8.12-8.12h10.77c4.48,0,8.12,3.63,8.12,8.12v45.77
			c0,4.48-3.63,8.12-8.12,8.12h-10.77C503.63,95,500,91.37,500,86.88z"/>
		<path class="st1" d="M501,87.75V40.25c0-4.55,3.69-8.25,8.25-8.25h10.51c4.55,0,8.25,3.69,8.25,8.25v47.51
			c0,4.55-3.69,8.25-8.25,8.25h-10.51C504.69,96,501,92.31,501,87.75z"/>
		<path class="st1" d="M501,87.75V40.25c0-4.55,3.69-8.25,8.25-8.25h10.51c4.55,0,8.25,3.69,8.25,8.25v47.51
			c0,4.55-3.69,8.25-8.25,8.25h-10.51C504.69,96,501,92.31,501,87.75z"/>
		<path class="st0" d="M511,87.75V40.25c0-4.55,3.69-8.25,8.25-8.25h0.51c4.55,0,8.25,3.69,8.25,8.25v47.51
			c0,4.55-3.69,8.25-8.25,8.25h-0.51C514.69,96,511,92.31,511,87.75z"/>
		<path class="st1" d="M521.5,34h-1.01c-4.14,0-7.5,3.36-7.5,7.5V86.5c0,4.14,3.36,7.5,7.5,7.5h1.01c4.14,0,7.5-3.36,7.5-7.5V41.5
			C529,37.36,525.64,34,521.5,34z"/>
		<path class="st2" d="M521.5,34h-1.01c-4.14,0-7.5,3.36-7.5,7.5V86.5c0,4.14,3.36,7.5,7.5,7.5h1.01c4.14,0,7.5-3.36,7.5-7.5V41.5
			C529,37.36,525.64,34,521.5,34z M528,85.68c0,2.94-2.38,5.32-5.32,5.32h-3.36c-2.94,0-5.32-2.38-5.32-5.32V42.32
			c0-2.94,2.38-5.32,5.32-5.32h3.36c2.94,0,5.32,2.38,5.32,5.32V85.68z"/>
		<path class="st2" d="M516,81V48c0-2.76,2.24-5,5-5h1c2.76,0,5,2.24,5,5v33c0,2.76-2.24,5-5,5h-1C518.24,86,516,83.76,516,81z"/>
		<path class="st5" d="M529,46.99l-16,16V86.5c0,1.56,0.48,3.01,1.29,4.21L529,76V46.99z"/>
		<path class="st6" d="M517,78.56V50.44c0-2.45,1.99-4.44,4.44-4.44h0.12c2.45,0,4.44,1.99,4.44,4.44v28.12
			c0,2.45-1.99,4.44-4.44,4.44h-0.12C518.99,83,517,81.01,517,78.56z"/>
		<path class="st0" d="M520.5,46.1c-1.15,0.25-2.14,0.94-2.77,1.9h1.83c1.34,0,2.44,1.09,2.44,2.44v28.12
			c0,1.34-1.09,2.44-2.44,2.44h-1.83c0.63,0.95,1.61,1.65,2.77,1.9c2-0.43,3.5-2.21,3.5-4.33V50.44
			C524,48.31,522.5,46.54,520.5,46.1z"/>
		<path class="st9" d="M521.56,46h-0.12c-0.32,0-0.64,0.04-0.94,0.1c2,0.43,3.5,2.21,3.5,4.33v28.12c0,2.13-1.5,3.9-3.5,4.33
			c0.3,0.07,0.62,0.1,0.94,0.1h0.12c2.45,0,4.44-1.99,4.44-4.44V50.44C526,47.99,524.01,46,521.56,46z"/>
		<path class="st0" d="M517.55,50h-0.1c-0.14,0-0.27,0.02-0.41,0.04c-0.01,0.13-0.04,0.26-0.04,0.4v28.12c0,0.14,0.03,0.27,0.04,0.4
			c0.14,0.01,0.27,0.04,0.41,0.04h0.1c2.45,0,4.45-2,4.45-4.45v-20.1C522,52,520,50,517.55,50z"/>
		<path class="st9" d="M520.55,52H520h-0.55c-1.35,0-2.45,1.1-2.45,2.45v20.1c0,1.35,1.1,2.45,2.45,2.45H520h0.55H522V52H520.55z"/>
		<path class="st1" d="M522.55,52h-1.1c-1.35,0-2.45,1.1-2.45,2.45v20.1c0,1.35,1.1,2.45,2.45,2.45h1.1c1.35,0,2.45-1.1,2.45-2.45
			v-20.1C525,53.1,523.9,52,522.55,52z"/>
		<path class="st7" d="M522.55,52h-1.1c-0.17,0-0.34,0.02-0.5,0.05C521.86,53.39,525,57,525,65.24V54.45
			C525,53.1,523.9,52,522.55,52z"/>
		<path class="st8" d="M519,63.76v10.79c0,1.35,1.1,2.45,2.45,2.45h1.1c0.17,0,0.34-0.02,0.5-0.05C521,75,520,73,519,63.76z"/>
		<path class="st10" d="M519.25,96h-10c-4.56,0-8.25-3.69-8.25-8.25V80h10v7.75C511,92.31,514.69,96,519.25,96z"/>
		<path class="st12" d="M519.25,96h-10c-3.78,0-6.95-2.54-7.93-6h9.99C512.29,93.47,515.47,96,519.25,96z"/>
		<path class="st2" d="M509.25,32h10c-4.56,0-8.25,3.69-8.25,8.25V48h-10v-7.75C501,35.69,504.69,32,509.25,32z"/>
		<rect x="501" y="66" class="st11" width="10" height="6"/>
		<rect x="501" y="55" class="st13" width="10" height="4"/>
		<path class="st14" d="M505.31,33c-1.62,0.88-2.91,2.29-3.64,4h10c0.73-1.71,2.02-3.12,3.64-4H505.31z"/>
	</g>
	<g>
		<path class="st0" d="M549,90.08V37.92c0-3.82,2.18-5.92,6-5.92h6.08c3.82,0,6.92,3.1,6.92,6.92v50.17c0,3.82-3.1,6.92-6.92,6.92
			H555C551.18,96,549,93.9,549,90.08z"/>
		<path class="st1" d="M550,92.26V35.74c0-2.07,1.68-3.74,3.74-3.74h13.52c2.07,0,4.74,3.93,4.74,6v52c0,2.07-2.68,6-4.74,6h-13.52
			C551.68,96,550,94.32,550,92.26z"/>
		<path class="st0" d="M562,92.26V35.74c0-2.07,1.68-3.74,3.74-3.74h1.52c2.07,0,4.74,3.93,4.74,6v52c0,2.07-2.68,6-4.74,6h-1.52
			C563.68,96,562,94.32,562,92.26z"/>
		<path class="st1" d="M568.38,34h-0.75c-2,0-3.62,1.62-3.62,3.62v52.75c0,2,1.62,3.62,3.62,3.62h0.75c2,0,3.62-1.62,3.62-3.62
			V37.62C572,35.62,570.38,34,568.38,34z"/>
		<path class="st1" d="M568.38,34h-0.75c-2,0-3.62,1.62-3.62,3.62v52.75c0,2,1.62,3.62,3.62,3.62h0.75c2,0,3.62-1.62,3.62-3.62
			V37.62C572,35.62,570.38,34,568.38,34z"/>
		<path class="st2" d="M568.38,34h-0.75c-2,0-3.62,1.62-3.62,3.62v52.75c0,2,1.62,3.62,3.62,3.62h0.75c2,0,3.62-1.62,3.62-3.62V82.5
			v-36v-8.88C572,35.62,570.38,34,568.38,34z M571,88c0,1.66-1.34,3-3,3s-3-1.34-3-3v-5.5c0,1.93,1.57,3.5,3.5,3.5
			c0.98,0,1.86-0.41,2.5-1.06V88z M566,80.75v-32.5c0-1.24,1.01-2.25,2.25-2.25h0.5c1.24,0,2.25,1.01,2.25,2.25v32.5
			c0,1.24-1.01,2.25-2.25,2.25h-0.5C567.01,83,566,81.99,566,80.75z M568.5,43c-1.93,0-3.5,1.57-3.5,3.5V40c0-1.66,1.34-3,3-3
			s3,1.34,3,3v4.06C570.36,43.41,569.48,43,568.5,43z"/>
		<path class="st5" d="M567.62,94h0.75c2,0,3.62-1.62,3.62-3.62V73.99l-8,8v8.38C564,92.38,565.62,94,567.62,94z"/>
		<path class="st6" d="M566,80.75v-32.5c0-1.24,1.01-2.25,2.25-2.25h0.5c1.24,0,2.25,1.01,2.25,2.25v32.5
			c0,1.24-1.01,2.25-2.25,2.25h-0.5C567.01,83,566,81.99,566,80.75z"/>
		<path class="st9" d="M568,75.57V53.43c0-0.74,0.56-1.34,1.28-1.42c-0.04,0-0.09-0.02-0.13-0.02h-1.3c-1.02,0-1.85,0.83-1.85,1.85
			v21.3c0,1.02,0.83,1.85,1.85,1.85h1.3c0.05,0,0.09-0.01,0.14-0.01C568.57,76.91,568,76.31,568,75.57z"/>
		<path class="st9" d="M568.75,46h-0.5c-0.26,0-0.51,0.05-0.75,0.14c0.87,0.31,1.5,1.13,1.5,2.11v32.5c0,0.98-0.63,1.8-1.5,2.11
			c0.24,0.08,0.49,0.14,0.75,0.14h0.5c1.24,0,2.25-1.01,2.25-2.25v-32.5C571,47.01,569.99,46,568.75,46z"/>
		<path class="st1" d="M569.57,52h-0.14c-0.79,0-1.43,0.64-1.43,1.43v22.14c0,0.79,0.64,1.43,1.43,1.43h0.14
			c0.79,0,1.43-0.64,1.43-1.43V53.43C571,52.64,570.36,52,569.57,52z"/>
		<path class="st7" d="M569.57,52h-0.14c-0.16,0-0.31,0.03-0.45,0.08c0.46,1.36,1.26,4.79,2.02,13.16V53.43
			C571,52.64,570.36,52,569.57,52z"/>
		<path class="st8" d="M569.43,77h0.14c0.16,0,0.31-0.03,0.45-0.08c-0.46-1.36-1.26-4.79-2.02-13.16v11.81
			C568,76.36,568.64,77,569.43,77z"/>
		<path class="st2" d="M562,35.74c0-2.07,1.68-3.74,3.74-3.74h-12c-2.07,0-3.74,1.68-3.74,3.74V48h12V35.74z"/>
		<path class="st10" d="M562,92.26V80h-12v12.26c0,2.07,1.68,3.74,3.74,3.74h12C563.68,96,562,94.32,562,92.26z"/>
		<path class="st14" d="M551.21,33c-0.74,0.68-1.21,1.65-1.21,2.74V37h12v-1.26c0-1.09,0.47-2.06,1.21-2.74H551.21z"/>
		<path class="st12" d="M550,90v2.26c0,2.07,1.68,3.74,3.74,3.74h12c-2.07,0-3.74-1.68-3.74-3.74V90H550z"/>
		<rect x="550" y="66" class="st11" width="12" height="6"/>
		<rect x="550" y="55" class="st13" width="12" height="4"/>
	</g>
	<g>
		<path class="st1" d="M1021,81.03V46.97c0-8.27-6.7-14.97-14.97-14.97h-27.07C970.7,32,964,38.7,964,46.97v34.07
			C964,89.3,970.7,96,978.97,96h27.07C1014.3,96,1021,89.3,1021,81.03z"/>
		<path class="st0" d="M1020,81.03V46.97c0-8.27-6.7-14.97-14.97-14.97h-26.07C970.7,32,964,38.7,964,46.97v34.07
			C964,89.3,970.7,96,978.97,96h26.07C1013.3,96,1020,89.3,1020,81.03z"/>
		<path class="st1" d="M978.64,34h25.71c7.53,0,13.64,6.11,13.64,13.64v32.71c0,7.53-6.11,13.64-13.64,13.64h-25.71
			C971.11,94,965,87.89,965,80.36V47.64C965,40.11,971.11,34,978.64,34z"/>
		<path class="st2" d="M974,54.37v20.26C974,80.9,979.1,86,985.37,86h13.26c6.27,0,11.37-5.1,11.37-11.37V54.37
			c0-6.27-5.1-11.37-11.37-11.37h-13.26C979.1,43,974,48.1,974,54.37z M976,54.37c0-4.62,3.75-8.37,8.37-8.37h15.26
			c4.62,0,8.37,3.75,8.37,8.37v20.26c0,4.62-3.75,8.37-8.37,8.37h-15.26c-4.62,0-8.37-3.75-8.37-8.37V54.37z"/>
		<path class="st2" d="M965,47.64v32.71c0,7.53,6.11,13.64,13.64,13.64h25.71c7.53,0,13.64-6.11,13.64-13.64V47.64
			c0-7.53-6.11-13.64-13.64-13.64h-25.71C971.11,34,965,40.11,965,47.64z M968,47.64c0-5.87,4.77-10.64,10.64-10.64h25.71
			c5.87,0,10.64,4.77,10.64,10.64v32.71c0,5.87-4.77,10.64-10.64,10.64h-25.71C972.77,91,968,86.23,968,80.36V47.64z"/>
		<path class="st3" d="M1008.4,34.61L965,77.99v-19L990,34h14.36C1005.77,34,1007.13,34.21,1008.4,34.61z"/>
		<path class="st4" d="M1018,47.64c0-0.21-0.02-0.41-0.03-0.61l-45.49,45.49c1.85,0.94,3.94,1.48,6.16,1.48h8.93L1018,63.75V47.64z"
			/>
		<path class="st5" d="M977.66,34.04l-12.59,12.21C965.74,39.69,971.05,34.51,977.66,34.04z"/>
		<path class="st6" d="M1008,74.63V54.37c0-4.62-3.75-8.37-8.37-8.37h-15.26c-4.62,0-8.37,3.75-8.37,8.37v20.26
			c0,4.62,3.75,8.37,8.37,8.37h15.26C1004.25,83,1008,79.25,1008,74.63z"/>
		<path class="st0" d="M985.37,83h14.26c4.62,0,8.37-3.75,8.37-8.37V54.37c0-4.62-3.75-8.37-8.37-8.37h-14.26
			c-4.62,0-8.37,3.75-8.37,8.37v20.26C977,79.25,980.75,83,985.37,83z M979,74.63V54.37c0-3.51,2.86-6.37,6.37-6.37h15.26
			c3.51,0,6.37,2.86,6.37,6.37v20.26c0,3.51-2.86,6.37-6.37,6.37h-15.26C981.86,81,979,78.14,979,74.63z"/>
		<path class="st9" d="M984.37,46h1c-4.62,0-8.37,3.75-8.37,8.37v20.26c0,4.62,3.75,8.37,8.37,8.37h-1c-4.62,0-8.37-3.75-8.37-8.37
			V54.37C976,49.75,979.75,46,984.37,46z"/>
		<path class="st0" d="M1005,72.44V56.56c0-3.62-2.94-6.56-6.56-6.56h-11.88c-3.62,0-6.56,2.94-6.56,6.56v15.88
			c0,3.62,2.94,6.56,6.56,6.56h11.88C1002.06,79,1005,76.06,1005,72.44z"/>
		<path class="st9" d="M985.69,52h12.62c2.59,0,4.69,2.1,4.69,4.69v15.62c0,2.59-2.1,4.69-4.69,4.69h-12.62
			c-2.59,0-4.69-2.1-4.69-4.69V56.69C981,54.1,983.1,52,985.69,52z"/>
		<path class="st1" d="M997.31,52h-12.62c-2.59,0-4.69,2.1-4.69,4.69v15.62c0,2.59,2.1,4.69,4.69,4.69h12.62
			c2.59,0,4.69-2.1,4.69-4.69V56.69C1002,54.1,999.9,52,997.31,52z"/>
		<path class="st7" d="M997.63,52h-9.92c3.16,1.31,8.93,4.71,14.29,13.24V57C1002,54.24,1000.04,52,997.63,52z"/>
		<path class="st8" d="M984.38,77h9.92c-3.16-1.31-8.93-4.71-14.29-13.24V72C980,74.76,981.96,77,984.38,77z"/>
		<path class="st2" d="M1005.03,32c8.27,0,14.97,6.7,14.97,14.97V48h1v-1.03c0-8.27-6.7-14.97-14.97-14.97H1005.03z"/>
		<path class="st10" d="M1005.03,96h1c8.27,0,14.97-6.7,14.97-14.97V80h-1v1.03C1020,89.3,1013.3,96,1005.03,96z"/>
		<rect x="1020" y="66" class="st11" width="1" height="6"/>
		<path class="st12" d="M1017,90h1c-2.73,3.64-7.07,6-11.97,6H1006v-0.05C1010.5,95.66,1014.45,93.39,1017,90z"/>
		<rect x="1020" y="55" class="st13" width="1" height="4"/>
		<path class="st14" d="M1011.38,33c2.25,0.86,4.22,2.24,5.8,4h-1c-1.57-1.76-3.55-3.14-5.8-4H1011.38z"/>
	</g>
	<g>
		<path class="st1" d="M944,82.41V45.59c0-7.5-6.08-13.59-13.59-13.59H909c-8.28,0-15,6.72-15,15v35c0,7.73,6.27,14,14,14h22.41
			C937.92,96,944,89.92,944,82.41z"/>
		<path class="st0" d="M942,82.14V45.86C942,38.2,935.8,32,928.14,32h-20.29C900.2,32,894,38.2,894,45.86v36.29
			C894,89.8,900.2,96,907.86,96h20.29C935.8,96,942,89.8,942,82.14z"/>
		<path class="st1" d="M907.57,34h19.86c6.94,0,12.57,5.63,12.57,12.57v34.86c0,6.94-5.63,12.57-12.57,12.57h-19.86
			C900.63,94,895,88.37,895,81.43V46.57C895,39.63,900.63,34,907.57,34z"/>
		<path class="st2" d="M895,46.57v34.86c0,6.94,5.63,12.57,12.57,12.57h19.86c6.94,0,12.57-5.63,12.57-12.57V46.57
			c0-6.94-5.63-12.57-12.57-12.57h-19.86C900.63,34,895,39.63,895,46.57z M897,46.57c0-5.28,4.29-9.57,9.57-9.57h21.86
			c5.28,0,9.57,4.29,9.57,9.57v34.86c0,5.28-4.29,9.57-9.57,9.57h-21.86c-5.28,0-9.57-4.29-9.57-9.57V46.57z"/>
		<path class="st2" d="M902,53.07v22.87c0,5.56,4.51,10.07,10.07,10.07h11.87c5.56,0,10.07-4.51,10.07-10.07V53.07
			c0-5.56-4.51-10.07-10.07-10.07h-11.87C906.51,43,902,47.51,902,53.07z M904,53.83c0-4.32,3.51-7.83,7.83-7.83h12.34
			c4.32,0,7.83,3.51,7.83,7.83v21.34c0,4.32-3.51,7.83-7.83,7.83h-12.34c-4.32,0-7.83-3.51-7.83-7.83V53.83z"/>
		<path class="st3" d="M923.01,34L895,62V46.57c0-1.53,0.27-2.99,0.77-4.34l7.46-7.46c1.35-0.5,2.81-0.77,4.34-0.77H923.01z"/>
		<path class="st4" d="M940,46.57v9.13l-37.43,37.26c-3.76-1.63-6.57-5.05-7.34-9.19l43.23-43.23C939.44,42.33,940,44.38,940,46.57z
			"/>
		<path class="st6" d="M932,75.17V53.83c0-4.32-3.51-7.83-7.83-7.83h-12.34c-4.32,0-7.83,3.51-7.83,7.83v21.34
			c0,4.32,3.51,7.83,7.83,7.83h12.34C928.49,83,932,79.49,932,75.17z"/>
		<path class="st9" d="M911.83,46h1c-4.32,0-7.83,3.51-7.83,7.83v21.34c0,4.32,3.51,7.83,7.83,7.83h-1c-4.32,0-7.83-3.51-7.83-7.83
			V53.83C904,49.51,907.51,46,911.83,46z"/>
		<path class="st0" d="M905,53.54v21.91c0,4.17,3.38,7.54,7.54,7.54h11.91c4.17,0,7.54-3.38,7.54-7.54V53.54
			c0-4.17-3.38-7.54-7.54-7.54h-11.91C908.38,46,905,49.38,905,53.54z M907,53.83c0-3.21,2.62-5.83,5.83-5.83h12.34
			c3.21,0,5.83,2.62,5.83,5.83v21.34c0,3.21-2.62,5.83-5.83,5.83h-12.34c-3.21,0-5.83-2.62-5.83-5.83V53.83z"/>
		<path class="st0" d="M929,72.78V56.22c0-3.43-2.78-6.22-6.22-6.22h-9.56c-3.43,0-6.22,2.78-6.22,6.22v16.56
			c0,3.43,2.78,6.22,6.22,6.22h9.56C926.22,79,929,76.22,929,72.78z"/>
		<path class="st1" d="M921.64,52h-10.28c-2.41,0-4.36,1.95-4.36,4.36v16.28c0,2.41,1.95,4.36,4.36,4.36h10.28
			c2.41,0,4.36-1.95,4.36-4.36V56.36C926,53.95,924.05,52,921.64,52z"/>
		<path class="st7" d="M922.25,52h-8.5c2.71,1.31,7.66,4.71,12.25,13.24V57C926,54.24,924.32,52,922.25,52z"/>
		<path class="st8" d="M910.75,77h8.5c-2.71-1.31-7.66-4.71-12.25-13.24V72C907,74.76,908.68,77,910.75,77z"/>
		<path class="st9" d="M926,72.64V56.36c0-2.41-1.95-4.36-4.36-4.36h1c2.41,0,4.36,1.95,4.36,4.36v16.28c0,2.41-1.95,4.36-4.36,4.36
			h-1C924.05,77,926,75.05,926,72.64z"/>
		<path class="st2" d="M928.14,32C935.8,32,942,38.2,942,45.86V48h2v-2.41c0-7.51-6.08-13.59-13.59-13.59H928.14z"/>
		<path class="st10" d="M928.14,96h2.27c7.51,0,13.59-6.08,13.59-13.59V80h-2v2.14C942,89.8,935.8,96,928.14,96z"/>
		<rect x="942" y="66" class="st11" width="2" height="6"/>
		<path class="st12" d="M939.55,90h2.13c-2.44,3.62-6.58,6-11.28,6h-2.27C932.88,96,937.05,93.62,939.55,90z"/>
		<rect x="942" y="55" class="st13" width="2" height="4"/>
		<path class="st14" d="M935.52,33c2.13,0.86,3.99,2.25,5.42,4h-2.14c-1.46-1.76-3.35-3.14-5.5-4H935.52z"/>
	</g>
	<g>
		<path class="st1" d="M874,83.63V44.37c0-6.83-5.54-12.37-12.37-12.37H843c-7.18,0-13,5.82-13,13v38c0,7.18,5.82,13,13,13h18.63
			C868.46,96,874,90.46,874,83.63z"/>
		<path class="st0" d="M870,83.35v-38.7c0-6.99-5.66-12.65-12.65-12.65h-14.7C835.66,32,830,37.66,830,44.65v38.7
			c0,6.99,5.66,12.65,12.65,12.65h14.7C864.34,96,870,90.34,870,83.35z"/>
		<path class="st1" d="M841.55,34h14.9c6.38,0,11.55,5.17,11.55,11.55v36.9c0,6.38-5.17,11.55-11.55,11.55h-14.9
			C835.17,94,830,88.83,830,82.45v-36.9C830,39.17,835.17,34,841.55,34z"/>
		<path class="st2" d="M830,45.55v36.9c0,6.38,5.17,11.55,11.55,11.55h14.9c6.38,0,11.55-5.17,11.55-11.55v-36.9
			c0-6.38-5.17-11.55-11.55-11.55h-14.9C835.17,34,830,39.17,830,45.55z M832,45.82c0-4.87,3.95-8.82,8.82-8.82h16.37
			c4.87,0,8.82,3.95,8.82,8.82v36.37c0,4.87-3.95,8.82-8.82,8.82h-16.37c-4.87,0-8.82-3.95-8.82-8.82V45.82z"/>
		<path class="st6" d="M860,76.06V52.94c0-3.83-3.11-6.94-6.94-6.94h-8.12c-3.83,0-6.94,3.11-6.94,6.94v23.12
			c0,3.83,3.11,6.94,6.94,6.94h8.12C856.89,83,860,79.89,860,76.06z"/>
		<path class="st2" d="M836,52.56v23.88c0,5.28,4.28,9.56,9.56,9.56h6.88c5.28,0,9.56-4.28,9.56-9.56V52.56
			c0-5.28-4.28-9.56-9.56-9.56h-6.88C840.28,43,836,47.28,836,52.56z M838,52.94c0-3.83,3.11-6.94,6.94-6.94h8.12
			c3.83,0,6.94,3.11,6.94,6.94v23.12c0,3.83-3.11,6.94-6.94,6.94h-8.12c-3.83,0-6.94-3.11-6.94-6.94V52.94z"/>
		<g>
			<path class="st3" d="M843,34l-13,13v-1.45c0-6.38,5.17-11.55,11.55-11.55H843z"/>
			<path class="st4" d="M868,45.55v2.13L830.33,85.2c-0.22-0.88-0.33-1.8-0.33-2.75V69l32.98-32.98C866.01,38.1,868,41.59,868,45.55
				z"/>
		</g>
		<path class="st6" d="M860,76.06V52.94c0-3.83-3.11-6.94-6.94-6.94h-8.12c-3.83,0-6.94,3.11-6.94,6.94v23.12
			c0,3.83,3.11,6.94,6.94,6.94h8.12C856.89,83,860,79.89,860,76.06z"/>
		<path class="st0" d="M840,76.06V52.94c0-3.83,3.11-6.94,6.94-6.94h6.12c2.23,0,4.21,1.06,5.48,2.69
			c-0.73-0.43-1.57-0.69-2.48-0.69h-9.12c-2.72,0-4.94,2.22-4.94,4.94v23.12c0,2.72,2.22,4.94,4.94,4.94h9.12
			c0.91,0,1.75-0.26,2.48-0.69c-1.27,1.64-3.25,2.69-5.48,2.69h-6.12C843.11,83,840,79.89,840,76.06z"/>
		<path class="st9" d="M838,52.96c0-3.85,3.12-6.96,6.96-6.96h2c-3.85,0-6.96,3.12-6.96,6.96v23.07c0,3.85,3.12,6.96,6.96,6.96h-2
			c-3.85,0-6.96-3.12-6.96-6.96V52.96z"/>
		<path class="st0" d="M859,73.29V55.71c0-3.15-2.55-5.71-5.71-5.71h-6.59c-3.15,0-5.71,2.56-5.71,5.71v17.59
			c0,3.15,2.55,5.71,5.71,5.71h6.59C856.45,79,859,76.44,859,73.29z"/>
		<path class="st1" d="M851.13,52h-7.25c-2.14,0-3.87,1.73-3.87,3.87v17.25c0,2.14,1.73,3.87,3.87,3.87h7.25
			c2.14,0,3.87-1.73,3.87-3.87V55.87C855,53.73,853.27,52,851.13,52z"/>
		<path class="st9" d="M855,73.07V55.93c0-2.17-1.76-3.93-3.93-3.93h2c2.17,0,3.93,1.76,3.93,3.93v17.15c0,2.17-1.76,3.93-3.93,3.93
			h-2C853.24,77,855,75.24,855,73.07z"/>
		<path class="st7" d="M851.13,52h-6.32c3.45,2,7.3,6,10.19,12.97v-9.1C855,53.73,853.27,52,851.13,52z"/>
		<path class="st8" d="M840,64.03v9.1c0,2.14,1.73,3.87,3.87,3.87h6.32C846.74,75,841.93,70,840,64.03z"/>
		<path class="st2" d="M857.35,32c6.99,0,12.65,5.66,12.65,12.65V48h4v-3.63c0-6.83-5.54-12.37-12.37-12.37H857.35z"/>
		<path class="st10" d="M857.35,96h4.28c6.83,0,12.37-5.54,12.37-12.37V80h-4v3.35C870,90.34,864.34,96,857.35,96z"/>
		<rect x="870" y="66" class="st11" width="4" height="6"/>
		<path class="st12" d="M868.1,90h4.12c-2.17,3.59-6.09,6-10.59,6h-4.28C861.9,96,865.87,93.6,868.1,90z"/>
		<rect x="870" y="55" class="st13" width="4" height="4"/>
		<path class="st14" d="M866.5,33c2.02,0.87,3.75,2.26,5.05,4h-4.14c-1.32-1.74-3.08-3.13-5.12-4H866.5z"/>
	</g>
	<g>
		<path class="st1" d="M810,84.97V43.03c0-6.09-4.94-11.03-11.03-11.03H784c-6.63,0-12,5.37-12,12v40c0,6.63,5.37,12,12,12h14.97
			C805.06,96,810,91.06,810,84.97z"/>
		<path class="st0" d="M804,84.69V43.31c0-6.25-5.07-11.31-11.31-11.31h-9.37C777.07,32,772,37.07,772,43.31v41.37
			c0,6.25,5.07,11.31,11.31,11.31h9.37C798.93,96,804,90.93,804,84.69z"/>
		<path class="st1" d="M782.26,34h9.47C797.4,34,802,38.6,802,44.26v39.47C802,89.4,797.4,94,791.74,94h-9.47
			C776.6,94,772,89.4,772,83.74V44.26C772,38.6,776.6,34,782.26,34z"/>
		<path class="st1" d="M782.26,34h9.47C797.4,34,802,38.6,802,44.26v39.47C802,89.4,797.4,94,791.74,94h-9.47
			C776.6,94,772,89.4,772,83.74V44.26C772,38.6,776.6,34,782.26,34z"/>
		<path class="st2" d="M777,50v29c0,3.87,3.13,7,7,7h6c3.87,0,7-3.13,7-7V50c0-3.87-3.13-7-7-7h-6C780.13,43,777,46.13,777,50z
			 M778,52.28c0-3.47,2.81-6.28,6.28-6.28h5.45c3.47,0,6.28,2.81,6.28,6.28v24.45c0,3.47-2.81,6.28-6.28,6.28h-5.45
			c-3.47,0-6.28-2.81-6.28-6.28V52.28z"/>
		<path class="st2" d="M772,44.26v39.47C772,89.4,776.6,94,782.26,94h9.47C797.4,94,802,89.4,802,83.74V44.26
			C802,38.6,797.4,34,791.74,34h-9.47C776.6,34,772,38.6,772,44.26z M774,44.56c0-4.18,3.39-7.56,7.56-7.56h10.88
			c4.18,0,7.56,3.39,7.56,7.56v38.88c0,4.18-3.39,7.56-7.56,7.56h-10.88c-4.18,0-7.56-3.39-7.56-7.56V44.56z"/>
		<path class="st4" d="M801.89,42.8L772,72.56V56l21.79-21.79C798,35.06,801.28,38.5,801.89,42.8z"/>
		<path class="st6" d="M796,76.72V52.28c0-3.47-2.81-6.28-6.28-6.28h-5.45c-3.47,0-6.28,2.81-6.28,6.28v24.45
			c0,3.47,2.81,6.28,6.28,6.28h5.45C793.19,83,796,80.19,796,76.72z"/>
		<path class="st0" d="M780,76.72V52.28c0-3.47,2.81-6.28,6.28-6.28h3.45c1.84,0,3.5,0.8,4.64,2.07c-0.21-0.03-0.42-0.07-0.64-0.07
			h-7.45c-2.36,0-4.28,1.92-4.28,4.28v24.45c0,2.36,1.92,4.28,4.28,4.28h7.45c0.22,0,0.43-0.03,0.64-0.07
			c-1.15,1.27-2.8,2.07-4.64,2.07h-3.45C782.81,83,780,80.19,780,76.72z"/>
		<path class="st9" d="M784.28,46h2c-3.47,0-6.28,2.81-6.28,6.28v24.45c0,3.47,2.81,6.28,6.28,6.28h-2c-3.47,0-6.28-2.81-6.28-6.28
			V52.28C778,48.81,780.81,46,784.28,46z"/>
		<path class="st0" d="M796,73.89V55.11c0-2.82-2.29-5.11-5.11-5.11h-3.78c-2.82,0-5.11,2.29-5.11,5.11v18.78
			c0,2.82,2.29,5.11,5.11,5.11h3.78C793.71,79,796,76.71,796,73.89z"/>
		<path class="st1" d="M788.54,52h-5.07c-1.91,0-3.46,1.55-3.46,3.46v18.07c0,1.91,1.55,3.46,3.46,3.46h5.07
			c1.91,0,3.46-1.55,3.46-3.46V55.46C792,53.55,790.45,52,788.54,52z"/>
		<path class="st7" d="M788.54,52h-4.7c1.81,1.31,5.1,4.71,8.17,13.24v-9.78C792,53.55,790.45,52,788.54,52z"/>
		<path class="st8" d="M780,63.76v9.78c0,1.91,1.55,3.46,3.46,3.46h4.7C786.36,75.69,783.06,72.29,780,63.76z"/>
		<path class="st9" d="M792,73.54V55.46c0-1.91-1.55-3.46-3.46-3.46h2c1.91,0,3.46,1.55,3.46,3.46v18.07c0,1.91-1.55,3.46-3.46,3.46
			h-2C790.45,77,792,75.45,792,73.54z"/>
		<path class="st2" d="M792.69,32c6.24,0,11.31,5.07,11.31,11.31V48h6v-4.97c0-6.09-4.94-11.03-11.03-11.03H792.69z"/>
		<path class="st10" d="M792.69,96h6.28c6.09,0,11.03-4.94,11.03-11.03V80h-6v4.69C804,90.93,798.93,96,792.69,96z"/>
		<rect x="804" y="66" class="st11" width="6" height="6"/>
		<path class="st12" d="M798.97,96h-6.28c4.32,0,8.08-2.43,9.98-6h6.11C806.95,93.56,803.25,96,798.97,96z"/>
		<rect x="804" y="55" class="st13" width="6" height="4"/>
		<path class="st14" d="M803.54,33c1.91,0.87,3.52,2.26,4.66,4h-6.13c-1.17-1.74-2.82-3.13-4.75-4H803.54z"/>
	</g>
	<g>
		<path class="st1" d="M752,86.49V41.51c0-5.25-4.26-9.51-9.51-9.51H730c-5.52,0-10,4.48-10,10v44c0,5.52,4.48,10,10,10h12.49
			C747.74,96,752,91.74,752,86.49z"/>
		<path class="st1" d="M752,86.49V41.51c0-5.25-4.26-9.51-9.51-9.51H730c-5.52,0-10,4.48-10,10v44c0,5.52,4.48,10,10,10h12.49
			C747.74,96,752,91.74,752,86.49z"/>
		<path class="st0" d="M744,86.2V41.8c0-5.41-4.39-9.8-9.8-9.8h-4.4c-5.41,0-9.8,4.39-9.8,9.8v44.4c0,5.41,4.39,9.8,9.8,9.8h4.4
			C739.61,96,744,91.61,744,86.2z"/>
		<path class="st1" d="M728.79,34h4.42c4.85,0,8.79,3.94,8.79,8.79v42.42c0,4.85-3.94,8.79-8.79,8.79h-4.42
			c-4.85,0-8.79-3.94-8.79-8.79V42.79C720,37.94,723.94,34,728.79,34z"/>
		<path class="st2" d="M723,49v31c0,3.31,2.69,6,6,6h4c3.31,0,6-2.69,6-6V49c0-3.31-2.69-6-6-6h-4C725.69,43,723,45.69,723,49z
			 M724,51.54c0-3.06,2.48-5.54,5.54-5.54h2.93c3.06,0,5.54,2.48,5.54,5.54v25.93c0,3.06-2.48,5.54-5.54,5.54h-2.93
			c-3.06,0-5.54-2.48-5.54-5.54V51.54z"/>
		<path class="st2" d="M720,42.79v42.42c0,4.85,3.94,8.79,8.79,8.79h4.42c4.85,0,8.79-3.94,8.79-8.79V42.79
			c0-4.85-3.94-8.79-8.79-8.79h-4.42C723.94,34,720,37.94,720,42.79z M721,43.47c0-3.58,2.9-6.47,6.47-6.47h7.05
			c3.58,0,6.47,2.9,6.47,6.47v41.05c0,3.58-2.9,6.47-6.47,6.47h-7.05c-3.58,0-6.47-2.9-6.47-6.47V43.47z"/>
		<path class="st4" d="M741.32,39.4L720,60.53V44l10-10h3.21C736.86,34,739.99,36.23,741.32,39.4z"/>
		<path class="st6" d="M738,77.46V51.54c0-3.06-2.48-5.54-5.54-5.54h-2.93c-3.06,0-5.54,2.48-5.54,5.54v25.93
			c0,3.06,2.48,5.54,5.54,5.54h2.93C735.52,83,738,80.52,738,77.46z"/>
		<path class="st0" d="M726,77.46V51.54c0-3.06,2.48-5.54,5.54-5.54h0.93c1.71,0,3.24,0.78,4.26,2h-5.19
			c-1.95,0-3.54,1.59-3.54,3.54v25.93c0,1.95,1.59,3.54,3.54,3.54h5.19c-1.02,1.22-2.55,2-4.26,2h-0.93
			C728.48,83,726,80.52,726,77.46z"/>
		<path class="st9" d="M729.54,46h2c-3.06,0-5.54,2.48-5.54,5.54v25.93c0,3.06,2.48,5.54,5.54,5.54h-2c-3.06,0-5.54-2.48-5.54-5.54
			V51.54C724,48.48,726.48,46,729.54,46z"/>
		<path class="st0" d="M732.6,50h1.8c1.47,0,2.76,0.7,3.6,1.77v25.46c-0.84,1.07-2.13,1.77-3.6,1.77h-1.8c-2.54,0-4.6-2.06-4.6-4.6
			V54.6C728,52.06,730.06,50,732.6,50z"/>
		<path class="st1" d="M731,52h-3c-1.66,0-3,1.34-3,3v19c0,1.66,1.34,3,3,3h3c1.66,0,3-1.34,3-3V55C734,53.34,732.66,52,731,52z"/>
		<path class="st9" d="M734,74V55c0-1.66-1.34-3-3-3h2c1.66,0,3,1.34,3,3v19c0,1.66-1.34,3-3,3h-2C732.66,77,734,75.66,734,74z"/>
		<path class="st7" d="M731,52h-3c-0.04,0-0.08,0.01-0.11,0.01C729.24,53.33,733,57,734,65.24V55C734,53.34,732.66,52,731,52z"/>
		<path class="st8" d="M728,77h3c0.04,0,0.08-0.01,0.11-0.01C729.76,75.67,727,74,725,63.76V74C725,75.66,726.34,77,728,77z"/>
		<path class="st2" d="M734.2,32c5.41,0,9.8,4.39,9.8,9.8V48h8v-6.49c0-5.25-4.26-9.51-9.51-9.51H734.2z"/>
		<path class="st2" d="M734.2,32c5.41,0,9.8,4.39,9.8,9.8V48h8v-6.49c0-5.25-4.26-9.51-9.51-9.51H734.2z"/>
		<path class="st10" d="M734.2,96h8.29c5.25,0,9.51-4.26,9.51-9.51V80h-8v6.2C744,91.61,739.61,96,734.2,96z"/>
		<rect x="744" y="66" class="st11" width="8" height="6"/>
		<path class="st12" d="M742.49,96h-8.29c4.06,0,7.55-2.48,9.03-6h8.09C749.92,93.51,746.5,96,742.49,96z"/>
		<rect x="744" y="55" class="st13" width="8" height="4"/>
		<path class="st14" d="M746.71,33c1.76,0.88,3.22,2.27,4.15,4h-8.12c-0.97-1.73-2.46-3.13-4.25-4H746.71z"/>
	</g>
	<g>
		<path class="st0" d="M700,86.88V41.12c0-4.48-3.63-8.12-8.12-8.12h-10.77c-4.48,0-8.12,3.63-8.12,8.12v45.77
			c0,4.48,3.63,8.12,8.12,8.12h10.77C696.37,95,700,91.37,700,86.88z"/>
		<path class="st1" d="M699,87.75V40.25c0-4.55-3.69-8.25-8.25-8.25h-10.51c-4.55,0-8.25,3.69-8.25,8.25v47.51
			c0,4.55,3.69,8.25,8.25,8.25h10.51C695.31,96,699,92.31,699,87.75z"/>
		<path class="st1" d="M699,87.75V40.25c0-4.55-3.69-8.25-8.25-8.25h-10.51c-4.55,0-8.25,3.69-8.25,8.25v47.51
			c0,4.55,3.69,8.25,8.25,8.25h10.51C695.31,96,699,92.31,699,87.75z"/>
		<path class="st0" d="M689,87.75V40.25c0-4.55-3.69-8.25-8.25-8.25h-0.51c-4.55,0-8.25,3.69-8.25,8.25v47.51
			c0,4.55,3.69,8.25,8.25,8.25h0.51C685.31,96,689,92.31,689,87.75z"/>
		<path class="st1" d="M678.5,34h1.01c4.14,0,7.5,3.36,7.5,7.5V86.5c0,4.14-3.36,7.5-7.5,7.5h-1.01c-4.14,0-7.5-3.36-7.5-7.5V41.5
			C671,37.36,674.36,34,678.5,34z"/>
		<path class="st2" d="M671,41.5V86.5c0,4.14,3.36,7.5,7.5,7.5h1.01c4.14,0,7.5-3.36,7.5-7.5V41.5c0-4.14-3.36-7.5-7.5-7.5h-1.01
			C674.36,34,671,37.36,671,41.5z M672,42.32c0-2.94,2.38-5.32,5.32-5.32h3.36c2.94,0,5.32,2.38,5.32,5.32v43.36
			c0,2.94-2.38,5.32-5.32,5.32h-3.36c-2.94,0-5.32-2.38-5.32-5.32V42.32z"/>
		<path class="st2" d="M684,81V48c0-2.76-2.24-5-5-5h-1c-2.76,0-5,2.24-5,5v33c0,2.76,2.24,5,5,5h1C681.76,86,684,83.76,684,81z"/>
		<path class="st4" d="M685.96,37.71L671,52.53V41.5c0-4.14,3.36-7.5,7.5-7.5h1C682.25,34,684.66,35.49,685.96,37.71z"/>
		<path class="st6" d="M683,78.56V50.44c0-2.45-1.99-4.44-4.44-4.44h-0.12c-2.45,0-4.44,1.99-4.44,4.44v28.12
			c0,2.45,1.99,4.44,4.44,4.44h0.12C681.01,83,683,81.01,683,78.56z"/>
		<path class="st0" d="M679.5,46.1c1.15,0.25,2.14,0.94,2.77,1.9h-1.83c-1.34,0-2.44,1.09-2.44,2.44v28.12
			c0,1.34,1.09,2.44,2.44,2.44h1.83c-0.63,0.95-1.61,1.65-2.77,1.9c-2-0.43-3.5-2.21-3.5-4.33V50.44
			C676,48.31,677.5,46.54,679.5,46.1z"/>
		<path class="st9" d="M678.44,46h0.12c0.32,0,0.64,0.04,0.94,0.1c-2,0.43-3.5,2.21-3.5,4.33v28.12c0,2.13,1.5,3.9,3.5,4.33
			c-0.3,0.07-0.62,0.1-0.94,0.1h-0.12c-2.45,0-4.44-1.99-4.44-4.44V50.44C674,47.99,675.99,46,678.44,46z"/>
		<path class="st0" d="M682.45,50h0.1c0.14,0,0.27,0.02,0.41,0.04c0.01,0.13,0.04,0.26,0.04,0.4v28.12c0,0.14-0.03,0.27-0.04,0.4
			c-0.14,0.01-0.27,0.04-0.41,0.04h-0.1C680,79,678,77,678,74.55v-20.1C678,52,680,50,682.45,50z"/>
		<path class="st9" d="M679.45,52H680h0.55c1.35,0,2.45,1.1,2.45,2.45v20.1c0,1.35-1.1,2.45-2.45,2.45H680h-0.55H678V52H679.45z"/>
		<path class="st1" d="M678.55,52h-1.1c-1.35,0-2.45,1.1-2.45,2.45v20.1c0,1.35,1.1,2.45,2.45,2.45h1.1c1.35,0,2.45-1.1,2.45-2.45
			v-20.1C681,53.1,679.9,52,678.55,52z"/>
		<path class="st7" d="M678.55,52h-1.1c-0.17,0-0.34,0.02-0.5,0.05C677.86,53.39,681,57,681,65.24V54.45
			C681,53.1,679.9,52,678.55,52z"/>
		<path class="st8" d="M675,63.76v10.79c0,1.35,1.1,2.45,2.45,2.45h1.1c0.17,0,0.34-0.02,0.5-0.05C677,75,676,73,675,63.76z"/>
		<path class="st10" d="M680.75,96h10c4.56,0,8.25-3.69,8.25-8.25V80h-10v7.75C689,92.31,685.31,96,680.75,96z"/>
		<path class="st12" d="M680.75,96h10c3.78,0,6.95-2.54,7.93-6h-9.99C687.71,93.47,684.53,96,680.75,96z"/>
		<path class="st2" d="M690.75,32h-10c4.56,0,8.25,3.69,8.25,8.25V48h10v-7.75C699,35.69,695.31,32,690.75,32z"/>
		<rect x="689" y="66" class="st11" width="10" height="6"/>
		<rect x="689" y="55" class="st13" width="10" height="4"/>
		<path class="st14" d="M694.69,33c1.62,0.88,2.91,2.29,3.64,4h-10c-0.73-1.71-2.02-3.12-3.64-4H694.69z"/>
	</g>
	<g>
		<path class="st0" d="M651,90V37.92c0-3.27-2.65-5.92-5.92-5.92h-6.17c-3.82,0-6.92,3.1-6.92,6.92v50.17c0,3.82,3.1,6.92,6.92,6.92
			H645C648.31,96,651,93.31,651,90z"/>
		<path class="st1" d="M650,92.26V35.74c0-2.07-1.68-3.74-3.74-3.74h-13.52c-2.07,0-4.74,3.93-4.74,6v52c0,2.07,2.68,6,4.74,6h13.52
			C648.32,96,650,94.32,650,92.26z"/>
		<path class="st0" d="M638,92.26V35.74c0-2.07-1.68-3.74-3.74-3.74h-1.52c-2.07,0-4.74,3.93-4.74,6v52c0,2.07,2.68,6,4.74,6h1.52
			C636.32,96,638,94.32,638,92.26z"/>
		<path class="st1" d="M631.62,34h0.75c2,0,3.62,1.62,3.62,3.62v52.75c0,2-1.62,3.62-3.62,3.62h-0.75c-2,0-3.62-1.62-3.62-3.62
			V37.62C628,35.62,629.62,34,631.62,34z"/>
		<path class="st1" d="M631.62,34h0.75c2,0,3.62,1.62,3.62,3.62v52.75c0,2-1.62,3.62-3.62,3.62h-0.75c-2,0-3.62-1.62-3.62-3.62
			V37.62C628,35.62,629.62,34,631.62,34z"/>
		<path class="st2" d="M628,37.62v8.88v36v7.88c0,2,1.62,3.62,3.62,3.62h0.75c2,0,3.62-1.62,3.62-3.62V37.62
			c0-2-1.62-3.62-3.62-3.62h-0.75C629.62,34,628,35.62,628,37.62z M629,84.94c0.64,0.65,1.52,1.06,2.5,1.06c1.93,0,3.5-1.57,3.5-3.5
			V88c0,1.66-1.34,3-3,3s-3-1.34-3-3V84.94z M631.75,83h-0.5c-1.24,0-2.25-1.01-2.25-2.25v-32.5c0-1.24,1.01-2.25,2.25-2.25h0.5
			c1.24,0,2.25,1.01,2.25,2.25v32.5C634,81.99,632.99,83,631.75,83z M629,44.06V40c0-1.66,1.34-3,3-3s3,1.34,3,3v6.5
			c0-1.93-1.57-3.5-3.5-3.5C630.52,43,629.64,43.41,629,44.06z"/>
		<path class="st6" d="M634,80.75v-32.5c0-1.24-1.01-2.25-2.25-2.25h-0.5c-1.24,0-2.25,1.01-2.25,2.25v32.5
			c0,1.24,1.01,2.25,2.25,2.25h0.5C632.99,83,634,81.99,634,80.75z"/>
		<path class="st9" d="M632,75.57V53.43c0-0.74-0.56-1.34-1.28-1.42c0.04,0,0.09-0.02,0.13-0.02h1.3c1.02,0,1.85,0.83,1.85,1.85
			v21.3c0,1.02-0.83,1.85-1.85,1.85h-1.3c-0.05,0-0.09-0.01-0.14-0.01C631.43,76.91,632,76.31,632,75.57z"/>
		<path class="st9" d="M631.25,46h0.5c0.26,0,0.51,0.05,0.75,0.14c-0.87,0.31-1.5,1.13-1.5,2.11v32.5c0,0.98,0.63,1.8,1.5,2.11
			c-0.24,0.08-0.49,0.14-0.75,0.14h-0.5c-1.24,0-2.25-1.01-2.25-2.25v-32.5C629,47.01,630.01,46,631.25,46z"/>
		<path class="st1" d="M630.57,52h-0.14c-0.79,0-1.43,0.64-1.43,1.43v22.14c0,0.79,0.64,1.43,1.43,1.43h0.14
			c0.79,0,1.43-0.64,1.43-1.43V53.43C632,52.64,631.36,52,630.57,52z"/>
		<path class="st7" d="M630.57,52h-0.14c-0.16,0-0.31,0.03-0.45,0.08c0.46,1.36,1.26,4.79,2.02,13.16V53.43
			C632,52.64,631.36,52,630.57,52z"/>
		<path class="st8" d="M630.43,77h0.14c0.16,0,0.31-0.03,0.45-0.08c-0.46-1.36-1.26-4.79-2.02-13.16v11.81
			C629,76.36,629.64,77,630.43,77z"/>
		<path class="st2" d="M638,35.74c0-2.07-1.68-3.74-3.74-3.74h12c2.07,0,3.74,1.68,3.74,3.74V48h-12V35.74z"/>
		<path class="st10" d="M638,92.26V80h12v12.26c0,2.07-1.68,3.74-3.74,3.74h-12C636.32,96,638,94.32,638,92.26z"/>
		<path class="st14" d="M648.79,33c0.74,0.68,1.21,1.65,1.21,2.74V37h-12v-1.26c0-1.09-0.47-2.06-1.21-2.74H648.79z"/>
		<path class="st12" d="M650,90v2.26c0,2.07-1.68,3.74-3.74,3.74h-12c2.07,0,3.74-1.68,3.74-3.74V90H650z"/>
		<path class="st4" d="M634.76,34.89l-6.76,6.7v-3.97c0-2,1.62-3.62,3.62-3.62h0.76C633.29,34,634.12,34.33,634.76,34.89z"/>
		<rect x="638" y="66" class="st11" width="12" height="6"/>
		<rect x="638" y="55" class="st13" width="12" height="4"/>
	</g>
	<g>
		<polygon class="st0" points="592,94 592,34 594,32 606,32 608,34 608,94 606,96 594,96 		"/>
		<rect x="568" y="58" transform="matrix(1.397808e-09 1 -1 1.397808e-09 664 -536)" class="st1" width="64" height="12"/>
		<g>
			<rect x="594" y="32" class="st2" width="12" height="16"/>
			<rect x="594" y="80" class="st10" width="12" height="16"/>
			<rect x="594" y="66" class="st11" width="12" height="6"/>
			<rect x="594" y="90" class="st12" width="12" height="6"/>
			<rect x="594" y="55" class="st13" width="12" height="4"/>
			<rect x="594" y="33" class="st14" width="12" height="4"/>
		</g>
	</g>
</g>
<g>
	<path class="st1" d="M23.49,88.41L15.35,55.7c-1.66-6.67,2.77-13.33,9.89-14.88l21.26-4.64c7.33-1.6,14.67,2.67,16.37,9.54
		l7.95,31.98c1.71,6.87-2.85,13.73-10.18,15.21l-21.26,4.64C32.26,99.22,25.14,95.08,23.49,88.41z"/>
	<path class="st0" d="M33.12,85.94L25.1,53.7c-1.69-6.8,2.82-13.59,10.08-15.18l19.24-4.2c7.26-1.58,14.51,2.64,16.21,9.44
		l8.02,32.23c1.69,6.8-2.82,13.59-10.08,15.18l-19.24,4.2C42.06,96.96,34.81,92.73,33.12,85.94z"/>
	<path class="st1" d="M55.14,36.05L36.3,40.15c-6.59,1.44-10.68,7.6-9.15,13.77l7.7,30.96c1.53,6.17,8.12,10,14.7,8.57l18.84-4.11
		c6.59-1.44,10.68-7.6,9.15-13.77l-7.7-30.96C68.31,38.45,61.73,34.61,55.14,36.05z"/>
	<path class="st2" d="M55.14,36.05L36.3,40.15c-6.59,1.44-10.68,7.6-9.15,13.77l7.7,30.96c1.53,6.17,8.12,10,14.7,8.57l18.84-4.11
		c6.59-1.44,10.68-7.6,9.15-13.77l-7.7-30.96C68.31,38.45,61.73,34.61,55.14,36.05z M75.64,75.99c1.17,4.69-1.96,9.39-6.96,10.48
		L47.95,91c-5.01,1.09-10.03-1.83-11.19-6.52l-7.7-30.96c-1.17-4.69,1.96-9.39,6.96-10.48l20.73-4.52
		c5.01-1.09,10.03,1.83,11.19,6.52L75.64,75.99z"/>
	<path class="st2" d="M52.86,44.97l-11.26,2.46c-5.27,1.15-8.55,6.09-7.32,11.02l5.05,20.31c1.23,4.94,6.5,8.01,11.77,6.86
		l11.26-2.46c5.27-1.15,8.55-6.09,7.32-11.02l-5.05-20.31C63.41,46.89,58.14,43.82,52.86,44.97z M67.62,71.88
		c0.96,3.84-1.6,7.68-5.7,8.57l-11.71,2.55c-4.1,0.89-8.2-1.49-9.16-5.34l-4.71-18.96c-0.96-3.84,1.6-7.68,5.7-8.57l11.71-2.55
		c4.1-0.89,8.2,1.49,9.16,5.34L67.62,71.88z"/>
	<path class="st15" d="M54.73,36.14L36.3,40.15c-6.59,1.44-10.68,7.6-9.15,13.77l4.29,17.26L54.73,36.14z"/>
	<path class="st4" d="M58.03,91.61l10.37-2.26c6.59-1.44,10.68-7.6,9.15-13.77l-2.41-9.71L58.03,91.61z"/>
	<path class="st3" d="M69.84,44.61c-0.77-3.08-2.79-5.58-5.45-7.13L34.32,82.72l0.54,2.16c0.99,3.99,4.11,7,7.97,8.24l28.44-42.79
		L69.84,44.61z"/>
	<path class="st6" d="M41.06,77.67l-4.71-18.96c-0.96-3.84,1.6-7.68,5.7-8.57l11.71-2.55c4.1-0.89,8.2,1.49,9.16,5.34l4.71,18.96
		c0.96,3.84-1.6,7.68-5.7,8.57l-11.71,2.55C46.12,83.9,42.02,81.51,41.06,77.67z"/>
	<path class="st9" d="M53.75,47.59l-0.95,0.21c4.1-0.89,8.2,1.49,9.16,5.34l4.71,18.96c0.96,3.84-1.6,7.68-5.7,8.57l0.95-0.21
		c4.1-0.89,6.65-4.73,5.7-8.57l-4.71-18.96C61.95,49.08,57.85,46.69,53.75,47.59z"/>
	<path class="st0" d="M53.07,47.74l-11.3,2.46c-3.95,0.86-6.41,4.56-5.49,8.26l4.84,19.46c0.92,3.7,4.87,6,8.82,5.14l11.3-2.46
		c3.95-0.86,6.41-4.56,5.49-8.26L61.9,52.88C60.98,49.18,57.02,46.87,53.07,47.74z M64.78,72.5c0.71,2.85-1.19,5.72-4.24,6.38
		l-11.71,2.55c-3.05,0.66-6.11-1.12-6.82-3.97l-4.71-18.96c-0.71-2.85,1.19-5.72,4.24-6.38l11.71-2.55
		c3.05-0.66,6.11,1.12,6.82,3.97L64.78,72.5z"/>
	<path class="st0" d="M43.38,74.93l-3.66-14.71c-0.76-3.05,1.27-6.1,4.53-6.81l9.07-1.98c3.26-0.71,6.52,1.19,7.27,4.24l3.66,14.71
		c0.76,3.05-1.27,6.1-4.53,6.81l-9.07,1.98C47.39,79.88,44.14,77.98,43.38,74.93z"/>
	<path class="st1" d="M55.52,52.82l-9.75,2.13c-2.28,0.5-3.7,2.64-3.17,4.77l3.6,14.46c0.53,2.14,2.81,3.47,5.1,2.97l9.75-2.13
		c2.28-0.5,3.7-2.64,3.17-4.77l-3.6-14.46C60.09,53.65,57.81,52.32,55.52,52.82z"/>
	<path class="st7" d="M56.1,52.69l-8.06,1.76c2.86,0.6,8.3,2.6,14.55,9.23l-1.82-7.32C60.15,53.91,58.06,52.27,56.1,52.69z"/>
	<path class="st8" d="M50.71,77.28l8.06-1.76c-2.86-0.6-8.3-2.6-14.55-9.23l1.82,7.32C46.66,76.07,48.75,77.71,50.71,77.28z"/>
	<path class="st9" d="M46.19,74.18l-3.6-14.46c-0.53-2.14,0.89-4.28,3.17-4.77l-0.95,0.21c-2.28,0.5-3.7,2.64-3.17,4.77l3.6,14.46
		c0.53,2.14,2.81,3.47,5.1,2.97l0.95-0.21C49.01,77.65,46.73,76.32,46.19,74.18z"/>
	<path class="st2" d="M35.19,38.53C27.92,40.11,23.41,46.9,25.1,53.7l0.47,1.9l-9.69,2.24l-0.53-2.14
		c-1.66-6.67,2.77-13.33,9.89-14.88L35.19,38.53z"/>
	<path class="st10" d="M49.32,95.38l-9.94,2.29c-7.12,1.55-14.23-2.59-15.89-9.26l-0.53-2.14l9.69-2.24l0.47,1.9
		C34.81,92.74,42.06,96.96,49.32,95.38z"/>
	<polygon class="st11" points="30.87,76.93 29.55,71.6 19.86,73.83 21.19,79.16 	"/>
	<path class="st12" d="M37.17,92.41l-9.82,2.27c3.11,2.71,7.57,3.97,12.02,3l9.94-2.29C44.83,96.36,40.34,95.11,37.17,92.41z"/>
	<polygon class="st13" points="28,65.38 27.12,61.82 17.43,64.06 18.31,67.61 	"/>
	<path class="st14" d="M20.62,42.76c-1.83,1.21-3.29,2.82-4.26,4.68l9.82-2.27c1-1.86,2.48-3.48,4.34-4.69L20.62,42.76z"/>
</g>
</svg>
