<?xml version="1.0" encoding="utf-8"?>
<!-- Generator: Adobe Illustrator 23.0.1, SVG Export Plug-In . SVG Version: 6.00 Build 0)  -->
<svg version="1.1" id="Layer_1" xmlns="http://www.w3.org/2000/svg" xmlns:xlink="http://www.w3.org/1999/xlink" x="0px" y="0px"
	 viewBox="0 0 2274 204" style="enable-background:new 0 0 2274 204;" xml:space="preserve">
<style type="text/css">
	.st0{fill:#51D2F4;}
	.st1{fill:#84F4F4;}
	.st2{opacity:0.5;fill:#81D4FA;}
	.st3{opacity:0.3;fill:#81D4FA;}
	.st4{opacity:0.2;fill:#4FC3F7;}
</style>
<g>
	<g>
		<path class="st0" d="M166,73.94V166H38V73.94c2.55,0.58,5.22,1.27,8,2.06C107.21,93.21,110.08,60.97,166,73.94z"/>
		<path class="st1" d="M166,41.59v32.35C110.08,60.97,107.21,93.21,46,76c-2.78-0.79-5.45-1.48-8-2.06V41.6
			c2.55,0.68,5.21,1.48,8,2.4c50.22,12.28,64.25-6,95.07-6C148.25,38,156.33,38.99,166,41.59z"/>
		<path class="st2" d="M166,41.59v6C114.83,33.82,107.92,65.14,46,50c-2.79-0.92-5.45-1.72-8-2.4v-6c2.55,0.68,5.21,1.48,8,2.4
			c50.22,12.28,64.25-6,95.07-6C148.25,38,156.33,38.99,166,41.59z"/>
		<path class="st3" d="M166,68.94v5C110.08,60.97,107.21,93.21,46,76c-2.78-0.79-5.45-1.48-8-2.06v-5c2.55,0.58,5.22,1.27,8,2.06
			C107.21,88.21,110.08,55.97,166,68.94z"/>
		<path class="st4" d="M166,103.94V166H38v-62.06c2.55,0.58,5.22,1.27,8,2.06C107.21,123.21,110.08,90.96,166,103.94z"/>
		<path class="st4" d="M166,133.94V166H38v-32.06c2.55,0.58,5.22,1.27,8,2.06C107.21,153.21,110.08,120.96,166,133.94z"/>
	</g>
	<g>
		<path class="st0" d="M304,72.31V166H176V72.31c4.87,0.83,10.17,2.04,16,3.69C250.15,92.35,255.65,64.07,304,72.31z"/>
		<path class="st1" d="M304,39.72v32.59c-48.35-8.24-53.85,20.04-112,3.69c-5.83-1.65-11.13-2.86-16-3.69V39.73
			c4.87,0.95,10.17,2.34,16,4.27c50.22,12.28,64.25-6,95.07-6C292.17,38,297.74,38.5,304,39.72z"/>
		<path class="st2" d="M304,39.72v6c-44.09-8.62-53.46,18.6-112,4.28c-5.83-1.93-11.13-3.32-16-4.27v-6
			c4.87,0.95,10.17,2.34,16,4.27c50.22,12.28,64.25-6,95.07-6C292.17,38,297.74,38.5,304,39.72z"/>
		<path class="st3" d="M304,67.31v5c-48.35-8.24-53.85,20.04-112,3.69c-5.83-1.65-11.13-2.86-16-3.69v-5
			c4.87,0.83,10.17,2.04,16,3.69C250.15,87.35,255.65,59.07,304,67.31z"/>
		<path class="st4" d="M304,102.31V166H176v-63.69c4.87,0.83,10.17,2.04,16,3.69C250.15,122.35,255.65,94.06,304,102.31z"/>
		<path class="st4" d="M304,132.31V166H176v-33.69c4.87,0.83,10.17,2.04,16,3.69C250.15,152.35,255.65,124.06,304,132.31z"/>
	</g>
	<g>
		<path class="st0" d="M442,71.23V166H314V71.23c6.93,0.68,14.81,2.16,24,4.77C392.78,91.41,400.83,67.2,442,71.23z"/>
		<path class="st1" d="M442,38.5v32.73C400.83,67.2,392.78,91.41,338,76c-9.19-2.61-17.07-4.09-24-4.77V38.5
			c6.96,0.76,14.81,2.46,24,5.5c50.22,12.28,64.25-6,95.07-6C435.89,38,438.86,38.15,442,38.5z"/>
		<path class="st2" d="M442,38.5v6c-37.48-4.11-49.18,18.91-104,5.5c-9.19-3.04-17.04-4.74-24-5.5v-6c6.96,0.76,14.81,2.46,24,5.5
			c50.22,12.28,64.25-6,95.07-6C435.89,38,438.86,38.15,442,38.5z"/>
		<path class="st3" d="M442,66.23v5C400.83,67.2,392.78,91.41,338,76c-9.19-2.61-17.07-4.09-24-4.77v-5
			c6.93,0.68,14.81,2.16,24,4.77C392.78,86.41,400.83,62.2,442,66.23z"/>
		<path class="st4" d="M442,101.23V166H314v-64.77c6.93,0.68,14.81,2.16,24,4.77C392.77,121.41,400.83,97.19,442,101.23z"/>
		<path class="st4" d="M442,131.23V166H314v-34.77c6.93,0.68,14.81,2.16,24,4.77C392.77,151.41,400.83,127.19,442,131.23z"/>
	</g>
	<g>
		<path class="st0" d="M580,70.78V166H452V70.78c8.76,0.11,19.08,1.55,32,5.22C535.03,90.35,545.51,70.32,580,70.78z"/>
		<path class="st1" d="M580,38.01v32.77c-34.49-0.46-44.97,19.57-96,5.22c-12.92-3.67-23.24-5.11-32-5.22V38.01
			c8.86,0.1,19.12,1.73,32,5.99c50.22,12.28,64.25-6,95.07-6C579.38,38,579.69,38,580,38.01z"/>
		<path class="st2" d="M580,38.01v6c-31.47-0.38-45.27,18.4-96,5.99c-12.88-4.26-23.14-5.89-32-5.99v-6c8.86,0.1,19.12,1.73,32,5.99
			c50.22,12.28,64.25-6,95.07-6C579.38,38,579.69,38,580,38.01z"/>
		<path class="st3" d="M580,65.78v5c-34.49-0.46-44.97,19.57-96,5.22c-12.92-3.67-23.24-5.11-32-5.22v-5
			c8.76,0.11,19.08,1.55,32,5.22C535.03,85.35,545.51,65.32,580,65.78z"/>
		<path class="st4" d="M580,100.78V166H452v-65.22c8.76,0.11,19.08,1.55,32,5.22C535.03,120.35,545.51,100.32,580,100.78z"/>
		<path class="st4" d="M580,130.78V166H452v-35.22c8.76,0.11,19.08,1.55,32,5.22C535.03,150.35,545.51,130.32,580,130.78z"/>
	</g>
	<g>
		<path class="st0" d="M718,71.05V166H590V71.05c10.4-0.85,22.92,0.11,40,4.95C676.87,89.18,689.53,73.36,718,71.05z"/>
		<path class="st1" d="M718,38.33v32.72c-28.47,2.31-41.13,18.13-88,4.95c-17.08-4.84-29.6-5.8-40-4.95V38.33
			c2.27-0.21,4.62-0.33,7.08-0.33c9.07,0,19.59,1.59,32.92,6C676.22,55.31,691.79,40.72,718,38.33z"/>
		<path class="st2" d="M718,38.33v6c-26.21,2.39-41.78,16.98-88,5.67c-16.94-5.61-29.35-6.65-40-5.67v-6
			c2.27-0.21,4.62-0.33,7.08-0.33c9.07,0,19.59,1.59,32.92,6C676.22,55.31,691.79,40.72,718,38.33z"/>
		<path class="st3" d="M718,66.05v5c-28.47,2.31-41.13,18.13-88,4.95c-17.08-4.84-29.6-5.8-40-4.95v-5c10.4-0.85,22.92,0.11,40,4.95
			C676.87,84.18,689.53,68.36,718,66.05z"/>
		<path class="st4" d="M718,101.05V166H590v-64.95c10.4-0.85,22.92,0.11,40,4.95C676.86,119.18,689.53,103.36,718,101.05z"/>
		<path class="st4" d="M718,131.05V166H590v-34.95c10.4-0.85,22.92,0.11,40,4.95C676.86,149.18,689.53,133.36,718,131.05z"/>
	</g>
	<g>
		<path class="st0" d="M856,72.09V166H728V72.09c11.99-2.12,26.33-2.23,48,3.91C818.25,87.88,832.71,76.2,856,72.09z"/>
		<path class="st1" d="M856,39.45v32.64c-23.29,4.11-37.75,15.79-80,3.91c-21.67-6.14-36.01-6.03-48-3.91V39.45
			c4.7-0.88,9.62-1.45,15.08-1.45c9.07,0,19.59,1.59,32.92,6C817.34,54.11,834.16,43.51,856,39.45z"/>
		<path class="st2" d="M856,39.45v6c-21.84,4.06-38.66,14.66-80,4.55c-21.34-7.07-35.5-6.88-48-4.55v-6
			c4.7-0.88,9.62-1.45,15.08-1.45c9.07,0,19.59,1.59,32.92,6C817.34,54.11,834.16,43.51,856,39.45z"/>
		<path class="st3" d="M856,67.09v5c-23.29,4.11-37.75,15.79-80,3.91c-21.67-6.14-36.01-6.03-48-3.91v-5
			c11.99-2.12,26.33-2.23,48,3.91C818.25,82.88,832.71,71.2,856,67.09z"/>
		<path class="st4" d="M856,102.09V166H728v-63.91c11.99-2.13,26.32-2.24,48,3.91C818.25,117.88,832.7,106.19,856,102.09z"/>
		<path class="st4" d="M856,132.09V166H728v-33.91c11.99-2.13,26.32-2.24,48,3.91C818.25,147.88,832.7,136.19,856,132.09z"/>
	</g>
	<g>
		<path class="st0" d="M994,73.82V166H866V73.82c13.76-3.47,29.32-5.38,56,2.18C959.22,86.47,974.87,78.64,994,73.82z"/>
		<path class="st1" d="M994,41.22v32.6c-19.13,4.82-34.78,12.65-72,2.18c-26.68-7.56-42.24-5.65-56-2.18v-32.6
			c7.16-1.79,14.46-3.22,23.08-3.22c9.07,0,19.59,1.59,32.92,6C958.18,52.85,975.58,45.83,994,41.22z"/>
		<path class="st2" d="M994,41.22v6c-18.42,4.61-35.82,11.63-72,2.78c-25.99-8.61-41.32-6.45-56-2.78v-6
			c7.16-1.79,14.46-3.22,23.08-3.22c9.07,0,19.59,1.59,32.92,6C958.18,52.85,975.58,45.83,994,41.22z"/>
		<path class="st3" d="M994,68.82v5c-19.13,4.82-34.78,12.65-72,2.18c-26.68-7.56-42.24-5.65-56-2.18v-5
			c13.76-3.47,29.32-5.38,56,2.18C959.22,81.47,974.87,73.64,994,68.82z"/>
		<path class="st4" d="M994,103.82V166H866v-62.18c13.75-3.47,29.31-5.39,56,2.18C959.22,116.47,974.87,108.64,994,103.82z"/>
		<path class="st4" d="M994,133.82V166H866v-32.18c13.75-3.47,29.31-5.39,56,2.18C959.22,146.47,974.87,138.64,994,133.82z"/>
	</g>
	<g>
		<path class="st0" d="M1132,75.99V166h-128V75.99c16.05-4.51,32.05-9.05,64,0.01C1099.94,84.98,1116,80.5,1132,75.99z"/>
		<path class="st1" d="M1132,43.32v32.67c-16,4.51-32.06,8.99-64,0.01c-31.95-9.06-47.95-4.52-64-0.01V43.32
			c9.89-2.62,19.24-5.32,31.08-5.32c9.07,0,19.59,1.59,32.92,6C1098.94,51.57,1116.15,47.53,1132,43.32z"/>
		<path class="st2" d="M1132,43.32v6c-15.85,4.21-33.06,8.25-64,0.68c-30.72-10.17-46.54-5.31-64-0.68v-6
			c9.89-2.62,19.24-5.32,31.08-5.32c9.07,0,19.59,1.59,32.92,6C1098.94,51.57,1116.15,47.53,1132,43.32z"/>
		<path class="st3" d="M1132,70.99v5c-16,4.51-32.06,8.99-64,0.01c-31.95-9.06-47.95-4.52-64-0.01v-5c16.05-4.51,32.05-9.05,64,0.01
			C1099.94,79.98,1116,75.5,1132,70.99z"/>
		<path class="st4" d="M1132,105.99V166h-128v-60.01c16.05-4.52,32.05-9.05,64,0.01C1099.94,114.98,1115.99,110.49,1132,105.99z"/>
		<path class="st4" d="M1132,135.99V166h-128v-30.01c16.05-4.52,32.05-9.05,64,0.01C1099.94,144.98,1115.99,140.49,1132,135.99z"/>
	</g>
	<g>
		<path class="st0" d="M1270,78.16V166h-128V78.16c19.22-4.83,34.8-12.7,72-2.16C1240.67,83.5,1256.27,81.61,1270,78.16z"/>
		<path class="st1" d="M1270,45.33v32.83c-13.73,3.45-29.33,5.34-56-2.16c-37.2-10.54-52.78-2.67-72,2.16V45.34
			c13.11-3.03,24.12-7.34,39.08-7.34c9.07,0,19.59,1.59,32.92,6C1239.84,50.32,1256.11,48.55,1270,45.33z"/>
		<path class="st2" d="M1270,45.33v6c-13.89,3.22-30.16,4.99-56-1.33c-35.32-11.69-50.94-3.52-72,1.34v-6
			c13.11-3.03,24.12-7.34,39.08-7.34c9.07,0,19.59,1.59,32.92,6C1239.84,50.32,1256.11,48.55,1270,45.33z"/>
		<path class="st3" d="M1270,73.16v5c-13.73,3.45-29.33,5.34-56-2.16c-37.2-10.54-52.78-2.67-72,2.16v-5
			c19.22-4.83,34.8-12.7,72-2.16C1240.67,78.5,1256.27,76.61,1270,73.16z"/>
		<path class="st4" d="M1270,108.16V166h-128v-57.84c19.22-4.83,34.8-12.71,72-2.16C1240.67,113.5,1256.27,111.61,1270,108.16z"/>
		<path class="st4" d="M1270,138.16V166h-128v-27.84c19.22-4.83,34.8-12.71,72-2.16C1240.67,143.5,1256.27,141.61,1270,138.16z"/>
	</g>
	<g>
		<path class="st0" d="M1408,79.89V166h-128V79.89c23.43-4.11,37.81-15.85,80-3.89C1381.66,82.09,1396.02,81.99,1408,79.89z"/>
		<path class="st1" d="M1408,46.92v32.97c-11.98,2.1-26.34,2.2-48-3.89c-42.19-11.96-56.57-0.22-80,3.89V46.93
			c16.95-2.76,29.18-8.93,47.08-8.93c9.07,0,19.59,1.59,32.92,6C1381.07,49.15,1395.76,48.93,1408,46.92z"/>
		<path class="st2" d="M1408,46.92v6c-12.24,2.01-26.93,2.23-48-2.92c-39.62-13.12-54.46-1.23-80,2.93v-6
			c16.95-2.76,29.18-8.93,47.08-8.93c9.07,0,19.59,1.59,32.92,6C1381.07,49.15,1395.76,48.93,1408,46.92z"/>
		<path class="st3" d="M1408,74.89v5c-11.98,2.1-26.34,2.2-48-3.89c-42.19-11.96-56.57-0.22-80,3.89v-5
			c23.43-4.11,37.81-15.85,80-3.89C1381.66,77.09,1396.02,76.99,1408,74.89z"/>
		<path class="st4" d="M1408,109.89V166h-128v-56.11c23.43-4.11,37.81-15.86,80-3.89C1381.66,112.09,1396.01,111.99,1408,109.89z"/>
		<path class="st4" d="M1408,139.89V166h-128v-26.11c23.43-4.11,37.81-15.86,80-3.89C1381.66,142.09,1396.01,141.99,1408,139.89z"/>
	</g>
	<g>
		<path class="st0" d="M1546,80.91V166h-128V80.91c28.64-2.3,41.23-18.17,88-4.91C1523.06,80.8,1535.59,81.75,1546,80.91z"/>
		<path class="st1" d="M1546,47.9v33.01c-10.41,0.84-22.94-0.11-40-4.91c-46.77-13.26-59.36,2.61-88,4.91V47.92
			c21.4-1.76,34.49-9.92,55.08-9.92c9.07,0,19.59,1.59,32.92,6C1522.68,48.08,1535.36,48.79,1546,47.9z"/>
		<path class="st2" d="M1546,47.9v6c-10.64,0.89-23.32,0.18-40-3.9c-43.58-14.43-57.18,1.39-88,3.92v-6
			c21.4-1.76,34.49-9.92,55.08-9.92c9.07,0,19.59,1.59,32.92,6C1522.68,48.08,1535.36,48.79,1546,47.9z"/>
		<path class="st3" d="M1546,75.91v5c-10.41,0.84-22.94-0.11-40-4.91c-46.77-13.26-59.36,2.61-88,4.91v-5
			c28.64-2.3,41.23-18.17,88-4.91C1523.06,75.8,1535.59,76.75,1546,75.91z"/>
		<path class="st4" d="M1546,110.91V166h-128v-55.09c28.63-2.3,41.22-18.18,88-4.91C1523.06,110.8,1535.59,111.75,1546,110.91z"/>
		<path class="st4" d="M1546,140.91V166h-128v-25.09c28.63-2.3,41.22-18.18,88-4.91C1523.06,140.8,1535.59,141.75,1546,140.91z"/>
	</g>
	<g>
		<path class="st0" d="M1684,81.18V166h-128V81.18c34.68,0.46,45.09-19.61,96-5.18C1664.92,79.64,1675.24,81.07,1684,81.18z"/>
		<path class="st1" d="M1684,48.24v32.94c-8.76-0.11-19.08-1.54-32-5.18c-50.91-14.43-61.32,5.64-96,5.18V48.25
			c26.4-0.03,40.05-10.25,63.08-10.25c9.07,0,19.59,1.59,32.92,6C1664.69,47.1,1675.08,48.26,1684,48.24z"/>
		<path class="st2" d="M1684,48.24v6c-8.92,0.02-19.31-1.14-32-4.24c-47.17-15.62-59.21,4.2-96,4.25v-6
			c26.4-0.03,40.05-10.25,63.08-10.25c9.07,0,19.59,1.59,32.92,6C1664.69,47.1,1675.08,48.26,1684,48.24z"/>
		<path class="st3" d="M1684,76.18v5c-8.76-0.11-19.08-1.54-32-5.18c-50.91-14.43-61.32,5.64-96,5.18v-5
			c34.68,0.46,45.09-19.61,96-5.18C1664.92,74.64,1675.24,76.07,1684,76.18z"/>
		<path class="st4" d="M1684,111.18V166h-128v-54.82c34.68,0.46,45.09-19.62,96-5.18C1664.92,109.64,1675.24,111.07,1684,111.18z"/>
		<path class="st4" d="M1684,141.18V166h-128v-24.82c34.68,0.46,45.09-19.62,96-5.18C1664.92,139.64,1675.24,141.07,1684,141.18z"/>
	</g>
	<g>
		<path class="st0" d="M1822,80.73V166h-128V80.73c41.37,4.02,49.38-20.21,104-4.73C1807.19,78.59,1815.06,80.06,1822,80.73z"/>
		<path class="st1" d="M1822,47.95v32.78c-6.94-0.67-14.81-2.14-24-4.73c-54.62-15.48-62.63,8.75-104,4.73V47.96
			c31.85,2.32,45.83-9.96,71.08-9.96c9.07,0,19.59,1.59,32.92,6C1807.08,46.22,1814.98,47.44,1822,47.95z"/>
		<path class="st2" d="M1822,47.95v6c-7.02-0.51-14.92-1.73-24-3.95c-50.43-16.7-60.71,7.11-104,3.96v-6
			c31.85,2.32,45.83-9.96,71.08-9.96c9.07,0,19.59,1.59,32.92,6C1807.08,46.22,1814.98,47.44,1822,47.95z"/>
		<path class="st3" d="M1822,75.73v5c-6.94-0.67-14.81-2.14-24-4.73c-54.62-15.48-62.63,8.75-104,4.73v-5
			c41.37,4.02,49.38-20.21,104-4.73C1807.19,73.59,1815.06,75.06,1822,75.73z"/>
		<path class="st4" d="M1822,110.73V166h-128v-55.27c41.37,4.02,49.38-20.22,104-4.73C1807.19,108.59,1815.06,110.06,1822,110.73z"
			/>
		<path class="st4" d="M1822,140.73V166h-128v-25.27c41.37,4.02,49.38-20.22,104-4.73C1807.19,138.59,1815.06,140.06,1822,140.73z"
			/>
	</g>
	<g>
		<path class="st0" d="M1960,79.66V166h-128V79.66c48.57,8.21,54.03-20.09,112-3.66C1949.83,77.64,1955.13,78.83,1960,79.66z"/>
		<path class="st1" d="M1960,47.1v32.56c-4.87-0.83-10.17-2.02-16-3.66c-57.97-16.43-63.43,11.87-112,3.66V47.1
			c37.68,5.22,51.81-9.1,79.08-9.1c9.07,0,19.59,1.59,32.92,6C1949.79,45.42,1955.09,46.42,1960,47.1z"/>
		<path class="st2" d="M1960,47.1v6c-4.91-0.68-10.21-1.68-16-3.1c-53.4-17.68-61.78,10.05-112,3.1v-6
			c37.68,5.22,51.81-9.1,79.08-9.1c9.07,0,19.59,1.59,32.92,6C1949.79,45.42,1955.09,46.42,1960,47.1z"/>
		<path class="st3" d="M1960,74.66v5c-4.87-0.83-10.17-2.02-16-3.66c-57.97-16.43-63.43,11.87-112,3.66v-5
			c48.57,8.21,54.03-20.09,112-3.66C1949.83,72.64,1955.13,73.83,1960,74.66z"/>
		<path class="st4" d="M1960,109.66V166h-128v-56.34c48.57,8.21,54.03-20.1,112-3.66C1949.83,107.64,1955.13,108.83,1960,109.66z"/>
		<path class="st4" d="M1960,139.66V166h-128v-26.34c48.57,8.21,54.03-20.1,112-3.66C1949.83,137.64,1955.13,138.83,1960,139.66z"/>
	</g>
	<g>
		<path class="st0" d="M2098,78.05V166h-128V78.05c56.14,12.91,58.99-19.34,120-2.05C2092.78,76.78,2095.45,77.46,2098,78.05z"/>
		<path class="st1" d="M2098,45.76v32.29c-2.55-0.59-5.22-1.27-8-2.05c-61.01-17.29-63.86,14.96-120,2.05V45.76
			c43.83,8.57,57.96-7.76,87.08-7.76c9.07,0,19.59,1.59,32.92,6C2092.78,44.68,2095.44,45.26,2098,45.76z"/>
		<path class="st2" d="M2098,45.76v6c-2.56-0.5-5.22-1.08-8-1.76c-56.12-18.58-62.52,12.99-120,1.76v-6
			c43.83,8.57,57.96-7.76,87.08-7.76c9.07,0,19.59,1.59,32.92,6C2092.78,44.68,2095.44,45.26,2098,45.76z"/>
		<path class="st3" d="M2098,73.05v5c-2.55-0.59-5.22-1.27-8-2.05c-61.01-17.29-63.86,14.96-120,2.05v-5
			c56.14,12.91,58.99-19.34,120-2.05C2092.78,71.78,2095.45,72.46,2098,73.05z"/>
		<path class="st4" d="M2098,108.05V166h-128v-57.95c56.14,12.91,58.99-19.35,120-2.05C2092.78,106.78,2095.45,107.46,2098,108.05z"
			/>
		<path class="st4" d="M2098,138.05V166h-128v-27.95c56.14,12.91,58.99-19.35,120-2.05C2092.78,136.78,2095.45,137.46,2098,138.05z"
			/>
	</g>
	<g>
		<path class="st0" d="M2236,76v90h-128V76C2172,94,2172.22,57.92,2236,76z"/>
		<path class="st1" d="M2236,44v32c-63.78-18.08-64,18-128,0V44c50.23,12.29,64.26-6,95.08-6C2212.15,38,2222.67,39.59,2236,44z"/>
		<path class="st2" d="M2236,44v6c-58.62-19.41-62.99,15.91-128,0v-6c50.23,12.29,64.26-6,95.08-6C2212.15,38,2222.67,39.59,2236,44
			z"/>
		<path class="st3" d="M2236,71v5c-63.78-18.08-64,18-128,0v-5C2172,89,2172.22,52.92,2236,71z"/>
		<path class="st4" d="M2236,106v60h-128v-60C2172,124,2172.22,87.91,2236,106z"/>
		<path class="st4" d="M2236,136v30h-128v-30C2172,154,2172.22,117.91,2236,136z"/>
	</g>
</g>
</svg>
